<svg width="3783" height="1892" viewBox="0 0 3783 1892" fill="none" xmlns="http://www.w3.org/2000/svg">
<path d="M1227.71 822.892C1315.98 822.892 1423.42 855.813 1477.01 994.434C1532.5 883.563 1631.23 822.892 1761.12 822.892C1967.16 822.892 2069.3 956.342 2069.3 1157.27V1654.36H1951.53V1205.71C1951.53 1035.93 1894.4 921.655 1741.95 921.655C1572.34 921.655 1511.69 1073.01 1511.69 1223.11V1654.36H1393.91V1181.49C1393.91 1023.82 1356.08 921.655 1198.21 921.655C1085.72 921.655 962.777 1022.56 962.777 1238.63V1654.87H844.873V1021.68C844.873 978.289 843.108 898.699 837.938 843.2H950.419C953.95 886.464 957.354 947.134 957.354 981.947H960.885C986.56 933.557 1025.01 893.14 1072.06 865.095C1119.11 837.051 1172.95 822.453 1227.71 822.892Z" fill="#292C35"/>
<path d="M2675.46 1035.93C2640.78 968.452 2566.38 921.656 2476.35 921.656C2391.48 921.656 2304.85 957.983 2304.85 1047.79C2304.85 1123.47 2365.51 1158.53 2498.8 1186.54C2689.33 1226.39 2779.37 1297.41 2779.37 1423.92C2779.37 1609.21 2623.51 1675.05 2474.58 1675.05C2351.64 1675.05 2228.69 1626.49 2154.16 1517.38L2247.73 1448.14C2271.61 1486.4 2304.76 1518.02 2344.11 1540.07C2383.45 1562.12 2427.72 1573.88 2472.82 1574.27C2573.7 1574.27 2663.36 1537.94 2663.36 1432.24C2663.36 1347.36 2578.49 1312.8 2423.77 1276.34C2328.43 1253.89 2191.62 1212.27 2191.62 1058.13C2191.62 894.159 2333.6 822.516 2480.89 822.516C2593.37 822.516 2712.91 876.248 2764.87 968.074L2675.46 1035.93Z" fill="#292C35"/>
<path d="M3004.46 1209.24H3009.63L3383.77 843.453H3553.5L3144.81 1214.41L3594.98 1654.36H3421.85L3009.63 1228.29H3004.46V1654.36H2886.68V344.848H3004.46V1209.24Z" fill="#292C35"/>
<path d="M578.295 724.257L968.196 499.11L922.674 420.402L578.043 619.441L233.412 420.402L188.016 499.11L577.917 724.257L578.043 724.51V724.384L578.169 724.51L578.295 724.257Z" fill="#9200AD"/>
<path d="M750.168 438.82L836.168 318.236L759.121 263.242L674.508 381.934C703.559 395.174 729.377 414.587 750.168 438.82Z" fill="#9200AD"/>
<path d="M585.737 360.49C600.927 360.5 616.084 361.935 631.006 364.779V216.824H532.648V366.418C550.075 362.51 567.877 360.522 585.737 360.49Z" fill="#9200AD"/>
<path d="M490.782 378.4L402.512 261.727L326.852 318.739L415.122 436.673C435.776 411.946 461.603 392.054 490.782 378.4Z" fill="#9200AD"/>
</svg>
