<svg width="21" height="16" viewBox="0 0 21 16" fill="none" xmlns="http://www.w3.org/2000/svg">
<path d="M19.0957 0H2.16429C1.34056 0 0.672852 0.803134 0.672852 1.79392V5.23116H20.5872V1.79392C20.5872 0.803134 19.9195 0 19.0957 0Z" fill="#82AFFF"/>
<path d="M0.672852 13.8996C0.672852 14.8904 1.34056 15.6936 2.16429 15.6936H19.0957C19.9194 15.6936 20.5872 14.8904 20.5872 13.8996V10.4624H0.672852V13.8996Z" fill="#82AFFF"/>
<path d="M20.5872 5.23096H0.672852V10.4618H20.5872V5.23096Z" fill="#F5F5F5"/>
<path d="M12.3467 7.74347H11.1104C11.1335 7.72242 11.1517 7.70169 11.1682 7.68214C11.1984 7.64663 11.2224 7.61842 11.2861 7.58693C11.3501 7.55465 11.3836 7.55428 11.4261 7.55348C11.4772 7.55306 11.535 7.55189 11.6296 7.50506C11.724 7.45786 11.7652 7.40943 11.8016 7.36672C11.8318 7.33121 11.8558 7.303 11.9196 7.27109C11.9832 7.23924 12.0166 7.23881 12.0588 7.23844C12.1098 7.2376 12.1676 7.23685 12.2621 7.18964L12.1961 6.99924C12.1326 7.03109 12.0991 7.03152 12.0569 7.03189C12.006 7.03273 11.9482 7.03348 11.8538 7.08031C11.7594 7.12752 11.7181 7.17594 11.6817 7.21865C11.6515 7.25416 11.6275 7.28237 11.5639 7.31386C11.4998 7.34614 11.4663 7.34651 11.4239 7.34731C11.3728 7.34773 11.3149 7.3489 11.2203 7.3961C11.126 7.44288 11.0847 7.49173 11.0483 7.53444C11.0186 7.5692 10.9941 7.59704 10.9329 7.6281L11.9045 6.45959L11.7831 6.31357L10.9086 7.36536C10.9124 7.33098 10.9135 7.30038 10.9137 7.27264C10.9142 7.22141 10.9146 7.18146 10.941 7.10445C10.9675 7.02745 10.991 6.99877 11.0205 6.96251C11.0564 6.91853 11.0968 6.86857 11.136 6.75484C11.1751 6.64111 11.1758 6.57173 11.1763 6.51044C11.1768 6.45963 11.1771 6.41926 11.2034 6.34267C11.2299 6.26604 11.2532 6.23741 11.2827 6.20111C11.3184 6.15713 11.3588 6.10749 11.3979 5.99418L11.2394 5.91517C11.2129 5.99175 11.1896 6.02043 11.1601 6.05673C11.1244 6.10071 11.084 6.15035 11.0449 6.26366C11.0058 6.37739 11.0051 6.44677 11.0046 6.50805C11.0041 6.55886 11.0037 6.59924 10.9774 6.67582C10.951 6.75283 10.9275 6.7815 10.8979 6.81776C10.8621 6.86174 10.8217 6.9117 10.7825 7.02543C10.7434 7.13917 10.7427 7.20897 10.7421 7.27025C10.7417 7.31998 10.7406 7.36017 10.7158 7.434V5.78174H10.5441V7.26866C10.5266 7.24111 10.5094 7.21921 10.4933 7.19938C10.4637 7.16307 10.4403 7.13402 10.4138 7.05743C10.3873 6.98043 10.3868 6.9401 10.3863 6.88883C10.3858 6.82749 10.3852 6.75774 10.3459 6.64401C10.3069 6.5307 10.2664 6.48111 10.2307 6.43708C10.2012 6.40078 10.178 6.37215 10.1514 6.29552C10.1251 6.21888 10.1248 6.17856 10.1243 6.12775C10.1238 6.06642 10.1231 5.99708 10.084 5.88373L9.92545 5.96274C9.95174 6.03938 9.95209 6.07933 9.9526 6.13009C9.9531 6.19142 9.95376 6.26076 9.99285 6.37449C10.0319 6.4878 10.0724 6.53739 10.1081 6.58141C10.1376 6.61771 10.1608 6.64635 10.1874 6.72298C10.2139 6.79998 10.2144 6.84031 10.2149 6.89159C10.2154 6.95292 10.216 7.02267 10.2552 7.1364C10.2943 7.25014 10.3347 7.29973 10.3704 7.3437C10.3995 7.37926 10.4226 7.40897 10.4484 7.48228L9.47672 6.31367L9.35532 6.45968L10.3255 7.62646C10.2723 7.59741 10.2466 7.5707 10.2187 7.53814C10.182 7.495 10.1406 7.44621 10.0457 7.399C9.95116 7.35222 9.89332 7.351 9.84217 7.35021C9.79958 7.34978 9.7661 7.34904 9.70153 7.31676C9.63696 7.2849 9.61285 7.25669 9.58216 7.2208C9.54548 7.17804 9.50386 7.12929 9.4088 7.08167C9.3139 7.03446 9.25587 7.03367 9.2046 7.03287C9.16186 7.03203 9.12818 7.03128 9.06361 6.999L8.99792 7.19016C9.09282 7.23736 9.15085 7.23816 9.20212 7.23895C9.24486 7.2398 9.27854 7.24055 9.34311 7.27283C9.40783 7.30469 9.43195 7.3329 9.46264 7.36878C9.49931 7.41191 9.54093 7.46029 9.6358 7.50754C9.7307 7.55512 9.78873 7.55596 9.83984 7.55676C9.88243 7.5576 9.91592 7.55792 9.98017 7.59021C10.0444 7.62207 10.0684 7.65028 10.0987 7.68583C10.1143 7.70426 10.1317 7.72368 10.1528 7.74352H8.91309V7.95002H10.2843C10.2301 7.97481 10.1962 7.97795 10.1574 7.97865C10.1063 7.97907 10.0484 7.98024 9.95373 8.02707C9.85902 8.07428 9.8174 8.12302 9.78072 8.16583C9.75019 8.20171 9.72623 8.22993 9.66201 8.26178C9.59745 8.29407 9.56376 8.29486 9.52102 8.29566C9.46971 8.2965 9.41172 8.29725 9.31682 8.34445C9.22176 8.39203 9.18018 8.4404 9.14346 8.48359C9.11277 8.51947 9.08866 8.54768 9.02409 8.57954L9.08979 8.7707C9.18469 8.72312 9.22627 8.67474 9.26295 8.63156C9.29364 8.59568 9.31775 8.56747 9.38247 8.53561C9.44704 8.50333 9.48072 8.50253 9.52347 8.50174C9.57477 8.5009 9.63276 8.50015 9.72786 8.45252C9.82242 8.40532 9.86384 8.3569 9.90052 8.31376C9.93086 8.27825 9.95501 8.25004 10.0194 8.21814C10.0834 8.18585 10.1172 8.18548 10.1596 8.18468C10.1813 8.18454 10.2058 8.18281 10.2323 8.17888L9.35521 9.23367L9.4766 9.37968L10.4463 8.2135C10.4224 8.27722 10.4004 8.30796 10.3732 8.3416C10.3375 8.38557 10.2971 8.43554 10.2578 8.54927C10.2186 8.663 10.2177 8.73322 10.2173 8.79446C10.2166 8.84569 10.2163 8.88597 10.1896 8.96344C10.1629 9.04129 10.1393 9.0703 10.1096 9.10702C10.0738 9.151 10.0333 9.20139 9.99394 9.31554C9.95454 9.42969 9.95384 9.49949 9.95322 9.56115C9.95252 9.61238 9.95205 9.65308 9.92541 9.73051L10.084 9.80953C10.1234 9.69537 10.1241 9.62557 10.1247 9.56391C10.1254 9.51268 10.1259 9.47198 10.1525 9.39456C10.1792 9.31671 10.2028 9.2877 10.2325 9.25098C10.2683 9.207 10.3088 9.15661 10.3482 9.04246C10.3874 8.92873 10.3883 8.85851 10.3887 8.79727C10.3894 8.74604 10.3897 8.70576 10.4164 8.62829C10.4429 8.55086 10.4664 8.52218 10.496 8.4855C10.5113 8.4667 10.5275 8.44574 10.544 8.42024V9.91161H10.7157V8.26239C10.7361 8.32742 10.7387 8.36808 10.7393 8.41495C10.7398 8.47629 10.7407 8.54604 10.7799 8.65977C10.8189 8.77392 10.8595 8.82394 10.8953 8.86787C10.9249 8.90459 10.9484 8.9336 10.975 9.01102C11.0017 9.08845 11.0022 9.1292 11.0028 9.18038C11.0035 9.24209 11.0042 9.31184 11.0436 9.42599C11.083 9.54015 11.1233 9.59058 11.1592 9.63451C11.1889 9.67123 11.2125 9.70024 11.2392 9.77809L11.3978 9.69907C11.3584 9.58492 11.318 9.53449 11.2821 9.49056C11.2525 9.45383 11.2288 9.42482 11.2021 9.34698C11.1755 9.26955 11.175 9.2288 11.1743 9.17762C11.1736 9.11591 11.173 9.04616 11.1336 8.93201C11.0944 8.81785 11.054 8.76784 11.0182 8.72391C10.9886 8.68719 10.9651 8.65818 10.9385 8.58076C10.9118 8.50375 10.9115 8.46342 10.9108 8.41215C10.9105 8.38609 10.9091 8.35661 10.9059 8.32475L11.783 9.37973L11.9044 9.23371L11.03 8.18211C11.0584 8.18665 11.0838 8.18801 11.1067 8.18838C11.1491 8.1888 11.1825 8.18922 11.2466 8.22104C11.3106 8.25332 11.3346 8.28111 11.3649 8.31699C11.4015 8.35975 11.4429 8.4085 11.5375 8.45575C11.6318 8.50253 11.6897 8.50333 11.7406 8.50375C11.7829 8.50459 11.8163 8.50492 11.88 8.53683C11.9437 8.56826 11.9675 8.59652 11.9977 8.63203C12.0342 8.67479 12.0755 8.72354 12.1699 8.77079L12.2355 8.57963C12.1718 8.54819 12.148 8.51994 12.1179 8.48443C12.0813 8.44167 12.04 8.39292 11.9457 8.34567C11.8513 8.29888 11.7934 8.29809 11.7425 8.29767C11.7002 8.29683 11.6669 8.2965 11.6032 8.26459C11.5391 8.23273 11.5151 8.2049 11.4848 8.16897C11.4482 8.12621 11.4068 8.07746 11.3123 8.03063C11.2177 7.98305 11.1599 7.98221 11.1087 7.98183C11.0671 7.98099 11.0334 7.98005 10.9717 7.94997H12.3466V7.74347H12.3467Z" fill="#F09146"/>
<path d="M10.63 8.87924C11.1041 8.87924 11.4884 8.41697 11.4884 7.84672C11.4884 7.27648 11.1041 6.81421 10.63 6.81421C10.1559 6.81421 9.77161 7.27648 9.77161 7.84672C9.77161 8.41697 10.1559 8.87924 10.63 8.87924Z" fill="#FFE15A"/>
</svg>
