<svg width="20" height="23" viewBox="0 0 20 23" fill="none" xmlns="http://www.w3.org/2000/svg">
<path d="M1.49785 19.0345H18.5021C19.3294 19.0345 20 18.2633 20 17.3119V14.0115H0V17.3119C0 18.2633 0.670586 19.0345 1.49785 19.0345Z" fill="#73AF00"/>
<path d="M20 5.68811C20 4.73679 19.3294 3.96558 18.5021 3.96558H1.49785C0.670586 3.96558 0 4.73675 0 5.68811V8.98856H20V5.68811Z" fill="#FF4B55"/>
<path d="M20 8.98853H0V14.0112H20V8.98853Z" fill="#FFE15A"/>
<path d="M9.55462 9.25198C9.55462 9.25198 9.54576 9.26474 9.52912 9.28868C9.51525 9.31078 9.49443 9.34474 9.4717 9.38993C9.42697 9.47973 9.38002 9.61895 9.37873 9.78489C9.37826 9.86579 9.39279 9.96404 9.41677 10.0422C9.44279 10.1284 9.48595 10.2109 9.54052 10.2846C9.59517 10.3589 9.66818 10.4162 9.74627 10.4585C9.78498 10.4811 9.82748 10.4941 9.86962 10.5061C9.89052 10.5134 9.91279 10.5137 9.93423 10.5186C9.94502 10.5209 9.95619 10.5199 9.96709 10.5209L9.98357 10.5217L9.99181 10.5222L9.99591 10.5225L9.99798 10.5226L9.999 10.5227C9.99568 10.5228 10.0079 10.5225 9.99181 10.523C10.0185 10.5212 10.051 10.521 10.073 10.5179C10.0922 10.5127 10.1084 10.5136 10.1304 10.5061C10.1726 10.4942 10.2151 10.4812 10.2538 10.4586C10.3318 10.4163 10.4049 10.3589 10.4595 10.2846C10.5141 10.2109 10.5572 10.1284 10.5833 10.0422C10.6082 9.95447 10.6215 9.87051 10.6213 9.78453C10.6201 9.61931 10.5731 9.4796 10.5284 9.38989C10.5058 9.34488 10.4849 9.31069 10.47 9.28765C10.4545 9.26496 10.4463 9.25279 10.4463 9.25279L10.4442 9.24978C10.4294 9.22795 10.4327 9.19646 10.4517 9.17934C10.4667 9.16586 10.487 9.16546 10.5021 9.1766C10.5021 9.1766 10.5149 9.18599 10.5387 9.20355C10.5613 9.22305 10.5963 9.25059 10.634 9.29515C10.7097 9.38131 10.8079 9.53476 10.8433 9.75775C10.8608 9.86449 10.8628 9.99359 10.8386 10.1205C10.8151 10.2487 10.7676 10.3813 10.6908 10.4973C10.6154 10.6138 10.5142 10.7168 10.3937 10.7863C10.3343 10.8228 10.2697 10.8492 10.2033 10.8676C10.1715 10.8784 10.1312 10.8828 10.0952 10.8893C10.0616 10.8936 10.0376 10.8937 10.0083 10.8961L9.99689 10.8961L9.99369 10.8959L9.98728 10.8956L9.97447 10.8948L9.9488 10.8932C9.93173 10.8917 9.91459 10.8919 9.89767 10.8886C9.86396 10.8817 9.82966 10.8786 9.79677 10.8676C9.73044 10.8493 9.66576 10.8228 9.60638 10.7863C9.48595 10.7168 9.38466 10.6137 9.30927 10.4973C9.23255 10.3812 9.18502 10.2487 9.16154 10.1205C9.13646 9.98394 9.13959 9.86912 9.15685 9.75735C9.1922 9.53503 9.29048 9.38104 9.36611 9.29506C9.40365 9.25068 9.43877 9.22287 9.46232 9.20248C9.48498 9.18612 9.49712 9.17736 9.49712 9.17736C9.51767 9.16254 9.54478 9.16964 9.55767 9.19327C9.56783 9.21204 9.56595 9.23563 9.55462 9.25198Z" fill="#73AF00"/>
<path d="M9.91337 13.2009V13.8285C9.91337 13.8912 9.84755 13.9225 9.80907 13.8783L9.77904 13.8437C9.75407 13.815 9.74005 13.7761 9.74005 13.7355V13.2009H9.91337Z" fill="#FF4B55"/>
<path d="M9.65338 13.1013V13.5569C9.65338 13.5842 9.66283 13.6105 9.67967 13.6299L9.74002 13.6993V13.1013H9.65338Z" fill="#FFE15A"/>
<path d="M9.56671 13.1013V13.3458C9.56671 13.3807 9.57878 13.4142 9.60019 13.4388L9.65335 13.5V13.1013H9.56671Z" fill="#73AF00"/>
<path d="M10.0867 13.2009V13.8285C10.0867 13.8912 10.1525 13.9225 10.191 13.8783L10.221 13.8437C10.246 13.815 10.26 13.7761 10.26 13.7355V13.2009H10.0867Z" fill="#FF4B55"/>
<path d="M10.3466 13.1013V13.5569C10.3466 13.5842 10.3372 13.6105 10.3204 13.6299L10.26 13.6993V13.1013H10.3466Z" fill="#FFE15A"/>
<path d="M10.4333 13.1013V13.3458C10.4333 13.3807 10.4212 13.4142 10.3998 13.4388L10.3467 13.5V13.1013H10.4333Z" fill="#73AF00"/>
<path d="M10.4333 11.3075L11.3865 10.5103V12.1498C11.3865 12.6203 11.0549 13.0017 10.6458 13.0017C10.5069 13.0017 10.3709 12.9568 10.2531 12.8722L9.74005 12.5034V11.2937L10.4333 11.3075Z" fill="#FF4B55"/>
<path d="M11.0399 10.8V11.9504C11.0399 12.4209 10.7083 12.8023 10.2992 12.8023C10.2376 12.8023 10.177 12.7921 10.1179 12.7749L9.74005 12.5033V11.2935L10.4333 11.3074L11.0399 10.8Z" fill="#FFE15A"/>
<path d="M10.78 11.0176V11.7602C10.78 12.2307 10.4483 12.6121 10.0392 12.6121C9.97767 12.6121 9.917 12.6019 9.85794 12.5847L9.74005 12.5V11.2936L10.4333 11.3075L10.78 11.0176Z" fill="#73AF00"/>
<path d="M11.4385 10.3308L11.8199 10.1116L11.5425 10.5102H11.3865L11.4385 10.3308Z" fill="#F5F5F5"/>
<path d="M10.9533 11.8058L11.9065 11.0085V12.6481C11.9065 13.1186 11.5748 13.5 11.1657 13.5C11.0269 13.5 10.8908 13.4551 10.7731 13.3705L10.26 13.0017V11.792L10.9533 11.8058Z" fill="#FF4B55"/>
<path d="M11.2999 11.5159V12.2585C11.2999 12.729 10.9683 13.1104 10.5591 13.1104C10.4976 13.1104 10.437 13.1002 10.3779 13.083L10.26 12.9982V11.792L10.9533 11.8058L11.2999 11.5159Z" fill="#73AF00"/>
<path d="M11.9584 10.8291L12.3398 10.6099L12.0625 11.0085H11.9065L11.9584 10.8291Z" fill="#F5F5F5"/>
<path d="M10.6933 11.6064L11.6465 10.8091V12.4486C11.6465 12.9192 11.3148 13.3005 10.9057 13.3005C10.7669 13.3005 10.6309 13.2557 10.5131 13.1711L10 12.8023V11.5925L10.6933 11.6064Z" fill="#FF4B55"/>
<path d="M11.2999 11.0991V12.2494C11.2999 12.7199 10.9682 13.1013 10.5591 13.1013C10.4976 13.1013 10.437 13.0911 10.3779 13.0739L10 12.8024V11.5926L10.6933 11.6065L11.2999 11.0991Z" fill="#FFE15A"/>
<path d="M11.0399 11.3167V12.0593C11.0399 12.5298 10.7082 12.9112 10.2991 12.9112C10.2376 12.9112 10.177 12.901 10.1179 12.8837L10 12.7991V11.5927L10.6933 11.6066L11.0399 11.3167Z" fill="#73AF00"/>
<path d="M11.6985 10.6299L12.0798 10.4106L11.8025 10.8093H11.6465L11.6985 10.6299Z" fill="#F5F5F5"/>
<path d="M9.56671 11.3075L8.61346 10.5103V12.1498C8.61346 12.6203 8.94514 13.0017 9.35425 13.0017C9.49307 13.0017 9.62913 12.9568 9.74686 12.8722L10.2599 12.5034V11.2937L9.56671 11.3075Z" fill="#FF4B55"/>
<path d="M8.96008 10.8V11.9504C8.96008 12.4209 9.29176 12.8023 9.70086 12.8023C9.76239 12.8023 9.82301 12.7921 9.88211 12.7749L10.26 12.5033V11.2935L9.56668 11.3074L8.96008 10.8Z" fill="#FFE15A"/>
<path d="M9.22009 11.0176V11.7602C9.22009 12.2307 9.55177 12.6121 9.96087 12.6121C10.0224 12.6121 10.0831 12.6019 10.1421 12.5847L10.26 12.5V11.2936L9.56673 11.3075L9.22009 11.0176Z" fill="#73AF00"/>
<path d="M8.5615 10.3308L8.18018 10.1116L8.45752 10.5102H8.61346L8.5615 10.3308Z" fill="#F5F5F5"/>
<path d="M9.04675 11.8058L8.09351 11.0085V12.6481C8.09351 13.1186 8.42519 13.5 8.83429 13.5C8.97312 13.5 9.10917 13.4551 9.2269 13.3705L9.73999 13.0017V11.792L9.04675 11.8058Z" fill="#FF4B55"/>
<path d="M8.70013 11.5159V12.2585C8.70013 12.729 9.03181 13.1104 9.44092 13.1104C9.50244 13.1104 9.56306 13.1002 9.62217 13.083L9.74006 12.9982V11.792L9.04677 11.8058L8.70013 11.5159Z" fill="#73AF00"/>
<path d="M8.04151 10.8291L7.66022 10.6099L7.93752 11.0085H8.09346L8.04151 10.8291Z" fill="#F5F5F5"/>
<path d="M9.3067 11.6064L8.35345 10.8091V12.4486C8.35345 12.9192 8.68513 13.3005 9.09424 13.3005C9.23306 13.3005 9.36912 13.2557 9.48685 13.1711L9.99994 12.8023V11.5925L9.3067 11.6064Z" fill="#FF4B55"/>
<path d="M8.70013 11.0991V12.2494C8.70013 12.7199 9.03181 13.1013 9.44092 13.1013C9.50244 13.1013 9.56306 13.0911 9.62217 13.0739L10 12.8023V11.5926L9.30674 11.6064L8.70013 11.0991Z" fill="#FFE15A"/>
<path d="M8.96008 11.3167V12.0593C8.96008 12.5298 9.29176 12.9112 9.70086 12.9112C9.76239 12.9112 9.82301 12.901 9.88211 12.8837L10 12.799V11.5927L9.30672 11.6065L8.96008 11.3167Z" fill="#73AF00"/>
<path d="M8.86509 13.0881L8.75083 12.9567C8.68158 12.8771 8.68341 12.7472 8.75498 12.6702L10.6463 10.6265L10.8914 10.9084L9.11419 13.0833C9.04732 13.1657 8.93443 13.1679 8.86509 13.0881Z" fill="#FFBE5A"/>
<path d="M8.8082 13.1221C8.85605 13.1221 8.89484 13.0775 8.89484 13.0225C8.89484 12.9675 8.85605 12.9229 8.8082 12.9229C8.76035 12.9229 8.72156 12.9675 8.72156 13.0225C8.72156 13.0775 8.76035 13.1221 8.8082 13.1221Z" fill="#FFBE5A"/>
<path d="M10.8302 10.6972C10.7625 10.6194 10.6802 10.5878 10.6464 10.6267C10.6126 10.6656 10.64 10.7603 10.7077 10.8381C10.7753 10.9159 10.8576 10.9475 10.8915 10.9086C10.9253 10.8696 10.8979 10.775 10.8302 10.6972Z" fill="#F5F5F5"/>
<path d="M11.1349 13.0881L11.2491 12.9567C11.3184 12.8771 11.3166 12.7472 11.245 12.6702L9.3537 10.6265L9.10858 10.9084L10.8858 13.0833C10.9527 13.1657 11.0656 13.1679 11.1349 13.0881Z" fill="#FFBE5A"/>
<path d="M11.1918 13.1221C11.2397 13.1221 11.2784 13.0775 11.2784 13.0225C11.2784 12.9675 11.2397 12.9229 11.1918 12.9229C11.144 12.9229 11.1052 12.9675 11.1052 13.0225C11.1052 13.0775 11.144 13.1221 11.1918 13.1221Z" fill="#FFBE5A"/>
<path d="M9.29266 10.8384C9.36033 10.7606 9.38776 10.6659 9.35393 10.627C9.32009 10.5881 9.2378 10.6197 9.17013 10.6975C9.10246 10.7753 9.07504 10.8699 9.10887 10.9088C9.14271 10.9477 9.22499 10.9162 9.29266 10.8384Z" fill="#F5F5F5"/>
<path d="M10 13.002C10.4232 13.002 10.7663 12.5335 10.7663 11.9556C10.7663 11.3777 10.4232 10.9092 10 10.9092C9.57683 10.9092 9.23376 11.3777 9.23376 11.9556C9.23376 12.5335 9.57683 13.002 10 13.002Z" fill="#FFBE5A"/>
<path d="M9.99999 11.0085L10.0407 11.2115L10.1339 11.0329L10.118 11.2404L10.2547 11.1037L10.1838 11.2955L10.3505 11.214L10.2316 11.3711L10.4121 11.3529L10.2568 11.4601L10.4333 11.5069L10.2568 11.5536L10.4121 11.6609L10.2316 11.6426L10.3505 11.7997L10.1838 11.7182L10.2547 11.91L10.118 11.7732L10.1339 11.9807L10.0407 11.8022L9.99999 12.0051L9.95933 11.8022L9.86613 11.9807L9.88198 11.7732L9.74534 11.91L9.81616 11.7182L9.64948 11.7997L9.76835 11.6426L9.58792 11.6609L9.74323 11.5536L9.56671 11.5069L9.74323 11.4601L9.58792 11.3529L9.76835 11.3711L9.64948 11.214L9.81616 11.2955L9.74534 11.1037L9.88198 11.2404L9.86613 11.0329L9.95933 11.2115L9.99999 11.0085Z" fill="#FF4B55"/>
<path d="M10.9587 11.9366C10.9587 11.9366 10.6716 12.0238 10.4848 11.8432C10.2771 11.6424 10.1214 11.5476 10.0547 11.5121C10.0318 11.4999 10.0063 11.4999 9.9834 11.512C9.93559 11.5374 9.84762 11.59 9.7698 11.6688C9.65605 11.7841 9.30672 12.0114 9.23633 12.0114V12.5068L9.78605 13.0547L10.436 13.0329L10.9587 11.9366Z" fill="#73AF00"/>
<path d="M10 13.2508C9.45049 13.2508 9.00342 12.6696 9.00342 11.9552C9.00342 11.2409 9.45045 10.6597 10 10.6597C10.5496 10.6597 10.9966 11.2409 10.9966 11.9552C10.9966 12.6696 10.5496 13.2508 10 13.2508ZM10 10.9586C9.59385 10.9586 9.26342 11.4057 9.26342 11.9552C9.26342 12.5047 9.59385 12.9518 10 12.9518C10.4062 12.9518 10.7366 12.5047 10.7366 11.9552C10.7366 11.4057 10.4062 10.9586 10 10.9586Z" fill="#3CC8FF"/>
<path d="M9.85073 12.98L9.86983 13.0458L9.93018 13.0464C9.938 13.0464 9.9412 13.0579 9.93495 13.0632L9.88643 13.1045L9.90464 13.1706C9.90702 13.1792 9.8985 13.1863 9.89214 13.1811L9.84304 13.1407L9.79393 13.1811C9.78761 13.1863 9.77909 13.1792 9.78143 13.1706L9.79964 13.1045L9.75112 13.0632C9.74483 13.0579 9.74807 13.0464 9.75589 13.0464L9.81624 13.0458L9.83534 12.98C9.8378 12.9715 9.84827 12.9715 9.85073 12.98Z" fill="#FFBE5A"/>
<path d="M9.5798 12.846L9.5989 12.9118L9.65925 12.9124C9.66706 12.9124 9.67026 12.9239 9.66401 12.9292L9.6155 12.9704L9.6337 13.0366C9.63608 13.0452 9.62757 13.0523 9.6212 13.047L9.5721 13.0067L9.523 13.047C9.51667 13.0522 9.50815 13.0451 9.5105 13.0366L9.5287 12.9704L9.48019 12.9292C9.4739 12.9239 9.47714 12.9124 9.48495 12.9124L9.5453 12.9118L9.56441 12.846C9.56687 12.8375 9.57737 12.8375 9.5798 12.846Z" fill="#FFBE5A"/>
<path d="M9.36221 12.6187L9.38131 12.6845L9.44166 12.6851C9.44947 12.6851 9.45267 12.6966 9.44642 12.7019L9.39791 12.7431L9.41611 12.8093C9.41849 12.8179 9.40998 12.825 9.40361 12.8197L9.35451 12.7794L9.30541 12.8197C9.29908 12.8249 9.29056 12.8178 9.29291 12.8093L9.31111 12.7431L9.2626 12.7019C9.25631 12.6966 9.25955 12.6851 9.26736 12.6851L9.32771 12.6845L9.34681 12.6187C9.34928 12.6102 9.35974 12.6102 9.36221 12.6187Z" fill="#FFBE5A"/>
<path d="M9.21389 12.316L9.23299 12.3818L9.29334 12.3823C9.30116 12.3824 9.30436 12.3939 9.29811 12.3992L9.24959 12.4404L9.2678 12.5066C9.27018 12.5152 9.26166 12.5223 9.2553 12.517L9.20619 12.4767L9.15709 12.517C9.15076 12.5222 9.14225 12.5151 9.14459 12.5066L9.1628 12.4404L9.11428 12.3992C9.10799 12.3938 9.11123 12.3824 9.11905 12.3823L9.1794 12.3818L9.1985 12.316C9.20096 12.3074 9.21143 12.3074 9.21389 12.316Z" fill="#FFBE5A"/>
<path d="M9.1484 11.9642L9.1675 12.03L9.22785 12.0305C9.23566 12.0306 9.23887 12.0421 9.23262 12.0474L9.1841 12.0886L9.2023 12.1548C9.20469 12.1633 9.19617 12.1704 9.18981 12.1652L9.1407 12.1249L9.0916 12.1652C9.08527 12.1704 9.07676 12.1633 9.0791 12.1548L9.09731 12.0886L9.04879 12.0474C9.0425 12.042 9.04574 12.0306 9.05356 12.0305L9.11391 12.03L9.13301 11.9642C9.13543 11.9556 9.14594 11.9556 9.1484 11.9642Z" fill="#FFBE5A"/>
<path d="M10.1489 12.98L10.1298 13.0458L10.0695 13.0464C10.0617 13.0464 10.0585 13.0579 10.0647 13.0632L10.1132 13.1045L10.095 13.1706C10.0926 13.1792 10.1011 13.1863 10.1075 13.1811L10.1566 13.1407L10.2057 13.1811C10.212 13.1863 10.2206 13.1792 10.2182 13.1706L10.2 13.1045L10.2485 13.0632C10.2548 13.0579 10.2516 13.0464 10.2438 13.0464L10.1834 13.0458L10.1643 12.98C10.1619 12.9715 10.1514 12.9715 10.1489 12.98Z" fill="#FFBE5A"/>
<path d="M10.4199 12.846L10.4008 12.9118L10.3404 12.9124C10.3326 12.9124 10.3294 12.9239 10.3357 12.9292L10.3842 12.9704L10.366 13.0366C10.3636 13.0452 10.3721 13.0523 10.3785 13.047L10.4276 13.0067L10.4767 13.047C10.483 13.0522 10.4915 13.0451 10.4892 13.0366L10.471 12.9704L10.5195 12.9292C10.5258 12.9239 10.5225 12.9124 10.5147 12.9124L10.4544 12.9118L10.4353 12.846C10.4328 12.8375 10.4223 12.8375 10.4199 12.846Z" fill="#FFBE5A"/>
<path d="M10.6374 12.6187L10.6183 12.6845L10.5579 12.6851C10.5501 12.6851 10.5469 12.6966 10.5532 12.7019L10.6017 12.7431L10.5835 12.8093C10.5811 12.8179 10.5896 12.825 10.596 12.8197L10.6451 12.7794L10.6942 12.8197C10.7005 12.8249 10.709 12.8178 10.7067 12.8093L10.6885 12.7431L10.737 12.7019C10.7433 12.6966 10.74 12.6851 10.7322 12.6851L10.6719 12.6845L10.6528 12.6187C10.6504 12.6102 10.6398 12.6102 10.6374 12.6187Z" fill="#FFBE5A"/>
<path d="M10.7858 12.316L10.7667 12.3818L10.7063 12.3823C10.6985 12.3824 10.6953 12.3939 10.7015 12.3992L10.7501 12.4404L10.7319 12.5066C10.7295 12.5152 10.738 12.5223 10.7444 12.517L10.7935 12.4767L10.8426 12.517C10.8489 12.5222 10.8574 12.5151 10.8551 12.5066L10.8369 12.4404L10.8854 12.3992C10.8917 12.3938 10.8884 12.3824 10.8806 12.3823L10.8203 12.3818L10.8012 12.316C10.7987 12.3074 10.7882 12.3074 10.7858 12.316Z" fill="#FFBE5A"/>
<path d="M10.8512 11.9642L10.8321 12.03L10.7718 12.0305C10.7639 12.0306 10.7607 12.0421 10.767 12.0474L10.8155 12.0886L10.7973 12.1548C10.7949 12.1633 10.8034 12.1704 10.8098 12.1652L10.8589 12.1249L10.908 12.1652C10.9143 12.1704 10.9228 12.1633 10.9205 12.1548L10.9023 12.0886L10.9508 12.0474C10.9571 12.042 10.9539 12.0306 10.9461 12.0305L10.8857 12.03L10.8666 11.9642C10.8642 11.9556 10.8537 11.9556 10.8512 11.9642Z" fill="#FFBE5A"/>
<path d="M9.62346 12.5943L9.65225 12.7527H9.66467V12.6446C9.66467 12.6446 9.68514 12.72 9.71412 12.7527H9.73756C9.72635 12.7361 9.70619 12.7017 9.70619 12.6661C9.70619 12.6171 9.7401 12.6104 9.7401 12.558H9.76916V12.7526H9.78615L9.81764 12.5792C9.81764 12.5792 9.84357 12.6877 9.8924 12.7526H9.91412C9.89846 12.7262 9.86592 12.6579 9.87189 12.5547C9.87189 12.5547 9.91842 12.5279 9.91842 12.4555V12.3524C9.91842 12.3332 9.93205 12.3175 9.94881 12.3175H9.96971C9.96971 12.3175 9.93861 12.2481 9.90537 12.2381V12.1946L9.88033 12.2381C9.85643 12.244 9.84232 12.2695 9.84232 12.2967V12.3594C9.84232 12.3787 9.82873 12.3944 9.81193 12.3944H9.7033C9.67115 12.3944 9.61963 12.4314 9.61963 12.4788C9.61963 12.5261 9.65053 12.5572 9.65053 12.5572L9.62346 12.5943Z" fill="#F5F5F5"/>
<path d="M10.1101 12.4363H10.1002C10.0214 12.4412 9.97742 12.5008 9.97742 12.5008L10.0573 12.5927V12.7655H10.1529V12.5927L10.2328 12.5008C10.2328 12.5008 10.1889 12.4413 10.1101 12.4363Z" fill="#FFBE5A"/>
<path d="M10.307 12.1538H10.2781V12.7663H10.307V12.1538Z" fill="#F5F5F5"/>
<path d="M10.2934 12.149L10.1377 12.3654C10.1377 12.3654 10.1173 12.2611 10.2081 12.1583L10.0077 12.2004C10.0077 12.2004 10.0686 12.0696 10.2284 12.0836L10.0646 11.9263C10.0646 11.9263 10.2054 11.917 10.2771 12.0384C10.2771 12.0384 10.3177 11.8983 10.4315 11.8921L10.3376 12.0561C10.3376 12.0561 10.4315 12.0011 10.5615 12.0494L10.3678 12.1086C10.3678 12.1086 10.4762 12.121 10.5209 12.3032L10.353 12.1709C10.353 12.1709 10.4044 12.241 10.3855 12.378L10.2934 12.149Z" fill="#F5F5F5"/>
<path d="M8.30153 10.6299L7.92017 10.4106L8.19751 10.8093H8.35349L8.30153 10.6299Z" fill="#F5F5F5"/>
<path d="M10.2711 10.3758L11.2999 10.0118L10.7538 9.77632C10.6565 9.73432 10.5534 9.71289 10.4495 9.71289H10.3467C10.2988 9.71289 10.26 9.7575 10.26 9.81253V9.91216H9.99998H9.74002V9.81253C9.74002 9.7575 9.70123 9.71289 9.65338 9.71289H9.55053C9.44662 9.71289 9.34353 9.73441 9.24627 9.77632L8.70013 10.0118L9.72892 10.3758C9.7801 10.394 9.80486 10.4606 9.78095 10.5157L9.65338 10.8091H10.3467L10.2191 10.5157C10.1951 10.4606 10.2199 10.394 10.2711 10.3758Z" fill="#825546"/>
<path d="M10 10.211C10.0957 10.211 10.1733 10.1218 10.1733 10.0118C10.1733 9.90172 10.0957 9.8125 10 9.8125C9.9043 9.8125 9.82672 9.90172 9.82672 10.0118C9.82672 10.1218 9.9043 10.211 10 10.211Z" fill="#F5F5F5"/>
<path d="M10.0867 10.012C10.0867 10.0671 10.0479 10.1117 10 10.1117H9.65338L9.80131 9.94155C9.81756 9.92286 9.83959 9.91235 9.8626 9.91235H9.99998C10.0479 9.91244 10.0867 9.95705 10.0867 10.012Z" fill="#FFBE5A"/>
</svg>
