<svg width="20" height="23" viewBox="0 0 20 23" fill="none" xmlns="http://www.w3.org/2000/svg">
<g clip-path="url(#clip0_10627_1996)">
<path d="M18.5021 3.96558H6.20691C6.39734 3.96558 6.55175 4.14315 6.55175 4.36215V11.1035C6.55175 11.3225 6.39734 11.5001 6.20691 11.5001H20V5.68811C20 4.73675 19.3294 3.96558 18.5021 3.96558Z" fill="#F5F5F5"/>
<path d="M0.689648 11.5001H0.344844C0.154414 11.5001 0 11.3225 0 11.1035V11.5001V11.8967V17.3121C0 18.2634 0.670586 19.0346 1.49785 19.0346H18.5021C19.3294 19.0346 20 18.2634 20 17.3121V11.5001H6.20691H0.689648Z" fill="#FF4B55"/>
<path d="M0.344844 11.5001H0.689688H6.20691C6.39734 11.5001 6.55176 11.3225 6.55176 11.1035V4.36215C6.55176 4.14315 6.39734 3.96558 6.20691 3.96558H1.49785C0.670586 3.96562 0 4.73679 0 5.68815V11.1036C0 11.3225 0.154414 11.5001 0.344844 11.5001Z" fill="#41479B"/>
<path d="M3.4087 6.04146L3.73745 7.17502L4.77651 7.18427C4.91104 7.18544 4.96683 7.38292 4.85858 7.47478L4.02272 8.18459L4.33612 9.3239C4.37667 9.47143 4.23065 9.59339 4.1212 9.50345L3.27589 8.80865L2.43054 9.5035C2.32108 9.59348 2.17507 9.47143 2.21561 9.32395L2.52901 8.18464L1.69315 7.47483C1.58491 7.38292 1.64073 7.18549 1.77522 7.18432L2.81429 7.17506L3.14304 6.04151C3.18561 5.8947 3.36616 5.8947 3.4087 6.04146Z" fill="#F5F5F5"/>
</g>
<defs>
<clipPath id="clip0_10627_1996">
<rect width="20" height="23" fill="white"/>
</clipPath>
</defs>
</svg>
