<svg width="20" height="23" viewBox="0 0 20 23" fill="none" xmlns="http://www.w3.org/2000/svg">
<g clip-path="url(#clip0_10627_2001)">
<path d="M17.7778 3.19434H2.22222C1.63285 3.19434 1.06762 3.46358 0.650874 3.94284C0.234126 4.4221 0 5.07212 0 5.74989L0 11.4999H20V5.74989C20 5.07212 19.7659 4.4221 19.3491 3.94284C18.9324 3.46358 18.3671 3.19434 17.7778 3.19434Z" fill="#FBD116"/>
<path d="M0 11.5H20V15.9722H0V11.5Z" fill="#22408C"/>
<path d="M0 17.2499C0 17.9277 0.234126 18.5777 0.650874 19.057C1.06762 19.5363 1.63285 19.8055 2.22222 19.8055H17.7778C18.3671 19.8055 18.9324 19.5363 19.3491 19.057C19.7659 18.5777 20 17.9277 20 17.2499V15.9722H0V17.2499Z" fill="#CE2028"/>
</g>
<defs>
<clipPath id="clip0_10627_2001">
<rect width="20" height="23" fill="white"/>
</clipPath>
</defs>
</svg>
