<svg width="20" height="24" viewBox="0 0 20 24" fill="none" xmlns="http://www.w3.org/2000/svg">
<path d="M18.5021 4.13794H1.49785C0.670586 4.13794 0 4.94264 0 5.93536V9.37931H20V5.93536C20 4.94264 19.3294 4.13794 18.5021 4.13794Z" fill="#41479B"/>
<path d="M0 18.0646C0 19.0572 0.670586 19.862 1.49785 19.862H18.5021C19.3294 19.862 20 19.0573 20 18.0646V14.6206H0V18.0646Z" fill="#41479B"/>
<path d="M20 9.37915H0V14.6202H20V9.37915Z" fill="#F5F5F5"/>
<path d="M9.99173 13.7606C9.15989 13.7606 8.48309 12.9485 8.48309 11.9503C8.48309 11.5239 8.60903 11.1098 8.83778 10.7842L8.90368 10.8508C8.68802 11.1578 8.56926 11.5482 8.56926 11.9503C8.56926 12.8914 9.20735 13.6572 9.99169 13.6572L9.99173 13.7606Z" fill="#50AF69"/>
<path d="M9.43992 13.2261C9.4211 13.2647 9.41176 13.3176 9.4077 13.3714C9.39067 13.3567 9.37262 13.343 9.35301 13.3315C9.35301 13.3315 9.32336 13.4568 9.34653 13.5471C9.34653 13.5471 9.26789 13.5587 9.19571 13.6457C9.19571 13.6457 9.22059 13.6668 9.26328 13.6887C9.1916 13.7559 9.16949 13.8222 9.16949 13.8222C9.59254 14.0761 9.79528 13.722 9.8041 13.7061C9.70047 13.3513 9.43992 13.2261 9.43992 13.2261Z" fill="#50AF69"/>
<path d="M9.80408 13.7066C9.80447 13.7077 9.80492 13.7086 9.80532 13.7097V13.7048C9.80532 13.7048 9.80436 13.7062 9.80408 13.7066Z" fill="#50AF69"/>
<path d="M9.04917 12.8877C9.02156 12.912 8.99757 12.9525 8.97769 12.9961C8.96781 12.9762 8.95679 12.9567 8.94371 12.9385C8.94371 12.9385 8.8805 13.0311 8.87257 13.1174C8.87257 13.1174 8.80273 13.0928 8.71542 13.1343C8.71542 13.1343 8.72996 13.163 8.75925 13.2003C8.67839 13.2254 8.63953 13.2717 8.63953 13.2717C8.91878 13.6713 9.19761 13.4618 9.20988 13.4523C9.2307 13.1075 9.04917 12.8877 9.04917 12.8877Z" fill="#50AF69"/>
<path d="M9.20996 13.4526C9.2099 13.4537 9.20996 13.4547 9.20984 13.4558L9.21177 13.4514C9.21177 13.4514 9.21044 13.4523 9.20996 13.4526Z" fill="#50AF69"/>
<path d="M8.80683 12.4454C8.77667 12.453 8.74441 12.4758 8.71468 12.5026C8.71269 12.4819 8.70964 12.461 8.70456 12.4402C8.70456 12.4402 8.62406 12.4882 8.59089 12.5555C8.59089 12.5555 8.54116 12.5042 8.45659 12.4996C8.45659 12.4996 8.45964 12.5296 8.47226 12.5733C8.39808 12.5579 8.35187 12.5787 8.35187 12.5787C8.45784 13.0311 8.75156 12.983 8.76464 12.9806C8.888 12.7068 8.80683 12.4454 8.80683 12.4454Z" fill="#50AF69"/>
<path d="M8.76495 12.9808C8.76449 12.9816 8.7642 12.9825 8.76367 12.9834L8.76676 12.9805C8.76682 12.9805 8.76542 12.9807 8.76495 12.9808Z" fill="#50AF69"/>
<path d="M8.71088 11.9412C8.68225 11.9434 8.64889 11.9584 8.61701 11.9775C8.6192 11.9592 8.62041 11.9407 8.61986 11.9219C8.61986 11.9219 8.53822 11.9518 8.49553 12.0054C8.49553 12.0054 8.46053 11.9537 8.38529 11.9373C8.38529 11.9373 8.38232 11.9639 8.38529 12.0035C8.32146 11.9795 8.27588 11.9907 8.27588 11.9907C8.28479 12.3986 8.55834 12.3995 8.57053 12.3993C8.734 12.1797 8.71088 11.9412 8.71088 11.9412Z" fill="#50AF69"/>
<path d="M8.57114 12.3994C8.57048 12.4002 8.57 12.4008 8.56934 12.4016L8.57283 12.3994C8.57289 12.3994 8.57157 12.3994 8.57114 12.3994Z" fill="#50AF69"/>
<path d="M8.74261 11.5237C8.71811 11.5167 8.6869 11.5189 8.65604 11.525C8.66183 11.5104 8.66683 11.4952 8.67038 11.4792C8.67038 11.4792 8.59542 11.4791 8.54804 11.5107C8.54804 11.5107 8.52983 11.4565 8.47026 11.4194C8.47026 11.4194 8.46202 11.4408 8.45597 11.475C8.40761 11.435 8.36694 11.4303 8.36694 11.4303C8.28647 11.7752 8.51573 11.8609 8.52601 11.8645C8.71061 11.731 8.74261 11.5237 8.74261 11.5237Z" fill="#50AF69"/>
<path d="M8.52689 11.8645C8.52617 11.865 8.52556 11.8654 8.52484 11.8658L8.52834 11.865C8.52834 11.865 8.52719 11.8646 8.52689 11.8645Z" fill="#50AF69"/>
<path d="M8.56123 11.0159C8.56123 11.0159 8.48307 11.2616 8.60432 11.4039C8.60432 11.4039 8.76236 11.3479 8.84049 11.1506L8.774 11.1356L8.73986 11.0127L8.6267 11.0731L8.56123 11.0159Z" fill="#50AF69"/>
<path d="M8.78133 10.6211C8.78133 10.6211 8.65887 10.8392 8.75008 11.0107C8.75008 11.0107 8.91461 10.999 9.02793 10.8282L8.96601 10.7955L8.95597 10.6665L8.83437 10.6945L8.78133 10.6211Z" fill="#50AF69"/>
<path d="M10.0082 13.7606V13.6572C10.7925 13.6572 11.4307 12.8914 11.4307 11.9503C11.4307 11.5482 11.3119 11.1578 11.0962 10.8508L11.1621 10.7842C11.3909 11.1098 11.5168 11.5239 11.5168 11.9503C11.5168 12.9485 10.8401 13.7606 10.0082 13.7606Z" fill="#50AF69"/>
<path d="M10.5601 13.2261C10.5789 13.2647 10.5882 13.3176 10.5923 13.3714C10.6093 13.3567 10.6274 13.343 10.647 13.3315C10.647 13.3315 10.6766 13.4568 10.6534 13.5471C10.6534 13.5471 10.7321 13.5587 10.8043 13.6457C10.8043 13.6457 10.7794 13.6668 10.7367 13.6887C10.8084 13.7559 10.8305 13.8222 10.8305 13.8222C10.4074 14.0761 10.2047 13.722 10.1959 13.7061C10.2995 13.3513 10.5601 13.2261 10.5601 13.2261Z" fill="#50AF69"/>
<path d="M10.1962 13.7066C10.1959 13.7077 10.1954 13.7086 10.195 13.7097V13.7048C10.195 13.7048 10.196 13.7062 10.1962 13.7066Z" fill="#50AF69"/>
<path d="M10.9507 12.8877C10.9783 12.912 11.0023 12.9525 11.0222 12.9961C11.0321 12.9762 11.0431 12.9567 11.0562 12.9385C11.0562 12.9385 11.1194 13.0311 11.1273 13.1174C11.1273 13.1174 11.1971 13.0928 11.2844 13.1343C11.2844 13.1343 11.2699 13.163 11.2406 13.2003C11.3215 13.2254 11.3603 13.2717 11.3603 13.2717C11.0811 13.6713 10.8023 13.4618 10.79 13.4523C10.7692 13.1075 10.9507 12.8877 10.9507 12.8877Z" fill="#50AF69"/>
<path d="M10.7906 13.4526C10.7907 13.4537 10.7906 13.4547 10.7907 13.4558L10.7888 13.4514C10.7888 13.4514 10.7901 13.4523 10.7906 13.4526Z" fill="#50AF69"/>
<path d="M11.1932 12.4454C11.2233 12.453 11.2556 12.4758 11.2853 12.5026C11.2873 12.4819 11.2903 12.461 11.2954 12.4402C11.2954 12.4402 11.3759 12.4882 11.4091 12.5555C11.4091 12.5555 11.4589 12.5042 11.5434 12.4996C11.5434 12.4996 11.5403 12.5296 11.5277 12.5733C11.6019 12.5579 11.6481 12.5787 11.6481 12.5787C11.5421 13.0311 11.2484 12.983 11.2353 12.9806C11.1119 12.7068 11.1932 12.4454 11.1932 12.4454Z" fill="#50AF69"/>
<path d="M11.2361 12.9808C11.2365 12.9816 11.2368 12.9825 11.2373 12.9834L11.2343 12.9805C11.2342 12.9805 11.2356 12.9807 11.2361 12.9808Z" fill="#50AF69"/>
<path d="M11.2891 11.9412C11.3177 11.9434 11.351 11.9584 11.383 11.9775C11.3808 11.9592 11.3796 11.9407 11.3801 11.9219C11.3801 11.9219 11.4618 11.9518 11.5045 12.0054C11.5045 12.0054 11.5395 11.9537 11.6147 11.9373C11.6147 11.9373 11.6177 11.9639 11.6147 12.0035C11.6785 11.9795 11.7241 11.9907 11.7241 11.9907C11.7152 12.3986 11.4417 12.3995 11.4295 12.3993C11.266 12.1797 11.2891 11.9412 11.2891 11.9412Z" fill="#50AF69"/>
<path d="M11.4301 12.3994C11.4307 12.4002 11.4312 12.4008 11.4319 12.4016L11.4283 12.3994C11.4283 12.3994 11.4297 12.3994 11.4301 12.3994Z" fill="#50AF69"/>
<path d="M11.2573 11.5237C11.2818 11.5167 11.313 11.5189 11.3439 11.525C11.3381 11.5104 11.333 11.4952 11.3295 11.4792C11.3295 11.4792 11.4045 11.4791 11.4519 11.5107C11.4519 11.5107 11.4701 11.4565 11.5296 11.4194C11.5296 11.4194 11.5379 11.4408 11.5439 11.475C11.5923 11.435 11.633 11.4303 11.633 11.4303C11.7134 11.7752 11.4842 11.8609 11.4739 11.8645C11.2893 11.731 11.2573 11.5237 11.2573 11.5237Z" fill="#50AF69"/>
<path d="M11.4743 11.8645C11.4751 11.865 11.4757 11.8654 11.4764 11.8658L11.4729 11.865C11.4729 11.865 11.474 11.8646 11.4743 11.8645Z" fill="#50AF69"/>
<path d="M11.4387 11.0159C11.4387 11.0159 11.5169 11.2616 11.3957 11.4039C11.3957 11.4039 11.2376 11.3479 11.1595 11.1506L11.226 11.1356L11.2601 11.0127L11.3733 11.0731L11.4387 11.0159Z" fill="#50AF69"/>
<path d="M11.2186 10.6211C11.2186 10.6211 11.3411 10.8392 11.2499 11.0107C11.2499 11.0107 11.0854 10.999 10.972 10.8282L11.034 10.7955L11.044 10.6665L11.1656 10.6945L11.2186 10.6211Z" fill="#50AF69"/>
<path d="M9.99998 12.6724L9.8667 12.9123C9.84393 12.9532 9.84842 13.0078 9.87748 13.0426L9.99998 13.1896L10.1225 13.0426C10.1515 13.0078 10.156 12.9532 10.1333 12.9123L9.99998 12.6724Z" fill="#41479B"/>
<path d="M10.0568 12.9123L10 12.6724L9.94323 12.9123C9.93354 12.9532 9.93545 13.0078 9.9478 13.0426L10 13.1896L10.0522 13.0426C10.0646 13.0078 10.0665 12.9532 10.0568 12.9123Z" fill="#F5F5F5"/>
<path d="M9.99998 10.5259V9.87939C9.99998 9.87939 9.79525 10.2328 9.82755 10.7501" fill="#41479B"/>
<path d="M9.08177 10.5281C8.7856 11.2995 9.08939 11.9341 9.15314 12.0536C9.15486 12.0568 9.57607 11.2391 9.57607 11.2391L9.08177 10.5281Z" fill="#41479B"/>
<path d="M9.39361 11.5929C9.34689 11.4183 9.34013 11.2144 9.39623 10.9804L9.21295 10.7168C9.06236 11.2037 9.12466 11.5633 9.27541 11.8212C9.3124 11.7499 9.35349 11.6705 9.39361 11.5929Z" fill="#F5F5F5"/>
<path d="M9.56903 11.2821C9.55617 11.2821 9.54348 11.2752 9.53496 11.2621L8.99445 10.4281C8.97981 10.4056 8.98321 10.3731 9.00199 10.3556C9.02086 10.3381 9.04785 10.3422 9.06246 10.3647L9.60297 11.1987C9.61762 11.2212 9.61422 11.2537 9.59543 11.2712C9.58758 11.2786 9.57824 11.2821 9.56903 11.2821Z" fill="#FFE15A"/>
<path d="M8.70691 11.3296C8.53449 13.3986 9.91383 12.8813 10 12.6744L9.13793 12.1572L9.31035 11.7434L8.70691 11.3296Z" fill="#41479B"/>
<path d="M9.12369 11.5677L8.88342 11.3948C8.82935 12.6242 9.37646 12.829 9.78002 12.7679C9.45287 12.7152 9.12599 12.4254 9.12369 11.5677Z" fill="#F5F5F5"/>
<path d="M9.31029 11.7949C9.30248 11.7949 9.29459 11.7924 9.28748 11.787L8.59787 11.2699C8.57771 11.2548 8.57158 11.2229 8.5842 11.1987C8.59678 11.1743 8.62334 11.167 8.64361 11.1823L9.33322 11.6994C9.35338 11.7145 9.35951 11.7464 9.34689 11.7706C9.33869 11.7863 9.32463 11.7949 9.31029 11.7949Z" fill="#FFE15A"/>
<path d="M10.9182 10.5261C11.2144 11.2975 10.9106 11.9322 10.8468 12.0517C10.8451 12.0549 10.4239 11.2372 10.4239 11.2372L10.9182 10.5261Z" fill="#41479B"/>
<path d="M10.6064 11.5907C10.6531 11.4161 10.6599 11.2122 10.6038 10.9782L10.787 10.7146C10.9376 11.2015 10.8753 11.5611 10.7246 11.8191C10.6876 11.7477 10.6465 11.6683 10.6064 11.5907Z" fill="#F5F5F5"/>
<path d="M10.431 11.2801C10.4218 11.2801 10.4124 11.2766 10.4046 11.2692C10.3858 11.2517 10.3824 11.2192 10.397 11.1967L10.9376 10.3627C10.9522 10.3402 10.9792 10.3362 10.998 10.3536C11.0168 10.3711 11.0202 10.4037 11.0056 10.4262L10.4651 11.2601C10.4566 11.2733 10.4438 11.2801 10.431 11.2801Z" fill="#FFE15A"/>
<path d="M11.2931 11.3276C11.4655 13.3966 10.0862 12.8793 10 12.6725L10.8621 12.1553L10.6896 11.7414L11.2931 11.3276Z" fill="#41479B"/>
<path d="M10.8763 11.5655L11.1166 11.3926C11.1706 12.622 10.6235 12.8268 10.22 12.7657C10.5471 12.713 10.874 12.4232 10.8763 11.5655Z" fill="#F5F5F5"/>
<path d="M10.6897 11.793C10.6754 11.793 10.6613 11.7844 10.6531 11.7686C10.6405 11.7445 10.6467 11.7126 10.6668 11.6974L11.3564 11.1803C11.3767 11.165 11.4032 11.1724 11.4158 11.1968C11.4284 11.2209 11.4223 11.2528 11.4021 11.268L10.7125 11.7851C10.7054 11.7905 10.6975 11.793 10.6897 11.793Z" fill="#FFE15A"/>
<path d="M10 11.8447C10.1904 11.8447 10.3448 11.6594 10.3448 11.4309C10.3448 11.2024 10.1904 11.0171 10 11.0171C9.80954 11.0171 9.65515 11.2024 9.65515 11.4309C9.65515 11.6594 9.80954 11.8447 10 11.8447Z" fill="#FFE6E6"/>
<path d="M10 11.6379C10.0952 11.6379 10.1724 11.5453 10.1724 11.431C10.1724 11.3168 10.0952 11.2241 10 11.2241C9.90477 11.2241 9.82758 11.3168 9.82758 11.431C9.82758 11.5453 9.90477 11.6379 10 11.6379Z" fill="#F5F5F5"/>
<path d="M9.99999 12.1035C9.97617 12.1035 9.95691 12.0804 9.95691 12.0518V11.4311C9.95691 11.4025 9.97617 11.3794 9.99999 11.3794C10.0238 11.3794 10.0431 11.4025 10.0431 11.4311V12.0518C10.0431 12.0804 10.0238 12.1035 9.99999 12.1035Z" fill="#FFE15A"/>
<path d="M11.1782 12.6638H8.86853L9.13794 12.0486H10.8693L11.1782 12.6638Z" fill="#5AA0E6"/>
<path d="M10.0701 12.1638H10.6708L10.484 11.9396C10.4752 11.9291 10.4644 11.9211 10.4527 11.9164L10.3876 11.8904C10.3642 11.881 10.3384 11.8852 10.3179 11.9016L10.1102 12.0677L10.0701 12.1638Z" fill="#FFB750"/>
<path d="M9.86584 12.2026H10.5828L10.3598 11.935C10.3493 11.9224 10.3365 11.9129 10.3224 11.9073L10.2448 11.8762C10.2168 11.8651 10.186 11.87 10.1615 11.8896L9.91362 12.088L9.86584 12.2026Z" fill="#FFC455"/>
<path d="M9.61652 12.2457H10.4823L10.213 11.9226C10.2003 11.9074 10.1849 11.8959 10.1678 11.8891L10.0741 11.8516C10.0403 11.8381 10.0032 11.844 9.97359 11.8677L9.67429 12.1071L9.61652 12.2457Z" fill="#FFCD55"/>
<path d="M9.36975 12.2844H10.361L10.0526 11.9144C10.0381 11.8969 10.0205 11.8838 10.001 11.876L9.89362 11.8331C9.85491 11.8176 9.81245 11.8245 9.7785 11.8516L9.43577 12.1258L9.36975 12.2844Z" fill="#FFD25A"/>
<path d="M8.96552 12.362H10.2586L9.85637 11.8793C9.83747 11.8566 9.81438 11.8394 9.78899 11.8293L9.64899 11.7733C9.59852 11.7531 9.54309 11.762 9.49884 11.7974L9.05173 12.1551L8.96552 12.362Z" fill="#FFE15A"/>
<path d="M10.093 11.5238H9.90668L9.94957 11.3079H10.0143C10.0353 11.3079 10.0536 11.3252 10.0584 11.3497L10.093 11.5238Z" fill="#FF4B55"/>
<path d="M10.0824 11.5584H9.91502C9.90131 11.5584 9.89026 11.545 9.89026 11.5287V11.5187C9.89026 11.5023 9.90139 11.489 9.91502 11.489H10.0824C10.0961 11.489 10.1071 11.5023 10.1071 11.5187V11.5287C10.1071 11.545 10.096 11.5584 10.0824 11.5584Z" fill="#FF4B55"/>
<path d="M9.97177 11.4062L9.92994 11.3935C9.91732 11.3896 9.91185 11.3718 9.91939 11.359L9.94966 11.3079L9.97177 11.4062Z" fill="#FF4B55"/>
<path d="M9.78494 10.8996C9.78291 10.9186 9.78084 10.9376 9.77881 10.9566C9.8458 10.9078 9.91971 10.8786 9.99998 10.8786C10.0802 10.8787 10.1541 10.9077 10.2212 10.9566C10.2191 10.9376 10.2171 10.9186 10.215 10.8996C10.1484 10.8579 10.0767 10.8339 9.99998 10.834C9.92334 10.8339 9.85162 10.8578 9.78494 10.8996Z" fill="#41479B"/>
<path d="M9.78763 10.875C9.7856 10.894 9.78353 10.913 9.78149 10.932C9.84774 10.8831 9.92075 10.8538 9.99997 10.8537C10.0792 10.8538 10.1522 10.8831 10.2184 10.932C10.2164 10.913 10.2143 10.894 10.2123 10.875C10.1464 10.8329 10.0756 10.8091 9.99993 10.8091C9.92431 10.8091 9.85353 10.833 9.78763 10.875Z" fill="#5AA0E6"/>
<path d="M9.79007 10.852C9.78804 10.871 9.78597 10.89 9.78394 10.909C9.84952 10.86 9.92171 10.8305 9.99995 10.8305C10.0782 10.8305 10.1504 10.86 10.216 10.909C10.2139 10.89 10.2119 10.871 10.2098 10.852C10.1447 10.81 10.0747 10.7859 9.99991 10.7859C9.92526 10.7858 9.8553 10.81 9.79007 10.852Z" fill="#9BC800"/>
<path d="M9.79288 10.8257C9.79084 10.8447 9.78877 10.8637 9.78674 10.8827C9.85159 10.8335 9.92276 10.8039 9.99999 10.8039C10.0772 10.804 10.1484 10.8334 10.2132 10.8827C10.2112 10.8637 10.2091 10.8447 10.2071 10.8257C10.1426 10.7835 10.0737 10.7593 9.99999 10.7593C9.92627 10.7593 9.85733 10.7835 9.79288 10.8257Z" fill="#FFE14E"/>
<path d="M9.79568 10.8001C9.79365 10.819 9.79158 10.8381 9.78955 10.8571C9.85365 10.8077 9.92381 10.7781 9.99998 10.778C10.0762 10.7781 10.1463 10.8076 10.2104 10.8571C10.2084 10.8381 10.2063 10.819 10.2043 10.8001C10.1406 10.7578 10.0726 10.7334 9.99998 10.7334C9.92736 10.7335 9.85932 10.7577 9.79568 10.8001Z" fill="#FFB14E"/>
<path d="M9.79686 10.789C9.79545 10.8023 9.79401 10.8156 9.7926 10.8289C9.85584 10.7795 9.92506 10.7495 10.0001 10.7495C10.0751 10.7495 10.1442 10.7794 10.2075 10.8289C10.2061 10.8156 10.2047 10.8023 10.2033 10.789C10.14 10.7466 10.0724 10.7223 10.0001 10.7222C9.9278 10.7221 9.86014 10.7465 9.79686 10.789Z" fill="#FF4B55"/>
<path d="M11.2069 12.724H8.79309C8.7772 12.724 8.76259 12.7135 8.75509 12.6968C8.74759 12.6799 8.74845 12.6594 8.75723 12.6436L9.96415 10.4712C9.98012 10.4425 10.0199 10.4425 10.0359 10.4712L11.2428 12.6436C11.2516 12.6595 11.2524 12.6799 11.2449 12.6968C11.2374 12.7135 11.2228 12.724 11.2069 12.724ZM8.8736 12.6206H11.1264L9.99997 10.5932L8.8736 12.6206Z" fill="#FFE15A"/>
<path d="M9.99999 10.0344C9.97617 10.0344 9.95691 10.0113 9.95691 9.98273V9.77582C9.95691 9.74723 9.97617 9.72412 9.99999 9.72412C10.0238 9.72412 10.0431 9.74723 10.0431 9.77582V9.98273C10.0431 10.0113 10.0238 10.0344 9.99999 10.0344Z" fill="#FFE15A"/>
<path d="M10.0862 10.0343H9.91375C9.88992 10.0343 9.87067 10.0112 9.87067 9.98261C9.87067 9.95402 9.88992 9.93091 9.91375 9.93091H10.0862C10.11 9.93091 10.1293 9.95402 10.1293 9.98261C10.1293 10.0112 10.11 10.0343 10.0862 10.0343Z" fill="#FFE15A"/>
<path d="M10 13.7589C9.99693 13.7589 9.99373 13.7585 9.99068 13.7577C9.94849 13.7464 9.80771 13.7059 9.76619 13.6565C9.71345 13.5936 9.71318 13.4911 9.76545 13.4278C9.79084 13.3972 9.82459 13.3802 9.86056 13.3801H9.86103C9.89685 13.3801 9.93052 13.3968 9.95595 13.4271C9.99748 13.4766 10.0323 13.6451 10.042 13.6956C10.0453 13.7129 10.041 13.7311 10.0306 13.7437C10.0224 13.7535 10.0114 13.7589 10 13.7589ZM9.86103 13.4835C9.84955 13.488 9.83576 13.4896 9.82658 13.5006C9.80779 13.5233 9.80787 13.5603 9.82689 13.583C9.83732 13.5952 9.88392 13.6164 9.93978 13.6355C9.92345 13.5687 9.90552 13.5129 9.89521 13.5004L9.92556 13.4638L9.89517 13.5004C9.88603 13.4894 9.87392 13.4835 9.86103 13.4835Z" fill="#41479B"/>
<path d="M10 13.7587C9.98863 13.7587 9.97758 13.7534 9.96941 13.7434C9.95902 13.7308 9.95469 13.7126 9.95801 13.6954C9.96769 13.6448 10.0025 13.4764 10.044 13.4269C10.0696 13.3964 10.1 13.3826 10.1394 13.3799C10.1754 13.38 10.2091 13.3969 10.2345 13.4276C10.2869 13.4909 10.2865 13.5934 10.2338 13.6562C10.1923 13.7057 10.0515 13.7462 10.0093 13.7575C10.0062 13.7583 10.0031 13.7587 10 13.7587ZM10.0745 13.4636L10.1048 13.5002C10.0945 13.5127 10.0766 13.5685 10.0602 13.6353C10.1161 13.6162 10.1627 13.5951 10.1732 13.5827C10.1921 13.5602 10.1922 13.5232 10.1734 13.5005C10.1643 13.4895 10.1521 13.4833 10.1392 13.4833H10.139C10.1261 13.4833 10.114 13.4893 10.1049 13.5002L10.0745 13.4636ZM10.0745 13.4636H10.0753H10.0745Z" fill="#41479B"/>
<path d="M9.82757 14.0691C9.80374 14.0691 9.78448 14.046 9.78448 14.0174C9.78448 13.7812 9.97273 13.6656 9.98073 13.6608C10.0021 13.6479 10.0278 13.6584 10.0385 13.6838C10.0492 13.7092 10.0406 13.7403 10.0194 13.7532C10.0179 13.7541 9.87073 13.8458 9.87073 14.0173C9.8707 14.046 9.8514 14.0691 9.82757 14.0691Z" fill="#41479B"/>
<path d="M10.1724 14.069C10.1486 14.069 10.1294 14.0459 10.1294 14.0173C10.1294 13.8458 9.98218 13.754 9.98065 13.7532C9.95948 13.7403 9.95097 13.7092 9.96163 13.6838C9.97237 13.6584 9.998 13.6479 10.0194 13.6608C10.0274 13.6656 10.2156 13.7812 10.2156 14.0174C10.2155 14.0459 10.1963 14.069 10.1724 14.069Z" fill="#41479B"/>
</svg>
