<svg width="21" height="23" viewBox="0 0 21 23" fill="none" xmlns="http://www.w3.org/2000/svg">
<g clip-path="url(#clip0_10627_2066)">
<path d="M20.6762 4.47211C20.272 3.7112 19.5282 3.19434 18.6667 3.19434H10.5V4.47211H20.6762ZM0 15.9721H21V17.2499H0V15.9721ZM10.5 10.861H21V12.1388H10.5V10.861ZM10.5 8.30545H21V9.58322H10.5V8.30545ZM0 13.4166H21V14.6943H0V13.4166ZM2.33333 19.8054H18.6667C19.5282 19.8054 20.272 19.2886 20.6762 18.5277H0.32375C0.728 19.2886 1.47175 19.8054 2.33333 19.8054ZM10.5 5.74989H21V7.02767H10.5V5.74989Z" fill="#B22334"/>
<path d="M0.0396667 17.6838C0.0495833 17.7432 0.0606667 17.8026 0.0740833 17.8607C0.08925 17.9253 0.107917 17.9872 0.12775 18.0498C0.179667 18.2153 0.242667 18.375 0.322 18.5245L0.32375 18.5277H20.6762L20.6774 18.5252C20.7557 18.3745 20.8206 18.216 20.8711 18.0518C20.9095 17.9319 20.9391 17.8088 20.9597 17.6838C20.9837 17.5432 21 17.3988 21 17.2499H0C0 17.3988 0.0163333 17.5426 0.0396667 17.6838ZM0 14.6944H21V15.9722H0V14.6944ZM0 12.1388V13.4166H21V12.1388H10.5H0ZM10.5 9.58328H21V10.8611H10.5V9.58328ZM10.5 7.02772H21V8.3055H10.5V7.02772ZM0.32375 4.47217L0.322 4.47536L0.32375 4.47217ZM0.0746667 5.13917C0.08925 5.074 0.109667 5.01203 0.128333 4.94942C0.108076 5.01184 0.0901719 5.07514 0.0746667 5.13917ZM10.5 5.74995H21C21 5.60108 20.9837 5.4567 20.9597 5.3155C20.9393 5.19035 20.9095 5.06726 20.8705 4.9475C20.8199 4.78255 20.7549 4.62336 20.6762 4.47217H10.5V5.74995Z" fill="#EEEEEE"/>
<path d="M10.5 3.19434H2.33333C1.71449 3.19434 1.121 3.46358 0.683417 3.94284C0.245833 4.4221 0 5.07212 0 5.74989L0 12.1388H10.5V3.19434Z" fill="#3C3B6E"/>
<path d="M1.16724 4.936L1.52774 5.22286L1.39007 5.68606L1.74999 5.39983L2.11049 5.68606L1.97282 5.22286L2.33332 4.936H1.88765L1.74999 4.47217L1.6129 4.936H1.16724ZM2.3339 6.21378L2.6944 6.50064L2.55674 6.96383L2.91665 6.67761L3.27715 6.96383L3.13949 6.50064L3.49999 6.21378H3.05432L2.91665 5.74995L2.77957 6.21378H2.3339ZM4.66724 6.21378L5.02774 6.50064L4.89007 6.96383L5.24999 6.67761L5.61049 6.96383L5.47282 6.50064L5.83332 6.21378H5.38765L5.24999 5.74995L5.1129 6.21378H4.66724ZM7.00057 6.21378L7.36107 6.50064L7.2234 6.96383L7.58332 6.67761L7.94382 6.96383L7.80615 6.50064L8.16665 6.21378H7.72099L7.58332 5.74995L7.44624 6.21378H7.00057ZM2.3339 8.76933L2.6944 9.0562L2.55674 9.51939L2.91665 9.23317L3.27715 9.51939L3.13949 9.0562L3.49999 8.76933H3.05432L2.91665 8.3055L2.77957 8.76933H2.3339ZM4.66724 8.76933L5.02774 9.0562L4.89007 9.51939L5.24999 9.23317L5.61049 9.51939L5.47282 9.0562L5.83332 8.76933H5.38765L5.24999 8.3055L5.1129 8.76933H4.66724ZM7.00057 8.76933L7.36107 9.0562L7.2234 9.51939L7.58332 9.23317L7.94382 9.51939L7.80615 9.0562L8.16665 8.76933H7.72099L7.58332 8.3055L7.44624 8.76933H7.00057ZM3.50057 4.936L3.86107 5.22286L3.7234 5.68606L4.08332 5.39983L4.44382 5.68606L4.30615 5.22286L4.66665 4.936H4.22099L4.08332 4.47217L3.94624 4.936H3.50057ZM5.8339 4.936L6.1944 5.22286L6.05674 5.68606L6.41665 5.39983L6.77715 5.68606L6.63949 5.22286L6.99999 4.936H6.55432L6.41665 4.47217L6.27957 4.936H5.8339ZM8.16724 4.936L8.52774 5.22286L8.39007 5.68606L8.74999 5.39983L9.11049 5.68606L8.97282 5.22286L9.33332 4.936H8.88765L8.74999 4.47217L8.6129 4.936H8.16724ZM1.16724 7.49156L1.52774 7.77842L1.39007 8.24161L1.74999 7.95539L2.11049 8.24161L1.97282 7.77842L2.33332 7.49156H1.88765L1.74999 7.02772L1.6129 7.49156H1.16724ZM3.7234 8.24161L4.08332 7.95539L4.44382 8.24161L4.30615 7.77842L4.66665 7.49156H4.22099L4.08332 7.02772L3.94624 7.49156H3.50057L3.86107 7.77842L3.7234 8.24161ZM5.8339 7.49156L6.1944 7.77842L6.05674 8.24161L6.41665 7.95539L6.77715 8.24161L6.63949 7.77842L6.99999 7.49156H6.55432L6.41665 7.02772L6.27957 7.49156H5.8339ZM8.16724 7.49156L8.52774 7.77842L8.39007 8.24161L8.74999 7.95539L9.11049 8.24161L8.97282 7.77842L9.33332 7.49156H8.88765L8.74999 7.02772L8.6129 7.49156H8.16724ZM1.16724 10.0471L1.52774 10.334L1.39007 10.7972L1.74999 10.5109L2.11049 10.7972L1.97282 10.334L2.33332 10.0471H1.88765L1.74999 9.58328L1.6129 10.0471H1.16724ZM3.7234 10.7972L4.08332 10.5109L4.44382 10.7972L4.30615 10.334L4.66665 10.0471H4.22099L4.08332 9.58328L3.94624 10.0471H3.50057L3.86107 10.334L3.7234 10.7972ZM5.8339 10.0471L6.1944 10.334L6.05674 10.7972L6.41665 10.5109L6.77715 10.7972L6.63949 10.334L6.99999 10.0471H6.55432L6.41665 9.58328L6.27957 10.0471H5.8339ZM8.16724 10.0471L8.52774 10.334L8.39007 10.7972L8.74999 10.5109L9.11049 10.7972L8.97282 10.334L9.33332 10.0471H8.88765L8.74999 9.58328L8.6129 10.0471H8.16724Z" fill="white"/>
</g>
<defs>
<clipPath id="clip0_10627_2066">
<rect width="21" height="23" fill="white"/>
</clipPath>
</defs>
</svg>
