<svg width="20" height="24" viewBox="0 0 20 24" fill="none" xmlns="http://www.w3.org/2000/svg">
<path d="M1.49785 4.1377C0.670586 4.1377 0 4.9424 0 5.93512V18.0644C0 19.0571 0.670586 19.8619 1.49785 19.8619H6.66668V4.1377H1.49785Z" fill="#82AFFF"/>
<path d="M13.3336 4.13794H6.66681V19.8622H13.3336V4.13794Z" fill="#F5F5F5"/>
<path d="M18.5021 4.1377H13.3333V19.8618H18.5021C19.3294 19.8618 20 19.0571 20 18.0644V5.93512C20 4.9424 19.3294 4.1377 18.5021 4.1377Z" fill="#82AFFF"/>
<path d="M9.91301 9.94263L9.71527 10.0613L9.89718 10.1514L9.91301 9.94263Z" fill="#FFC855"/>
<path d="M9.99998 14.3272C8.90096 14.3272 8.0069 13.2543 8.0069 11.9355C8.0069 11.1162 8.35053 10.363 8.92608 9.92041L8.97725 10.0163C8.42904 10.4379 8.10178 11.1553 8.10178 11.9355C8.10178 13.1915 8.95334 14.2134 9.99998 14.2134V14.3273V14.3272Z" fill="#73AF00"/>
<path d="M8.85925 14.4764C8.93519 14.495 9.05234 14.471 9.17265 14.4037C9.293 14.3364 9.38367 14.2443 9.42066 14.1626C9.34472 14.144 9.22757 14.168 9.10726 14.2353C8.98699 14.3026 8.89628 14.3947 8.85925 14.4764Z" fill="#73AF00"/>
<path d="M9.42073 14.1627C9.4362 14.0716 9.41616 13.931 9.36014 13.7866C9.30405 13.6422 9.22725 13.5334 9.15917 13.489C9.1437 13.5801 9.1637 13.7207 9.21975 13.8651C9.27581 14.0094 9.3526 14.1183 9.42073 14.1627Z" fill="#73AF00"/>
<path d="M8.46222 14.184C8.53507 14.2158 8.6539 14.2126 8.78113 14.1673C8.90839 14.1219 9.00937 14.0467 9.05597 13.9725C8.98312 13.9407 8.86429 13.9439 8.73706 13.9891C8.60984 14.0345 8.50882 14.1097 8.46222 14.184Z" fill="#73AF00"/>
<path d="M9.056 13.9723C9.08249 13.8848 9.07983 13.7423 9.0421 13.5896C9.00428 13.4369 8.94163 13.3157 8.87971 13.2598C8.85323 13.3472 8.85589 13.4898 8.89362 13.6425C8.93139 13.7952 8.99409 13.9163 9.056 13.9723Z" fill="#73AF00"/>
<path d="M8.09491 13.7852C8.16182 13.8321 8.27917 13.8546 8.41116 13.8375C8.54315 13.8203 8.65374 13.7681 8.71069 13.705C8.64378 13.6581 8.52643 13.6355 8.39444 13.6527C8.26245 13.6699 8.15186 13.7221 8.09491 13.7852Z" fill="#73AF00"/>
<path d="M8.71074 13.705C8.74984 13.6247 8.76863 13.4839 8.75434 13.3255C8.74004 13.1671 8.69648 13.0344 8.64395 12.9661C8.60484 13.0464 8.58606 13.1872 8.60035 13.3456C8.61469 13.504 8.6582 13.6367 8.71074 13.705Z" fill="#73AF00"/>
<path d="M7.79132 13.2344C7.85023 13.2948 7.96241 13.3419 8.09484 13.3531C8.22726 13.3642 8.34386 13.3363 8.40917 13.2864C8.35027 13.2259 8.23808 13.1788 8.10566 13.1677C7.97324 13.1566 7.85667 13.1844 7.79132 13.2344Z" fill="#73AF00"/>
<path d="M8.40918 13.2863C8.45954 13.2157 8.49879 13.081 8.50805 12.9221C8.51731 12.7632 8.49407 12.6233 8.45247 12.5449C8.40211 12.6156 8.36286 12.7502 8.3536 12.9091C8.3443 13.0681 8.36754 13.2079 8.40918 13.2863Z" fill="#73AF00"/>
<path d="M7.61359 12.6277C7.66062 12.7016 7.76198 12.776 7.88952 12.8203C8.01702 12.8647 8.13585 12.8668 8.20855 12.8344C8.16152 12.7605 8.06015 12.6861 7.93261 12.6418C7.80507 12.5975 7.68624 12.5954 7.61359 12.6277Z" fill="#73AF00"/>
<path d="M8.20851 12.8346C8.27011 12.7781 8.33211 12.6565 8.36902 12.5034C8.40597 12.3504 8.40773 12.2078 8.38078 12.1206C8.31918 12.177 8.25718 12.2987 8.22027 12.4517C8.18336 12.6048 8.1816 12.7474 8.20851 12.8346Z" fill="#73AF00"/>
<path d="M7.53833 11.9194C7.56794 12.0054 7.64997 12.1085 7.76372 12.1908C7.87747 12.2729 7.99181 12.3117 8.06899 12.3028C8.03939 12.2169 7.95735 12.1137 7.8436 12.0315C7.72985 11.9493 7.61548 11.9106 7.53833 11.9194Z" fill="#73AF00"/>
<path d="M8.06903 12.3028C8.14067 12.2673 8.2266 12.1688 8.29512 12.0323C8.3636 11.8958 8.3959 11.7586 8.38852 11.666C8.31692 11.7015 8.23094 11.8 8.16242 11.9365C8.09399 12.073 8.06164 12.2102 8.06903 12.3028Z" fill="#73AF00"/>
<path d="M7.60962 11.2507C7.62353 11.3422 7.68575 11.4637 7.78259 11.5727C7.87942 11.6817 7.98454 11.7483 8.06145 11.7591C8.04755 11.6676 7.98532 11.5461 7.88849 11.4372C7.79165 11.3282 7.68661 11.2615 7.60962 11.2507Z" fill="#73AF00"/>
<path d="M8.06152 11.759C8.13777 11.7423 8.23902 11.6676 8.32984 11.5514C8.42063 11.4352 8.47617 11.3091 8.4852 11.2168C8.40895 11.2335 8.3077 11.3082 8.21688 11.4244C8.12609 11.5405 8.07051 11.6666 8.06152 11.759Z" fill="#73AF00"/>
<path d="M7.88962 10.5271C7.87368 10.6181 7.89294 10.7588 7.94825 10.9036C8.00356 11.0485 8.07981 11.1579 8.14767 11.2028C8.1636 11.1118 8.14435 10.9711 8.08903 10.8263C8.03372 10.6814 7.95747 10.572 7.88962 10.5271Z" fill="#73AF00"/>
<path d="M8.14764 11.2029C8.22346 11.222 8.34073 11.1989 8.46143 11.1325C8.58214 11.0661 8.67327 10.9746 8.71073 10.8932C8.63491 10.8741 8.51764 10.8972 8.39694 10.9636C8.27624 11.0299 8.18507 11.1214 8.14764 11.2029Z" fill="#73AF00"/>
<path d="M8.22445 9.99121C8.1887 10.0737 8.17574 10.2155 8.19656 10.3728C8.21738 10.5302 8.26628 10.6602 8.32159 10.7253C8.35734 10.6428 8.37031 10.501 8.34948 10.3437C8.32866 10.1863 8.27972 10.0564 8.22445 9.99121Z" fill="#73AF00"/>
<path d="M8.32159 10.7252C8.39034 10.7681 8.50851 10.7837 8.6396 10.7587C8.77074 10.7337 8.87906 10.675 8.93331 10.6087C8.86456 10.5658 8.7464 10.5502 8.61531 10.5752C8.48417 10.6002 8.37585 10.6589 8.32159 10.7252Z" fill="#73AF00"/>
<path d="M8.55276 9.61816C8.50729 9.69349 8.47706 9.83135 8.47831 9.99068C8.4796 10.15 8.51206 10.2872 8.55874 10.3614C8.60421 10.286 8.63444 10.1482 8.63315 9.98885C8.6319 9.82957 8.59948 9.69232 8.55276 9.61816Z" fill="#73AF00"/>
<path d="M8.55878 10.3615C8.62155 10.416 8.73643 10.4523 8.86921 10.4508C9.00198 10.4492 9.11628 10.4103 9.17811 10.3543C9.11534 10.2997 9.00046 10.2634 8.86768 10.2649C8.73495 10.2665 8.62065 10.3054 8.55878 10.3615Z" fill="#73AF00"/>
<path d="M8.71808 10.1659C8.79531 10.1734 8.90925 10.1328 9.02198 10.0486C9.13476 9.96455 9.21558 9.86002 9.24417 9.77358C9.16695 9.76608 9.053 9.80672 8.94027 9.89086C8.82753 9.97496 8.74671 10.0795 8.71808 10.1659Z" fill="#73AF00"/>
<path d="M10 14.3273V14.2134C11.0466 14.2134 11.8982 13.1915 11.8982 11.9355C11.8982 11.1553 11.5709 10.4378 11.0228 10.0163L11.0739 9.92041C11.6495 10.363 11.9931 11.1163 11.9931 11.9355C11.9931 13.2543 11.099 14.3273 10 14.3273Z" fill="#73AF00"/>
<path d="M11.1407 14.4764C11.0648 14.495 10.9476 14.471 10.8273 14.4037C10.7069 14.3364 10.6163 14.2443 10.5793 14.1626C10.6552 14.144 10.7724 14.168 10.8927 14.2353C11.013 14.3025 11.1037 14.3947 11.1407 14.4764Z" fill="#73AF00"/>
<path d="M10.5792 14.1627C10.5637 14.0716 10.5838 13.931 10.6398 13.7866C10.6959 13.6422 10.7727 13.5334 10.8408 13.489C10.8562 13.5801 10.8362 13.7207 10.7802 13.8651C10.7241 14.0094 10.6473 14.1183 10.5792 14.1627Z" fill="#73AF00"/>
<path d="M11.5377 14.184C11.4649 14.2158 11.346 14.2126 11.2188 14.1673C11.0915 14.1219 10.9906 14.0467 10.944 13.9725C11.0168 13.9407 11.1356 13.9439 11.2629 13.9891C11.3901 14.0345 11.4911 14.1097 11.5377 14.184Z" fill="#73AF00"/>
<path d="M10.9439 13.9723C10.9175 13.8848 10.9201 13.7423 10.9578 13.5896C10.9956 13.4369 11.0583 13.3157 11.1202 13.2598C11.1467 13.3472 11.144 13.4898 11.1063 13.6425C11.0686 13.7952 11.0059 13.9163 10.9439 13.9723Z" fill="#73AF00"/>
<path d="M11.905 13.7852C11.8381 13.8321 11.7208 13.8546 11.5888 13.8375C11.4568 13.8203 11.3462 13.7681 11.2892 13.705C11.3562 13.6581 11.4735 13.6355 11.6055 13.6527C11.7375 13.6699 11.8481 13.7221 11.905 13.7852Z" fill="#73AF00"/>
<path d="M11.2892 13.705C11.2501 13.6247 11.2313 13.4839 11.2456 13.3255C11.2599 13.1671 11.3035 13.0344 11.356 12.9661C11.3951 13.0464 11.4139 13.1872 11.3996 13.3456C11.3853 13.504 11.3417 13.6367 11.2892 13.705Z" fill="#73AF00"/>
<path d="M12.2087 13.2344C12.1498 13.2948 12.0375 13.3419 11.9052 13.3531C11.7727 13.3642 11.6561 13.3363 11.5908 13.2864C11.6497 13.2259 11.7619 13.1788 11.8943 13.1677C12.0268 13.1566 12.1433 13.1844 12.2087 13.2344Z" fill="#73AF00"/>
<path d="M11.5908 13.2863C11.5404 13.2157 11.5011 13.081 11.4919 12.9221C11.4826 12.7632 11.5059 12.6233 11.5475 12.5449C11.5978 12.6156 11.6371 12.7502 11.6463 12.9091C11.6556 13.0681 11.6324 13.2079 11.5908 13.2863Z" fill="#73AF00"/>
<path d="M12.3864 12.6277C12.3394 12.7016 12.238 12.776 12.1105 12.8203C11.983 12.8647 11.8641 12.8668 11.7914 12.8344C11.8385 12.7605 11.9398 12.6861 12.0674 12.6418C12.1949 12.5975 12.3137 12.5954 12.3864 12.6277Z" fill="#73AF00"/>
<path d="M11.7915 12.8346C11.7298 12.7781 11.6679 12.6565 11.6309 12.5034C11.594 12.3504 11.5922 12.2078 11.6192 12.1206C11.6808 12.177 11.7428 12.2987 11.7797 12.4517C11.8166 12.6048 11.8184 12.7474 11.7915 12.8346Z" fill="#73AF00"/>
<path d="M12.4616 11.9194C12.432 12.0054 12.35 12.1085 12.2362 12.1908C12.1225 12.2729 12.0082 12.3117 11.931 12.3028C11.9606 12.2169 12.0426 12.1137 12.1564 12.0315C12.2701 11.9493 12.3845 11.9106 12.4616 11.9194Z" fill="#73AF00"/>
<path d="M11.9309 12.3028C11.8593 12.2673 11.7734 12.1688 11.7048 12.0323C11.6364 11.8958 11.6041 11.7586 11.6114 11.666C11.683 11.7015 11.769 11.8 11.8375 11.9365C11.906 12.073 11.9383 12.2102 11.9309 12.3028Z" fill="#73AF00"/>
<path d="M12.3903 11.2507C12.3764 11.3422 12.3142 11.4637 12.2173 11.5727C12.1205 11.6817 12.0154 11.7483 11.9385 11.7591C11.9524 11.6676 12.0146 11.5461 12.1114 11.4372C12.2083 11.3282 12.3133 11.2615 12.3903 11.2507Z" fill="#73AF00"/>
<path d="M11.9384 11.759C11.8622 11.7423 11.7609 11.6676 11.6701 11.5514C11.5793 11.4352 11.5238 11.3091 11.5148 11.2168C11.591 11.2335 11.6923 11.3082 11.7831 11.4244C11.8739 11.5405 11.9295 11.6666 11.9384 11.759Z" fill="#73AF00"/>
<path d="M12.1104 10.5271C12.1263 10.6181 12.1071 10.7588 12.0517 10.9036C11.9964 11.0485 11.9202 11.1579 11.8523 11.2028C11.8364 11.1118 11.8556 10.9711 11.911 10.8263C11.9662 10.6814 12.0425 10.572 12.1104 10.5271Z" fill="#73AF00"/>
<path d="M11.8523 11.2029C11.7765 11.222 11.6592 11.1989 11.5385 11.1325C11.4178 11.0661 11.3267 10.9746 11.2892 10.8932C11.3651 10.8741 11.4823 10.8972 11.603 10.9636C11.7237 11.0299 11.8149 11.1214 11.8523 11.2029Z" fill="#73AF00"/>
<path d="M11.7755 9.99121C11.8113 10.0737 11.8242 10.2155 11.8034 10.3728C11.7826 10.5302 11.7337 10.6602 11.6784 10.7253C11.6426 10.6428 11.6297 10.501 11.6505 10.3437C11.6713 10.1864 11.7202 10.0564 11.7755 9.99121Z" fill="#73AF00"/>
<path d="M11.6783 10.7252C11.6096 10.7681 11.4914 10.7837 11.3603 10.7587C11.2292 10.7337 11.1208 10.675 11.0666 10.6087C11.1353 10.5658 11.2535 10.5502 11.3846 10.5752C11.5157 10.6002 11.6241 10.6589 11.6783 10.7252Z" fill="#73AF00"/>
<path d="M11.4472 9.61816C11.4926 9.69349 11.5229 9.83135 11.5216 9.99068C11.5203 10.15 11.4878 10.2872 11.4412 10.3614C11.3957 10.286 11.3654 10.1482 11.3667 9.98885C11.368 9.82957 11.4005 9.69232 11.4472 9.61816Z" fill="#73AF00"/>
<path d="M11.4412 10.3615C11.3784 10.416 11.2635 10.4523 11.1307 10.4508C10.998 10.4492 10.8837 10.4103 10.8218 10.3543C10.8846 10.2997 10.9995 10.2634 11.1323 10.2649C11.265 10.2665 11.3793 10.3054 11.4412 10.3615Z" fill="#73AF00"/>
<path d="M11.2819 10.1659C11.2047 10.1734 11.0907 10.1328 10.978 10.0486C10.8653 9.96451 10.7844 9.86002 10.7558 9.77358C10.833 9.76608 10.947 9.80672 11.0597 9.89086C11.1724 9.97496 11.2533 10.0795 11.2819 10.1659Z" fill="#73AF00"/>
<path d="M8.91194 13.7976L8.56647 14.2121L8.39612 13.8033L8.90721 13.1899L9.07756 13.3944L9.02835 13.5715C9.00467 13.6568 8.96483 13.7341 8.91194 13.7976Z" fill="#966446"/>
<path d="M10.7811 10.7368L8.90722 12.9855C8.86019 13.0419 8.86019 13.1335 8.90722 13.1899L8.99238 13.2921L9.33312 12.8832L10.696 11.0433L10.8663 10.8389L10.7811 10.7368Z" fill="#B9B9B9"/>
<path d="M9.36838 12.6366C9.3458 12.6637 9.33307 12.7005 9.33307 12.7388V12.8833L10.6959 11.0435L9.36838 12.6366Z" fill="#966446"/>
<path d="M10.8663 10.8391L10.7811 10.737L10.6959 10.8391L10.7811 10.9414L10.8663 11.0436L11.8033 9.71484L10.8663 10.8391Z" fill="#A0A0A0"/>
<path d="M11.183 13.7976L11.5284 14.2121L11.6988 13.8033L11.1877 13.1899L11.0173 13.3944L11.0666 13.5715C11.0902 13.6568 11.1301 13.7341 11.183 13.7976Z" fill="#966446"/>
<path d="M9.31377 10.7368L11.1877 12.9855C11.2347 13.0419 11.2347 13.1335 11.1877 13.1899L11.1025 13.2921L10.7618 12.8832L9.39893 11.0433L9.22858 10.8389L9.31377 10.7368Z" fill="#B9B9B9"/>
<path d="M10.7266 12.6366C10.7492 12.6637 10.7619 12.7005 10.7619 12.7388V12.8833L9.39905 11.0435L10.7266 12.6366Z" fill="#966446"/>
<path d="M9.22862 10.8391L9.31377 10.737L9.39897 10.8391L9.31377 10.9414L9.22862 11.0436L8.29163 9.71484L9.22862 10.8391Z" fill="#A0A0A0"/>
<path d="M9.34827 13.7124L9.43291 13.8051C9.74174 13.3988 10.2822 12.6877 11.1389 11.7646C11.1389 11.7647 10.4292 12.2904 9.34827 13.7124Z" fill="#B9B9B9"/>
<path d="M9.10876 14.1295C9.07837 14.0962 9.07622 14.0396 9.10391 14.0032L9.28532 13.7645C9.31305 13.728 9.36016 13.7254 9.39055 13.7587C9.42094 13.792 9.42309 13.8485 9.3954 13.885L9.21399 14.1236C9.18626 14.1602 9.13915 14.1627 9.10876 14.1295Z" fill="#FFE15A"/>
<path d="M9.27951 13.6375L9.23037 13.6637C9.18666 13.6899 9.07165 13.7679 9.05185 13.8791C9.0424 13.9318 9.05572 13.9832 9.08982 14.0317C9.09306 14.0217 9.09748 14.0119 9.10392 14.0035L9.12677 13.9735C9.1113 13.9466 9.10314 13.9202 9.10779 13.8936C9.12021 13.8241 9.19755 13.762 9.24615 13.7312L9.46349 13.969L9.51755 13.8979L9.27951 13.6375Z" fill="#FFC855"/>
<path d="M10.7458 13.825L10.6612 13.9176C10.3523 13.5113 9.81192 12.8003 8.9552 11.8772C8.95516 11.8772 9.66493 12.4029 10.7458 13.825Z" fill="#B9B9B9"/>
<path d="M10.9853 14.242C11.0157 14.2087 11.0179 14.1522 10.9902 14.1157L10.8088 13.877C10.781 13.8406 10.7339 13.838 10.7035 13.8712C10.6732 13.9045 10.671 13.961 10.6987 13.9975L10.8801 14.2362C10.9078 14.2727 10.9549 14.2752 10.9853 14.242Z" fill="#FFE15A"/>
<path d="M10.8145 13.7498L10.8637 13.7761C10.9074 13.8022 11.0224 13.8802 11.0422 13.9914C11.0516 14.0441 11.0383 14.0955 11.0042 14.144C11.001 14.134 10.9966 14.1243 10.9901 14.1158L10.9673 14.0858C10.9827 14.0589 10.9909 14.0325 10.9862 14.0059C10.9738 13.9364 10.8965 13.8743 10.8479 13.8435L10.6305 14.0813L10.5765 14.0102L10.8145 13.7498Z" fill="#FFC855"/>
<path d="M10.0844 10.0633C10.0911 10.0435 10.0949 10.0221 10.0949 9.99947C10.0949 9.90511 10.0311 9.82861 9.9525 9.82861C9.87387 9.82861 9.81012 9.90511 9.81012 9.99947C9.81012 10.0557 9.83305 10.1051 9.86801 10.1363C9.81653 10.6325 10.2242 10.6704 10.3796 10.7398C10.6153 10.8451 10.9109 11.0579 10.8923 11.6531C10.8743 12.2316 10.5694 12.7898 10.5694 12.7898L10.8225 12.377C10.73 12.8467 10.5139 13.445 9.99996 14.1565C9.99996 14.1565 10.3513 13.744 10.6445 13.2121C10.4288 13.8212 10.1898 14.3843 10.1898 14.3843C10.1898 14.3843 10.6129 13.7246 10.955 12.5834C11.3697 11.1998 10.4973 10.3685 10.0844 10.0633Z" fill="#69B469"/>
<path d="M9.71559 12.1062H9.33594V12.334H9.71559V12.1062Z" fill="#F4E08F"/>
<path d="M9.33596 12.5618C9.44081 12.5618 9.52581 12.4598 9.52581 12.334C9.52581 12.2082 9.44081 12.1062 9.33596 12.1062C9.23111 12.1062 9.14612 12.2082 9.14612 12.334C9.14612 12.4598 9.23111 12.5618 9.33596 12.5618Z" fill="#ECD077"/>
<path d="M9.33596 11.0816C9.44081 11.0816 9.52581 10.9796 9.52581 10.8538C9.52581 10.728 9.44081 10.626 9.33596 10.626C9.23111 10.626 9.14612 10.728 9.14612 10.8538C9.14612 10.9796 9.23111 11.0816 9.33596 11.0816Z" fill="#ECD077"/>
<path d="M10.4745 11.0814C10.5793 11.0814 10.6643 10.9794 10.6643 10.8535C10.6643 10.7277 10.5793 10.6257 10.4745 10.6257H9.3356C9.44044 10.6257 9.52544 10.7277 9.52544 10.8535C9.52544 10.9794 9.44044 11.0814 9.3356 11.0814C9.23075 11.0814 9.14575 10.9794 9.14575 10.8535C9.14575 11.2359 9.41239 11.6982 9.49837 12.1064C9.49837 12.1064 9.5254 12.2084 9.5254 12.3342C9.5254 12.46 9.4404 12.562 9.33556 12.562H10.4745C10.5793 12.562 10.6643 12.46 10.6643 12.3342C10.6643 11.9518 10.3977 11.4895 10.3117 11.0814H10.4745Z" fill="#FCF0A8"/>
<path d="M9.52548 10.8538C9.52548 10.9796 9.44048 11.0816 9.33563 11.0816H10.4745C10.5794 11.0816 10.6644 10.9796 10.6644 10.8538H9.52548Z" fill="#F4E08F"/>
<path d="M9.52548 12.3342C9.52548 12.46 9.44048 12.562 9.33563 12.562H10.4745C10.5794 12.562 10.6644 12.46 10.6644 12.3342H9.52548Z" fill="#F4E08F"/>
</svg>
