<svg width="20" height="23" viewBox="0 0 20 23" fill="none" xmlns="http://www.w3.org/2000/svg">
<path d="M20 17.2499C20 17.9277 19.7659 18.5777 19.3491 19.0569C18.9324 19.5362 18.3671 19.8054 17.7778 19.8054H2.22222C1.63285 19.8054 1.06762 19.5362 0.650874 19.0569C0.234126 18.5777 0 17.9277 0 17.2499V5.74989C0 5.07212 0.234126 4.4221 0.650874 3.94284C1.06762 3.46358 1.63285 3.19434 2.22222 3.19434H17.7778C18.3671 3.19434 18.9324 3.46358 19.3491 3.94284C19.7659 4.4221 20 5.07212 20 5.74989V17.2499Z" fill="#265FB5"/>
<path d="M0 8.30566H20V14.6946H0V8.30566Z" fill="#EEEEEE"/>
<path d="M12.5317 11.4999C12.5367 11.8858 12.4749 12.269 12.3499 12.6272C12.2249 12.9854 12.0392 13.3115 11.8037 13.5864C11.5681 13.8613 11.2874 14.0796 10.9778 14.2287C10.6682 14.3777 10.3359 14.4544 10.0003 14.4544C9.66468 14.4544 9.33241 14.3777 9.02281 14.2287C8.71322 14.0796 8.43248 13.8613 8.19693 13.5864C7.96137 13.3115 7.7757 12.9854 7.65072 12.6272C7.52574 12.269 7.46393 11.8858 7.46891 11.4999C7.47876 10.7353 7.74979 10.0058 8.22344 9.46913C8.6971 8.93244 9.33535 8.63159 10.0003 8.63159C10.6652 8.63159 11.3035 8.93244 11.7771 9.46913C12.2508 10.0058 12.5218 10.7353 12.5317 11.4999Z" fill="#A9BF4C"/>
<path d="M9.99999 14.0554C11.2273 14.0554 12.2222 12.9113 12.2222 11.4999C12.2222 10.0885 11.2273 8.94434 9.99999 8.94434C8.77269 8.94434 7.77777 10.0885 7.77777 11.4999C7.77777 12.9113 8.77269 14.0554 9.99999 14.0554Z" fill="#EEEEEE"/>
<path d="M8.19891 12.8767L9.99225 9.30469L11.7856 12.8767H8.19891Z" fill="#265FB5"/>
<path d="M8.39777 12.7381L9.99221 9.56348L11.5861 12.7381H8.39777Z" fill="#55ACEE"/>
<path d="M8.39777 12.7383L8.78277 11.9722L11.1839 11.9377L11.5861 12.7383H8.39777Z" fill="#BBDDF5"/>
<path d="M8.70667 12.2385L9.30556 11.6794L9.56612 12.0187L9.79167 11.7389L9.98278 11.9586L10.165 11.7293L10.3822 11.9586L10.5817 11.7191L10.7639 11.9586L10.9372 11.7389L11.2239 12.1484L11.2761 12.2685C11.2761 12.2685 10.9722 12.3381 10.5556 12.2985C10.1389 12.2589 9.89556 12.3682 9.56612 12.4186C9.23612 12.4685 8.64612 12.3688 8.64612 12.3688L8.70667 12.2385Z" fill="#5C913B"/>
<path d="M9.29667 11.7996L9.69612 12.2985L9.49667 12.3183L9.27112 11.9395L9.29667 11.7996ZM9.77445 11.8392L10.0956 12.1688L9.94779 12.1989L9.79167 11.9491L9.77445 11.8392ZM10.1822 11.8194L10.46 12.119L10.3906 12.1688L10.165 11.889L10.1822 11.8194ZM10.5467 11.8194L10.4339 11.9395L10.4861 12.0091L10.5467 11.8194ZM10.8939 11.8296L10.7639 12.0187L10.8072 12.1088L10.9028 11.8992L10.8939 11.8296Z" fill="#E2F09F"/>
<path d="M10.0172 10.4968L10.0544 11.0904L10.3494 10.6029L10.1278 11.1332L10.5889 10.8782L10.165 11.2181L10.6817 11.2603L10.165 11.3025L10.5889 11.6424L10.1278 11.3874L10.3494 11.9177L10.0544 11.4302L10.0172 12.0238L9.98055 11.4302L9.68555 11.9177L9.90667 11.3874L9.44555 11.6424L9.87 11.3025L9.35333 11.2603L9.87 11.2181L9.44555 10.8782L9.90667 11.1332L9.68555 10.6029L9.98055 11.0904L10.0172 10.4968Z" fill="#BBDDF5"/>
<path d="M10 10.9907L9.89557 11.1108C9.89557 11.1108 9.92168 11.2904 9.91279 11.3204C9.90446 11.3504 10 11.4999 10 11.4999L10.13 11.3204L10.0956 11.0808L10 10.9907Z" fill="#DD2E44"/>
<path d="M10.0522 10.7813C10.4778 10.7813 10.7206 11.0209 10.7206 11.0209L10.5644 10.7015C10.5644 10.7015 10.3128 10.4817 10.0178 10.4817C9.72277 10.4817 9.39277 10.7513 9.39277 10.7513L9.245 11.0906C9.245 11.0906 9.62666 10.7813 10.0522 10.7813Z" fill="#226699"/>
<path d="M10.0522 10.7814C10.4778 10.7814 10.7206 11.0209 10.7206 11.0209L10.6078 10.7916C10.6078 10.7916 10.3039 10.582 10.0089 10.582C9.71389 10.582 9.34889 10.8516 9.34889 10.8516L9.24445 11.0912C9.245 11.0906 9.62667 10.7814 10.0522 10.7814Z" fill="#FFCC4D"/>
<path d="M10.0522 10.7813C10.4778 10.7813 10.7206 11.0208 10.7206 11.0208L10.6422 10.8713C10.6422 10.8713 10.4078 10.6816 10.0083 10.7014C9.71333 10.7014 9.305 10.9512 9.305 10.9512L9.24445 11.0911C9.245 11.0905 9.62667 10.7813 10.0522 10.7813Z" fill="#DD2E44"/>
<path d="M9.77053 13.8938H10.3239V14.504H9.77053V13.8938ZM9.6822 9.16287H9.28442L9.08553 8.60385L9.48331 8.55273L9.6822 9.16287ZM10.5889 9.41715L10.3239 9.31557L10.4566 8.57765L10.965 8.62876L10.5889 9.41715ZM8.20053 12.5458L7.42664 12.749L7.40442 12.1388L8.17831 12.0117L8.20053 12.5458ZM8.39997 13.1815L7.75831 13.4869L7.60331 13.0039L8.20053 12.7745L8.39997 13.1815ZM12.6683 12.6225L11.9605 12.3931V11.9612L12.7566 11.8334L12.6683 12.6225ZM12.3144 13.4613L11.6511 13.1055L11.8716 12.6474L12.6022 12.9017L12.3144 13.4613Z" fill="#EEEEEE"/>
</svg>
