<svg width="2270" height="1513" viewBox="0 0 2270 1513" fill="none" xmlns="http://www.w3.org/2000/svg">
<path d="M1135.63 1477.95L2245.03 837.572L2115.76 613.648L1135 1179.76L154.233 613.648L24.9688 837.572L1134.37 1477.95L1134.75 1478.45L1135 1478.33L1135.25 1478.45L1135.63 1477.95Z" fill="#9200AD"/>
<path d="M1624.81 665.845L1869.47 323.024L1650.16 166.555L1409.29 504.332C1492.01 541.883 1565.56 596.998 1624.81 665.845Z" fill="#9200AD"/>
<path d="M1156.82 443.309C1200.04 443.446 1243.15 447.667 1285.57 455.917V34.5469H1005.73V460.204C1055.31 448.97 1105.98 443.304 1156.82 443.309Z" fill="#9200AD"/>
<path d="M886.56 493.238L636.482 161.387L421.336 323.53L674.441 659.29C732.303 589.253 804.674 532.6 886.56 493.238Z" fill="#9200AD"/>
</svg>
