<svg width="22" height="22" viewBox="0 0 22 22" fill="none" xmlns="http://www.w3.org/2000/svg">
<g clip-path="url(#clip0_13941_13655)">
<path d="M3.66667 2.75H16.5L18.9814 5.23142C19.1533 5.40328 19.2499 5.6364 19.25 5.8795V18.3333C19.25 18.5764 19.1534 18.8096 18.9815 18.9815C18.8096 19.1534 18.5764 19.25 18.3333 19.25H3.66667C3.42355 19.25 3.19039 19.1534 3.01849 18.9815C2.84658 18.8096 2.75 18.5764 2.75 18.3333V3.66667C2.75 3.42355 2.84658 3.19039 3.01849 3.01849C3.19039 2.84658 3.42355 2.75 3.66667 2.75ZM6.41667 3.66667V8.25H14.6667V3.66667H6.41667ZM5.5 11V17.4167H16.5V11H5.5ZM11.9167 4.58333H13.75V7.33333H11.9167V4.58333Z" fill="white"/>
</g>
<defs>
<clipPath id="clip0_13941_13655">
<rect width="22" height="22" fill="white"/>
</clipPath>
</defs>
</svg>
