<svg width="125" height="16" viewBox="0 0 125 16" fill="none" xmlns="http://www.w3.org/2000/svg">
<g clip-path="url(#clip0_10627_2652)">
<path d="M38.6876 8.88168H38.8334C39.6459 8.88168 40.2917 8.20685 40.2917 7.35787V6.02997C40.2917 5.2463 40.2084 4.87624 39.9167 4.46263C39.5001 3.91841 38.7709 3.67896 38.0626 3.67896H31.7709H29.2292V5.63814V7.90208V8.88168V9.86127V12.2558V14.4109H31.7709H37.2917C38.2084 14.4109 39.2917 14.2803 39.8542 13.649C40.3751 13.0613 40.3959 12.6041 40.3959 11.1674V10.6885C40.4167 9.70888 39.6459 8.88168 38.6876 8.88168ZM31.7917 5.63814H37.1251C37.3959 5.63814 37.9584 5.74698 37.9584 6.20413V7.37964C37.9584 7.7497 37.4376 7.90208 37.2292 7.90208H31.7917V5.63814Z" fill="#EC1C2D"/>
<path d="M52.8749 14.4327H55.7916L49.8958 3.70068H47.4999L41.7083 14.4327H44.3124L45.5208 12.1034H51.6874L52.8749 14.4327ZM46.6041 10.0136L48.6249 6.13877L50.6041 10.0136H46.6041Z" fill="#EC1C2D"/>
<path d="M59.0833 3.70068H58.7082H58.1249H57.3333V14.4327H59.6666V9.03402L59.6041 7.37959L67.5832 14.4327H67.9999H69.0207H69.3749V3.70068H67.0416V9.09932L67.1041 10.7537L59.0833 3.70068Z" fill="#EC1C2D"/>
<path d="M82.5208 14.4327H74.5833C73.8749 14.4327 73.1041 14.2585 72.6874 13.7361C72.3333 13.3224 72.2708 12.6041 72.2708 12.0163V6.117C72.2708 5.44217 72.3541 4.72381 72.7708 4.28843C73.1874 3.85306 73.9374 3.70068 74.5833 3.70068H82.5208C83.2291 3.70068 83.9999 3.85306 84.4166 4.37551C84.7499 4.78911 84.8333 5.52925 84.8333 6.117V12.0163C84.8333 12.6258 84.7708 13.3224 84.4166 13.7361C83.9999 14.2585 83.2291 14.4327 82.5208 14.4327ZM74.8124 5.85578V12.2776H82.2916V5.85578H74.8124Z" fill="#EC1C2D"/>
<path d="M96.5417 14.4327H100.146L95.5417 10.4708H96.9583C98.0417 10.4708 98.9375 9.5565 98.9375 8.40276V5.74698C98.9375 4.61501 98.0625 3.67896 96.9583 3.67896H90.3542H87.8125V5.72521V8.381V10.4273V14.4327H90.3542V10.4708H92.375L96.5417 14.4327ZM90.3542 5.74698H95.9375C96.2083 5.74698 96.4167 5.96467 96.4167 6.24766V7.92385C96.4167 8.20685 96.2083 8.42453 95.9375 8.42453H90.3542V5.74698Z" fill="#EC1C2D"/>
<path d="M100.812 3.70068V5.83401H105.417V14.4327H107.958V5.83401H112.542V3.70068H107.958H105.417H100.812Z" fill="#EC1C2D"/>
<path d="M121.958 7.7932H117.146V5.76871H124.896V3.70068H117.146H114.604V5.76871V7.7932V9.86123V12.2558V14.4327H117.146H125V12.2558H117.146V9.86123H121.958V7.7932Z" fill="#EC1C2D"/>
<path d="M13.3333 0C7.39575 0 2.58325 1.63265 2.58325 3.65714C2.58325 5.3551 5.93742 6.77007 10.4999 7.18367L12.3749 1.15374L12.7083 7.29252C12.9166 7.29252 13.1249 7.29252 13.3541 7.29252C19.2916 7.29252 24.1041 5.65986 24.1041 3.63537C24.0833 1.65442 19.2708 0 13.3333 0Z" fill="#EC1C2D"/>
<path d="M10.4375 7.40137C4.64583 7.46667 0 9.38232 0 11.7551C0 13.7578 3.29167 15.434 7.79167 15.9565L10.4375 7.40137Z" fill="#EC1C2D"/>
<path d="M12.6875 7.46655L13.1458 15.9999C17.9167 15.5645 21.4583 13.823 21.4583 11.755C21.4792 9.62166 17.6875 7.83662 12.6875 7.46655Z" fill="#EC1C2D"/>
<path d="M31.4685 9.77783H37.4615C38.0138 9.77783 38.4615 10.2255 38.4615 10.7778V11.4445C38.4615 11.9968 38.0138 12.4445 37.4615 12.4445H31.4685V9.77783Z" fill="white"/>
<path d="M31.4685 5.33325H37.4615C38.0138 5.33325 38.4615 5.78097 38.4615 6.33325V6.99992C38.4615 7.5522 38.0138 7.99992 37.4615 7.99992H31.4685V5.33325Z" fill="white"/>
</g>
<defs>
<clipPath id="clip0_10627_2652">
<rect width="125" height="16" fill="white"/>
</clipPath>
</defs>
</svg>
