<svg width="20" height="24" viewBox="0 0 20 24" fill="none" xmlns="http://www.w3.org/2000/svg">
<path d="M20 17.9999C20 18.7072 19.7659 19.3854 19.3491 19.8855C18.9324 20.3856 18.3671 20.6666 17.7778 20.6666H2.22222C1.63285 20.6666 1.06762 20.3856 0.650874 19.8855C0.234126 19.3854 0 18.7072 0 17.9999V5.99992C0 5.29267 0.234126 4.6144 0.650874 4.1143C1.06762 3.6142 1.63285 3.33325 2.22222 3.33325H17.7778C18.3671 3.33325 18.9324 3.6142 19.3491 4.1143C19.7659 4.6144 20 5.29267 20 5.99992V17.9999Z" fill="#002B7F"/>
<path d="M0 6H20V18H0V6Z" fill="#EEEEEE"/>
<path d="M0 8.66675H20V15.3334H0V8.66675Z" fill="#CE1225"/>
<path d="M4.72222 14.6666C5.7961 14.6666 6.66666 13.4727 6.66666 11.9999C6.66666 10.5272 5.7961 9.33325 4.72222 9.33325C3.64833 9.33325 2.77777 10.5272 2.77777 11.9999C2.77777 13.4727 3.64833 14.6666 4.72222 14.6666Z" fill="#EEEEEE"/>
<path d="M5.705 13C5.705 13.552 5.265 14.386 4.72222 14.386C4.17944 14.386 3.73944 13.552 3.73944 13C3.73944 12.4473 4.17944 12 4.72222 12C5.265 12 5.705 12.4473 5.705 13Z" fill="#F4CB58"/>
<path d="M4.7222 14C5.48926 14 6.11109 13.5523 6.11109 13C6.11109 12.4477 5.48926 12 4.7222 12C3.95514 12 3.33331 12.4477 3.33331 13C3.33331 13.5523 3.95514 14 4.7222 14Z" fill="#DCA841"/>
<path d="M4.72225 11.3333C5.18249 11.3333 5.55558 11.0349 5.55558 10.6667C5.55558 10.2985 5.18249 10 4.72225 10C4.26201 10 3.88892 10.2985 3.88892 10.6667C3.88892 11.0349 4.26201 11.3333 4.72225 11.3333Z" fill="#89C5E4"/>
<path d="M4.72225 14.0001C5.18249 14.0001 5.55558 13.2539 5.55558 12.3334C5.55558 11.4129 5.18249 10.6667 4.72225 10.6667C4.26201 10.6667 3.88892 11.4129 3.88892 12.3334C3.88892 13.2539 4.26201 14.0001 4.72225 14.0001Z" fill="#088930"/>
<path d="M4.72225 11.3334C5.18249 11.3334 5.55558 11.1842 5.55558 11.0001C5.55558 10.816 5.18249 10.6667 4.72225 10.6667C4.26201 10.6667 3.88892 10.816 3.88892 11.0001C3.88892 11.1842 4.26201 11.3334 4.72225 11.3334Z" fill="#DCA841"/>
<path d="M5.55558 11.9999C5.55558 12.7359 5.1828 13.3332 4.72225 13.3332C4.26169 13.3332 3.88892 12.7359 3.88892 11.9999C3.88892 11.2639 4.26169 11.0012 4.72225 11.0012C5.1828 11.0012 5.55558 11.2639 5.55558 11.9999Z" fill="#89C5E4"/>
<path d="M4.72225 12.6667C5.18249 12.6667 5.55558 12.5174 5.55558 12.3333C5.55558 12.1492 5.18249 12 4.72225 12C4.26201 12 3.88892 12.1492 3.88892 12.3333C3.88892 12.5174 4.26201 12.6667 4.72225 12.6667Z" fill="#DCA841"/>
</svg>
