<svg width="20" height="24" viewBox="0 0 20 24" fill="none" xmlns="http://www.w3.org/2000/svg">
<path d="M0 18.0648C0 19.0574 0.670586 19.8622 1.49785 19.8622H18.5021C19.3294 19.8622 20 19.0575 20 18.0648V15.9312H0V18.0648Z" fill="#FF4B55"/>
<path d="M18.5021 4.13794H1.49785C0.670586 4.13794 0 4.94264 0 5.93536V12H20V5.93536C20 4.94264 19.3294 4.13794 18.5021 4.13794Z" fill="#FFE15A"/>
<path d="M20 12H0V15.9309H20V12Z" fill="#41479B"/>
<path d="M9.64014 12.2323L12.1589 9.6416V13.391C12.1589 14.0229 11.732 14.5351 11.2054 14.5351C10.9699 14.5351 10.7427 14.4305 10.5676 14.2414L9.64014 13.2398V12.2323Z" fill="#FFE15A"/>
<path d="M10.9688 13.7064L10.2399 12.9192V11.6153L11.5592 10.2583V11.2062V13.3909C11.5592 13.625 11.4005 13.8154 11.2055 13.8154C11.1179 13.8154 11.0339 13.7766 10.9688 13.7064Z" fill="#FF4B55"/>
<path d="M10.5997 11.2454V12.7275L11.1994 13.3772V11.1973V10.6287L11.5592 10.2585V11.2064V13.3911C11.5592 13.6252 11.4005 13.8156 11.2055 13.8156C11.1179 13.8156 11.0339 13.7769 10.9688 13.7066L10.2399 12.9194V11.6156L10.5997 11.2454Z" fill="#41479B"/>
<path d="M10.3598 12.2323L7.84106 9.6416V13.391C7.84106 14.0229 8.26798 14.5351 8.7945 14.5351C9.03005 14.5351 9.25728 14.4305 9.43235 14.2414L10.3598 13.2398V12.2323Z" fill="#FFE15A"/>
<path d="M9.03123 13.7064L9.76013 12.9192V11.6153L8.4408 10.2583V11.2062V13.3909C8.4408 13.625 8.59951 13.8154 8.79455 13.8154C8.88208 13.8154 8.96615 13.7766 9.03123 13.7064Z" fill="#FF4B55"/>
<path d="M9.40027 11.2452V12.7272L8.80058 13.377V11.1971V10.6284L8.44073 10.2583V11.2062V13.3909C8.44073 13.625 8.59945 13.8154 8.79448 13.8154C8.88202 13.8154 8.96609 13.7767 9.03116 13.7064L9.76007 12.9192V11.6153L9.40027 11.2452Z" fill="#41479B"/>
<path d="M12.2443 9.6543H12.0718V10.8941H12.2443V9.6543Z" fill="#41479B"/>
<path d="M7.92669 9.6543H7.75427V10.8941H7.92669V9.6543Z" fill="#41479B"/>
<path d="M9.64018 9.06577C9.64018 9.06577 9.88007 7.69843 9.0405 7.87838C8.20093 8.05829 8.20093 8.3461 7.24139 8.92187C7.24139 8.92187 8.32089 9.20973 8.80061 9.06582C8.80061 9.06582 9.16046 9.64149 9.52026 9.78545H9.8801L9.64018 9.06577Z" fill="#5A4646"/>
<path d="M10.3599 9.06577C10.3599 9.06577 10.12 7.69843 10.9595 7.87838C11.7991 8.05829 11.7991 8.3461 12.7586 8.92187C12.7586 8.92187 11.6792 9.20973 11.1994 9.06582C11.1994 9.06582 10.8396 9.64149 10.4798 9.78545H10.1199L10.3599 9.06577Z" fill="#5A4646"/>
<path d="M10.3598 9.78547H9.6402V9.0605C9.6402 8.82495 9.7993 8.63403 9.99559 8.63403H10.0044C10.2007 8.63403 10.3598 8.82495 10.3598 9.0605V9.78547H10.3598Z" fill="#5A4646"/>
<path d="M10 9.35355C10.1325 9.35355 10.2399 9.22467 10.2399 9.06569C10.2399 8.90671 10.1325 8.77783 10 8.77783C9.86753 8.77783 9.76013 8.90671 9.76013 9.06569C9.76013 9.22467 9.86753 9.35355 10 9.35355Z" fill="#E6E1CD"/>
<path d="M9.48529 8.87994L9.93631 9.16897C9.97416 9.19325 10.0208 9.18491 10.051 9.14849C10.0891 9.10283 10.0891 9.02886 10.051 8.98316L9.7601 8.63403H9.69013C9.57701 8.63403 9.48529 8.7441 9.48529 8.87994Z" fill="#FFD0AF"/>
<path d="M9.64168 8.92185H9.2804L9.43848 8.69975C9.46817 8.65803 9.51157 8.63403 9.55731 8.63403H9.76012V8.77972C9.76012 8.85819 9.70707 8.92185 9.64168 8.92185Z" fill="#FFAF94"/>
<path d="M11.0229 9.78574C10.942 9.67053 10.9247 9.51776 10.9641 9.38539C11.0795 9.3612 11.2021 9.40746 11.283 9.52278C11.3521 9.62126 11.3722 9.74646 11.3527 9.86365C11.3766 9.91249 11.4059 9.97531 11.4382 10.0495C11.4398 10.0389 11.4394 10.0285 11.4419 10.0179C11.4702 9.89857 11.5491 9.8141 11.6425 9.78551C11.7094 9.86885 11.7395 9.99049 11.7112 10.1098C11.6869 10.2124 11.6242 10.2868 11.5479 10.3245C11.5781 10.4074 11.6079 10.4969 11.6357 10.5912C11.6373 10.5857 11.6374 10.5801 11.6393 10.5746C11.6784 10.4597 11.7645 10.3862 11.86 10.3701C11.9188 10.4618 11.9376 10.5867 11.8986 10.7015C11.8644 10.802 11.7935 10.8683 11.7125 10.8947C11.7541 11.0922 11.7818 11.3017 11.7818 11.5127H11.6618C11.6618 11.3288 11.6383 11.1447 11.6028 10.9685C11.5288 10.9972 11.4461 10.9911 11.3745 10.9385C11.2872 10.8743 11.2411 10.7614 11.2432 10.6468C11.3273 10.5924 11.4321 10.5904 11.5194 10.6547C11.5226 10.657 11.5247 10.6603 11.5277 10.6628C11.502 10.5742 11.4747 10.4901 11.4466 10.4113C11.3746 10.4521 11.2899 10.4584 11.2122 10.4146C11.1194 10.3624 11.0633 10.2562 11.0549 10.142C11.1332 10.0771 11.2368 10.0613 11.3292 10.113C11.2962 10.0368 11.2664 9.97306 11.2431 9.92538C11.1604 9.91395 11.0809 9.86829 11.0229 9.78574Z" fill="#8CB400"/>
<path d="M8.9771 9.78574C9.05799 9.67053 9.0753 9.51776 9.03585 9.38539C8.92046 9.3612 8.79792 9.40746 8.71702 9.52278C8.64788 9.62126 8.62784 9.74646 8.64733 9.86365C8.62335 9.91249 8.59405 9.97531 8.56182 10.0495C8.56022 10.0389 8.56057 10.0285 8.55807 10.0179C8.52979 9.89857 8.45092 9.8141 8.35749 9.78551C8.29057 9.86885 8.26049 9.99049 8.28878 10.1098C8.31307 10.2124 8.37577 10.2868 8.45206 10.3245C8.42194 10.4074 8.39214 10.4969 8.36428 10.5912C8.36268 10.5857 8.36256 10.5801 8.36069 10.5746C8.32163 10.4597 8.23546 10.3862 8.13999 10.3701C8.08116 10.4618 8.06241 10.5867 8.10147 10.7015C8.13565 10.802 8.20655 10.8683 8.28757 10.8947C8.24589 11.0922 8.21823 11.3017 8.21823 11.5127H8.33819C8.33819 11.3288 8.36171 11.1447 8.39721 10.9685C8.47124 10.9972 8.55393 10.9911 8.62549 10.9385C8.71288 10.8743 8.75893 10.7614 8.75678 10.6468C8.67264 10.5924 8.56792 10.5904 8.48057 10.6547C8.47741 10.657 8.4753 10.6603 8.47225 10.6628C8.49796 10.5742 8.5253 10.4901 8.55339 10.4113C8.62538 10.4521 8.7101 10.4584 8.78784 10.4146C8.88057 10.3624 8.93671 10.2562 8.9451 10.142C8.86674 10.0771 8.76319 10.0613 8.67077 10.113C8.70378 10.0368 8.73358 9.97306 8.75694 9.92538C8.83956 9.91395 8.91913 9.86829 8.9771 9.78574Z" fill="#8CB400"/>
<path d="M10 12.9518L7.48126 10.3611V14.1105C7.48126 14.7424 7.90818 15.2546 8.4347 15.2546C8.67025 15.2546 8.89747 15.15 9.07255 14.9609L10 13.9593V12.9518Z" fill="#FFE15A"/>
<path d="M8.67136 14.4261L9.40027 13.6389V12.3351L8.08093 10.978V11.9259V14.1106C8.08093 14.3447 8.23964 14.5351 8.43468 14.5351C8.52226 14.5351 8.60628 14.4964 8.67136 14.4261Z" fill="#FF4B55"/>
<path d="M9.04046 11.9649V13.447L8.44078 14.0968V11.9168V11.3482L8.08093 10.978V11.9259V14.1106C8.08093 14.3447 8.23964 14.5351 8.43468 14.5351C8.52222 14.5351 8.60628 14.4964 8.67136 14.4261L9.40027 13.6389V12.3351L9.04046 11.9649Z" fill="#41479B"/>
<path d="M10 12.9518L12.5188 10.3611V14.1105C12.5188 14.7424 12.0918 15.2546 11.5653 15.2546C11.3298 15.2546 11.1025 15.15 10.9275 14.9609L10 13.9593V12.9518Z" fill="#FFE15A"/>
<path d="M11.3286 14.4261L10.5997 13.6389V12.3351L11.9191 10.978V11.9259V14.1106C11.9191 14.3447 11.7604 14.5351 11.5653 14.5351C11.4778 14.5351 11.3937 14.4964 11.3286 14.4261Z" fill="#FF4B55"/>
<path d="M10.9595 11.9649V13.447L11.5592 14.0968V11.9168V11.3482L11.9191 10.978V11.9259V14.1106C11.9191 14.3447 11.7604 14.5351 11.5653 14.5351C11.4778 14.5351 11.3937 14.4964 11.3286 14.4261L10.5997 13.6389V12.3351L10.9595 11.9649Z" fill="#41479B"/>
<path d="M10 14.1033C10.6624 14.1033 11.1994 13.1366 11.1994 11.9442C11.1994 10.7518 10.6624 9.78516 10 9.78516C9.33759 9.78516 8.8006 10.7518 8.8006 11.9442C8.8006 13.1366 9.33759 14.1033 10 14.1033Z" fill="#69C3FF"/>
<path d="M8.92053 12.5202H11.0794L11.1994 11.9445L10.6528 12.0538C10.5431 12.0758 10.431 12.0383 10.3466 11.9515L9.72612 11.3133C9.67069 11.2563 9.60002 11.2249 9.52702 11.2249C9.44588 11.2249 9.36803 11.2635 9.31069 11.3324L8.92053 11.8006V12.5202Z" fill="#009B64"/>
<path d="M9.88621 11.8476L10.0922 11.6896L9.72606 11.313C9.67063 11.256 9.59996 11.2246 9.52696 11.2246C9.44582 11.2246 9.36797 11.2633 9.31063 11.3321L8.92047 11.8003V11.9443L9.52016 11.8003L9.62617 11.8639C9.70926 11.9138 9.80801 11.9075 9.88621 11.8476Z" fill="#F5F5F5"/>
<path d="M8.92053 12.52L9.04049 13.3836L9.64018 14.1032H10L10.4798 13.9593L10.9596 13.3836L11.0795 12.52H8.92053Z" fill="#5AA0E6"/>
<path d="M10 14.2471C9.2725 14.2471 8.68066 13.214 8.68066 11.9442C8.68066 10.6744 9.2725 9.64136 10 9.64136C10.7275 9.64136 11.3193 10.6744 11.3193 11.9442C11.3193 13.214 10.7275 14.2471 10 14.2471ZM10 9.92931C9.40484 9.92931 8.92051 10.8332 8.92051 11.9443C8.92051 13.0553 9.40477 13.9593 10 13.9593C10.5952 13.9593 11.0795 13.0554 11.0795 11.9443C11.0795 10.8332 10.5952 9.92931 10 9.92931Z" fill="#FFC88C"/>
<path d="M9.15386 14.0904C9.05332 13.9238 8.90363 13.8154 8.7341 13.8154C8.56457 13.8154 8.41488 13.9238 8.31433 14.0904C8.48582 14.1474 8.62613 14.3145 8.69257 14.5347C8.71933 14.6234 8.73414 14.7207 8.73414 14.823C8.7341 14.4669 8.91335 14.1703 9.15386 14.0904Z" fill="#E1E1E1"/>
<path d="M8.82936 14.5444C8.82936 14.5444 8.81995 14.7363 8.73799 14.8262L8.73456 14.8229C8.65256 14.7329 8.64319 14.541 8.64319 14.541L8.82936 14.5444Z" fill="#E1E1E1"/>
<path d="M11.5 14.607H8.50001C8.46728 14.607 8.4408 14.5752 8.4408 14.536V14.5342C8.4408 14.4949 8.46732 14.4631 8.50001 14.4631H11.5C11.5327 14.4631 11.5592 14.495 11.5592 14.5342V14.536C11.5592 14.5752 11.5327 14.607 11.5 14.607Z" fill="#966446"/>
<path d="M10.6026 14.8228H9.39729C9.26643 14.8228 9.16034 14.6955 9.16034 14.5385V14.5314C9.16034 14.3744 9.26643 14.2471 9.39729 14.2471H10.6026C10.7335 14.2471 10.8396 14.3744 10.8396 14.5314V14.5385C10.8396 14.6955 10.7335 14.8228 10.6026 14.8228Z" fill="#BE915A"/>
<path d="M8.92052 14.4631H8.50076C8.46767 14.4631 8.4408 14.4953 8.4408 14.5351C8.4408 14.5748 8.46763 14.607 8.50076 14.607H8.92052V14.4631Z" fill="#B9B9B9"/>
<path d="M9.99999 14.823V16.138L9.52026 15.9744L9.76011 14.823H9.99999Z" fill="#FF4B55"/>
<path d="M9.88001 14.823L9.64013 15.8305L9.1604 15.6866L9.52024 14.823H9.88001Z" fill="#41479B"/>
<path d="M9.40031 14.823L9.04047 15.3987L9.40031 15.5426L9.64015 14.823H9.40031Z" fill="#FFE15A"/>
<path d="M10 14.823V16.138L10.4797 15.9744L10.2399 14.823H10Z" fill="#FF4B55"/>
<path d="M10.1199 14.823L10.3598 15.8305L10.8395 15.6866L10.4797 14.823H10.1199Z" fill="#41479B"/>
<path d="M10.5997 14.823L10.9596 15.3987L10.5997 15.5426L10.3599 14.823H10.5997Z" fill="#FFE15A"/>
<path d="M7.5675 11.6008L7.39508 11.3923V10.3611H7.5675V11.6008Z" fill="#41479B"/>
<path d="M12.6034 11.3923L12.431 11.6008V10.3611H12.6034V11.3923Z" fill="#41479B"/>
</svg>
