<svg width="20" height="23" viewBox="0 0 20 23" fill="none" xmlns="http://www.w3.org/2000/svg">
<g clip-path="url(#clip0_10627_1951)">
<path d="M0 8.94434H20V14.0554H0V8.94434Z" fill="#EEEEEE"/>
<path d="M17.7778 3.19434H2.22222C1.63285 3.19434 1.06762 3.46358 0.650874 3.94284C0.234126 4.4221 0 5.07212 0 5.74989L0 8.94434H20V5.74989C20 5.07212 19.7659 4.4221 19.3491 3.94284C18.9324 3.46358 18.3671 3.19434 17.7778 3.19434ZM0 17.2499C0 17.9277 0.234126 18.5777 0.650874 19.0569C1.06762 19.5362 1.63285 19.8054 2.22222 19.8054H17.7778C18.3671 19.8054 18.9324 19.5362 19.3491 19.0569C19.7659 18.5777 20 17.9277 20 17.2499V14.0554H0V17.2499Z" fill="#0156A3"/>
<path d="M10.1472 11.3468L10.0089 10.8574L9.87054 11.3468H9.42277L9.78499 11.649L9.64665 12.139L10.0089 11.8361L10.3711 12.139L10.2328 11.649L10.595 11.3468H10.1472ZM13.1094 12.9312L12.9711 13.4206L13.3333 13.1184L13.6955 13.4206L13.5572 12.9312L13.9194 12.629H13.4717L13.3333 12.139L13.195 12.629H12.7472L13.1094 12.9312ZM13.4717 10.069L13.3333 9.57959L13.195 10.069H12.7472L13.1094 10.3712L12.9711 10.8612L13.3333 10.5584L13.6955 10.8612L13.5572 10.3712L13.9194 10.069H13.4717ZM6.41221 12.9312L6.27388 13.4206L6.6361 13.1184L6.99832 13.4206L6.85999 12.9312L7.22221 12.629H6.77443L6.6361 12.139L6.49777 12.629H6.04999L6.41221 12.9312ZM6.77443 10.069L6.6361 9.57959L6.49777 10.069H6.04999L6.41221 10.3712L6.27388 10.8612L6.6361 10.5584L6.99832 10.8612L6.85999 10.3712L7.22221 10.069H6.77443Z" fill="#2657A7"/>
</g>
<defs>
<clipPath id="clip0_10627_1951">
<rect width="20" height="23" fill="white"/>
</clipPath>
</defs>
</svg>
