<svg width="187" height="49" viewBox="0 0 187 49" fill="none" xmlns="http://www.w3.org/2000/svg">
<path d="M125.168 25.918H120.82V23.1758H125.168C125.84 23.1758 126.387 23.0664 126.809 22.8477C127.23 22.6211 127.539 22.3086 127.734 21.9102C127.93 21.5117 128.027 21.0625 128.027 20.5625C128.027 20.0547 127.93 19.582 127.734 19.1445C127.539 18.707 127.23 18.3555 126.809 18.0898C126.387 17.8242 125.84 17.6914 125.168 17.6914H122.039V32H118.523V14.9375H125.168C126.504 14.9375 127.648 15.1797 128.602 15.6641C129.562 16.1406 130.297 16.8008 130.805 17.6445C131.312 18.4883 131.566 19.4531 131.566 20.5391C131.566 21.6406 131.312 22.5938 130.805 23.3984C130.297 24.2031 129.562 24.8242 128.602 25.2617C127.648 25.6992 126.504 25.918 125.168 25.918ZM140.484 29.1406V23.4922C140.484 23.0859 140.418 22.7383 140.285 22.4492C140.152 22.1523 139.945 21.9219 139.664 21.7578C139.391 21.5938 139.035 21.5117 138.598 21.5117C138.223 21.5117 137.898 21.5781 137.625 21.7109C137.352 21.8359 137.141 22.0195 136.992 22.2617C136.844 22.4961 136.77 22.7734 136.77 23.0938H133.395C133.395 22.5547 133.52 22.043 133.77 21.5586C134.02 21.0742 134.383 20.6484 134.859 20.2812C135.336 19.9062 135.902 19.6133 136.559 19.4023C137.223 19.1914 137.965 19.0859 138.785 19.0859C139.77 19.0859 140.645 19.25 141.41 19.5781C142.176 19.9062 142.777 20.3984 143.215 21.0547C143.66 21.7109 143.883 22.5312 143.883 23.5156V28.9414C143.883 29.6367 143.926 30.207 144.012 30.6523C144.098 31.0898 144.223 31.4727 144.387 31.8008V32H140.977C140.812 31.6562 140.688 31.2266 140.602 30.7109C140.523 30.1875 140.484 29.6641 140.484 29.1406ZM140.93 24.2773L140.953 26.1875H139.066C138.621 26.1875 138.234 26.2383 137.906 26.3398C137.578 26.4414 137.309 26.5859 137.098 26.7734C136.887 26.9531 136.73 27.1641 136.629 27.4062C136.535 27.6484 136.488 27.9141 136.488 28.2031C136.488 28.4922 136.555 28.7539 136.688 28.9883C136.82 29.2148 137.012 29.3945 137.262 29.5273C137.512 29.6523 137.805 29.7148 138.141 29.7148C138.648 29.7148 139.09 29.6133 139.465 29.4102C139.84 29.207 140.129 28.957 140.332 28.6602C140.543 28.3633 140.652 28.082 140.66 27.8164L141.551 29.2461C141.426 29.5664 141.254 29.8984 141.035 30.2422C140.824 30.5859 140.555 30.9102 140.227 31.2148C139.898 31.5117 139.504 31.7578 139.043 31.9531C138.582 32.1406 138.035 32.2344 137.402 32.2344C136.598 32.2344 135.867 32.0742 135.211 31.7539C134.562 31.4258 134.047 30.9766 133.664 30.4062C133.289 29.8281 133.102 29.1719 133.102 28.4375C133.102 27.7734 133.227 27.1836 133.477 26.668C133.727 26.1523 134.094 25.7188 134.578 25.3672C135.07 25.0078 135.684 24.7383 136.418 24.5586C137.152 24.3711 138.004 24.2773 138.973 24.2773H140.93ZM154.512 19.3203H157.57V31.5781C157.57 32.7344 157.312 33.7148 156.797 34.5195C156.289 35.332 155.578 35.9453 154.664 36.3594C153.75 36.7812 152.688 36.9922 151.477 36.9922C150.945 36.9922 150.383 36.9219 149.789 36.7812C149.203 36.6406 148.641 36.4219 148.102 36.125C147.57 35.8281 147.125 35.4531 146.766 35L148.254 33.0078C148.645 33.4609 149.098 33.8125 149.613 34.0625C150.129 34.3203 150.699 34.4492 151.324 34.4492C151.934 34.4492 152.449 34.3359 152.871 34.1094C153.293 33.8906 153.617 33.5664 153.844 33.1367C154.07 32.7148 154.184 32.2031 154.184 31.6016V22.25L154.512 19.3203ZM145.98 25.8125V25.5664C145.98 24.5977 146.098 23.7188 146.332 22.9297C146.574 22.1328 146.914 21.4492 147.352 20.8789C147.797 20.3086 148.336 19.8672 148.969 19.5547C149.602 19.2422 150.316 19.0859 151.113 19.0859C151.957 19.0859 152.664 19.2422 153.234 19.5547C153.805 19.8672 154.273 20.3125 154.641 20.8906C155.008 21.4609 155.293 22.1367 155.496 22.918C155.707 23.6914 155.871 24.5391 155.988 25.4609V26C155.871 26.8828 155.695 27.7031 155.461 28.4609C155.227 29.2188 154.918 29.8828 154.535 30.4531C154.152 31.0156 153.676 31.4531 153.105 31.7656C152.543 32.0781 151.871 32.2344 151.09 32.2344C150.309 32.2344 149.602 32.0742 148.969 31.7539C148.344 31.4336 147.809 30.9844 147.363 30.4062C146.918 29.8281 146.574 29.1484 146.332 28.3672C146.098 27.5859 145.98 26.7344 145.98 25.8125ZM149.355 25.5664V25.8125C149.355 26.3359 149.406 26.8242 149.508 27.2773C149.609 27.7305 149.766 28.1328 149.977 28.4844C150.195 28.8281 150.465 29.0977 150.785 29.293C151.113 29.4805 151.5 29.5742 151.945 29.5742C152.562 29.5742 153.066 29.4453 153.457 29.1875C153.848 28.9219 154.141 28.5586 154.336 28.0977C154.531 27.6367 154.645 27.1055 154.676 26.5039V24.9688C154.66 24.4766 154.594 24.0352 154.477 23.6445C154.359 23.2461 154.195 22.9062 153.984 22.625C153.773 22.3438 153.5 22.125 153.164 21.9688C152.828 21.8125 152.43 21.7344 151.969 21.7344C151.523 21.7344 151.137 21.8359 150.809 22.0391C150.488 22.2344 150.219 22.5039 150 22.8477C149.789 23.1914 149.629 23.5977 149.52 24.0664C149.41 24.5273 149.355 25.0273 149.355 25.5664ZM159.656 25.7891V25.543C159.656 24.6133 159.789 23.7578 160.055 22.9766C160.32 22.1875 160.707 21.5039 161.215 20.9258C161.723 20.3477 162.348 19.8984 163.09 19.5781C163.832 19.25 164.684 19.0859 165.645 19.0859C166.605 19.0859 167.461 19.25 168.211 19.5781C168.961 19.8984 169.59 20.3477 170.098 20.9258C170.613 21.5039 171.004 22.1875 171.27 22.9766C171.535 23.7578 171.668 24.6133 171.668 25.543V25.7891C171.668 26.7109 171.535 27.5664 171.27 28.3555C171.004 29.1367 170.613 29.8203 170.098 30.4062C169.59 30.9844 168.965 31.4336 168.223 31.7539C167.48 32.0742 166.629 32.2344 165.668 32.2344C164.707 32.2344 163.852 32.0742 163.102 31.7539C162.359 31.4336 161.73 30.9844 161.215 30.4062C160.707 29.8203 160.32 29.1367 160.055 28.3555C159.789 27.5664 159.656 26.7109 159.656 25.7891ZM163.031 25.543V25.7891C163.031 26.3203 163.078 26.8164 163.172 27.2773C163.266 27.7383 163.414 28.1445 163.617 28.4961C163.828 28.8398 164.102 29.1094 164.438 29.3047C164.773 29.5 165.184 29.5977 165.668 29.5977C166.137 29.5977 166.539 29.5 166.875 29.3047C167.211 29.1094 167.48 28.8398 167.684 28.4961C167.887 28.1445 168.035 27.7383 168.129 27.2773C168.23 26.8164 168.281 26.3203 168.281 25.7891V25.543C168.281 25.0273 168.23 24.543 168.129 24.0898C168.035 23.6289 167.883 23.2227 167.672 22.8711C167.469 22.5117 167.199 22.2305 166.863 22.0273C166.527 21.8242 166.121 21.7227 165.645 21.7227C165.168 21.7227 164.762 21.8242 164.426 22.0273C164.098 22.2305 163.828 22.5117 163.617 22.8711C163.414 23.2227 163.266 23.6289 163.172 24.0898C163.078 24.543 163.031 25.0273 163.031 25.543ZM180.598 28.4961C180.598 28.2539 180.527 28.0352 180.387 27.8398C180.246 27.6445 179.984 27.4648 179.602 27.3008C179.227 27.1289 178.684 26.9727 177.973 26.832C177.332 26.6914 176.734 26.5156 176.18 26.3047C175.633 26.0859 175.156 25.8242 174.75 25.5195C174.352 25.2148 174.039 24.8555 173.812 24.4414C173.586 24.0195 173.473 23.5391 173.473 23C173.473 22.4688 173.586 21.9688 173.812 21.5C174.047 21.0312 174.379 20.6172 174.809 20.2578C175.246 19.8906 175.777 19.6055 176.402 19.4023C177.035 19.1914 177.746 19.0859 178.535 19.0859C179.637 19.0859 180.582 19.2617 181.371 19.6133C182.168 19.9648 182.777 20.4492 183.199 21.0664C183.629 21.6758 183.844 22.3711 183.844 23.1523H180.469C180.469 22.8242 180.398 22.5312 180.258 22.2734C180.125 22.0078 179.914 21.8008 179.625 21.6523C179.344 21.4961 178.977 21.418 178.523 21.418C178.148 21.418 177.824 21.4844 177.551 21.6172C177.277 21.7422 177.066 21.9141 176.918 22.1328C176.777 22.3438 176.707 22.5781 176.707 22.8359C176.707 23.0312 176.746 23.207 176.824 23.3633C176.91 23.5117 177.047 23.6484 177.234 23.7734C177.422 23.8984 177.664 24.0156 177.961 24.125C178.266 24.2266 178.641 24.3203 179.086 24.4062C180 24.5938 180.816 24.8398 181.535 25.1445C182.254 25.4414 182.824 25.8477 183.246 26.3633C183.668 26.8711 183.879 27.5391 183.879 28.3672C183.879 28.9297 183.754 29.4453 183.504 29.9141C183.254 30.3828 182.895 30.793 182.426 31.1445C181.957 31.4883 181.395 31.7578 180.738 31.9531C180.09 32.1406 179.359 32.2344 178.547 32.2344C177.367 32.2344 176.367 32.0234 175.547 31.6016C174.734 31.1797 174.117 30.6445 173.695 29.9961C173.281 29.3398 173.074 28.668 173.074 27.9805H176.273C176.289 28.4414 176.406 28.8125 176.625 29.0938C176.852 29.375 177.137 29.5781 177.48 29.7031C177.832 29.8281 178.211 29.8906 178.617 29.8906C179.055 29.8906 179.418 29.832 179.707 29.7148C179.996 29.5898 180.215 29.4258 180.363 29.2227C180.52 29.0117 180.598 28.7695 180.598 28.4961Z" fill="#0055A2"/>
<path d="M81.0682 44.9281C81.0612 45.3733 81.1453 45.815 81.3159 46.2264C81.4877 46.6377 81.7424 47.0081 82.0638 47.3166C82.3851 47.6239 82.7684 47.8623 83.1868 48.0154C83.6051 48.1673 84.0503 48.2328 84.4955 48.2047C86.0649 48.1112 87.5735 47.5679 88.8414 46.6389L89.456 48.0622H91.5957V39.1251C91.5957 36.178 89.8183 35.1754 87.3854 35.2011C85.3907 35.1497 83.4018 35.4138 81.49 35.984V37.7696C82.9893 37.6772 85.7015 37.509 87.0734 37.509C88.194 37.509 88.8589 37.821 88.8589 39.1929V40.2878H84.5809C82.1304 40.2878 81.0857 41.787 81.0857 43.6567L81.0682 44.9281ZM83.8225 44.5904V43.7479C83.8002 43.5796 83.8131 43.4078 83.861 43.2442C83.9089 43.0806 83.9907 42.9299 84.1017 42.8002C84.2127 42.6705 84.3483 42.5665 84.5026 42.4928C84.6556 42.4192 84.8227 42.3795 84.9933 42.3748L88.8426 42.0885V44.8334C87.6647 45.4119 86.3921 45.7741 85.0868 45.9027C84.3962 45.9027 83.8236 45.6923 83.8236 44.6231V44.5904H83.8225ZM68.47 48.061H71.2664V38.7465C72.3181 37.967 73.5953 37.551 74.9041 37.5592C75.8716 37.5592 76.588 38.1236 76.588 39.4791V48.061H79.3422V39.5049C79.3422 37.2227 78.3233 35.2268 75.5187 35.2268C73.5988 35.2268 72.5039 36.0693 71.3084 36.8441L70.6844 35.4465H68.47V48.061V48.061ZM63.1228 33.516C63.1216 33.5908 63.1356 33.6644 63.1648 33.7334C63.194 33.8023 63.2361 33.8643 63.2899 33.9157C63.3436 33.9671 63.4079 34.0068 63.4768 34.0325C63.5469 34.0582 63.6217 34.0688 63.6953 34.0641H65.7169C65.7906 34.0723 65.8653 34.0629 65.9355 34.0384C66.0056 34.0138 66.0687 33.9741 66.1213 33.9215C66.1738 33.8689 66.2136 33.8058 66.2381 33.7357C66.2626 33.6656 66.272 33.5908 66.2638 33.5172V31.7071C66.272 31.63 66.2638 31.5517 66.2404 31.4781C66.2159 31.4045 66.1773 31.3367 66.1259 31.2783C66.0745 31.2198 66.0114 31.1743 65.9401 31.1415C65.87 31.11 65.7929 31.0925 65.7158 31.0913H63.686C63.6054 31.0855 63.5247 31.0971 63.4499 31.1275C63.3752 31.1567 63.3074 31.2023 63.2525 31.2619C63.1975 31.3203 63.1566 31.3916 63.1321 31.4687C63.1076 31.5459 63.1017 31.6265 63.1134 31.7071L63.1228 33.516ZM63.291 48.061H66.0535V35.429H63.291V48.061ZM51.3403 41.7356C51.3403 47.0584 53.1433 48.1778 55.5015 48.1778C57.4716 48.1778 59.4675 48.1778 61.3454 47.4195V45.6094C61.3454 45.6094 58.5923 45.8279 56.4024 45.8279C54.7174 45.8279 54.0945 45.1875 54.0945 41.8104C54.0945 37.8186 54.9371 37.6504 56.4024 37.6504C58.5163 37.6504 61.1771 37.7941 61.1771 37.7941V36.0343C59.3203 35.568 57.4156 35.3273 55.5015 35.3179C53.0756 35.3179 51.3403 36.4129 51.3403 41.7356ZM46.2033 33.516C46.201 33.5908 46.2138 33.6656 46.2419 33.7346C46.2699 33.8035 46.3132 33.8666 46.3669 33.918C46.4207 33.9694 46.4849 34.0092 46.5562 34.0349C46.6263 34.0594 46.7011 34.0699 46.7759 34.0641H48.7975C48.8711 34.0711 48.9447 34.0606 49.0137 34.036C49.0826 34.0103 49.1469 33.9706 49.1983 33.918C49.2509 33.8654 49.2906 33.8023 49.3163 33.7334C49.342 33.6644 49.3514 33.5897 49.3455 33.516V31.706C49.3537 31.6288 49.3455 31.5505 49.3222 31.4769C49.2988 31.4033 49.2602 31.3355 49.2077 31.2771C49.1562 31.2187 49.0931 31.1731 49.023 31.1404C48.9517 31.1088 48.8758 31.0913 48.7987 31.0901H46.7771C46.6964 31.0843 46.6158 31.096 46.541 31.1264C46.4662 31.1556 46.3985 31.2011 46.3435 31.2607C46.2886 31.3192 46.2477 31.3904 46.2232 31.4676C46.1986 31.5447 46.1928 31.6253 46.2045 31.706V33.516H46.2033ZM46.3716 48.061H49.1259V35.429H46.3716V48.061ZM33.0151 41.8116C33.0151 45.3745 33.916 48.2036 37.1506 48.2036C38.6393 48.1077 40.0719 47.5971 41.2861 46.73L41.8329 48.061H44.0228V29.4062H41.2861V36.1441C39.9691 35.6171 38.5692 35.332 37.1506 35.3016C33.6309 35.3016 33.0151 38.1318 33.0151 41.8618V41.8116ZM35.7682 41.7859C35.7682 38.3164 36.4845 37.5756 37.6963 37.5756C38.9127 37.5452 40.1257 37.7228 41.2837 38.0979V44.8358C40.1829 45.4353 38.949 45.7449 37.6963 45.7367C36.4588 45.7367 35.7682 44.6254 35.7682 41.7193V41.7859ZM20.5338 41.7193C20.5338 46.4694 21.485 48.2036 24.6938 48.2036C26.8065 48.2947 28.9216 48.0703 30.9678 47.5386V45.593C29.2769 45.8244 27.5696 45.912 25.8647 45.8536C24.0546 45.8536 23.2962 45.4913 23.2962 42.9731H27.7846C30.0668 42.9731 31.212 41.9962 31.212 39.8823C31.212 35.672 29.4767 35.3425 26.0493 35.3425C22.1078 35.3425 20.5326 36.185 20.5326 41.6924V41.7193H20.5338ZM23.2623 40.809C23.2623 37.6761 24.1049 37.6001 26.1592 37.6001C28.113 37.6001 28.4156 37.8607 28.4156 39.79C28.4156 40.4549 28.037 40.809 27.2027 40.809H23.2623ZM0.00116969 48.061H2.76362V38.7967C3.76624 38.0161 5.0049 37.5978 6.27512 37.6095C7.27773 37.6095 7.959 38.3001 7.959 39.5633V48.0692H10.7133V38.7208C11.7626 37.925 13.0609 37.5277 14.3767 37.6001C15.3454 37.6001 16.0606 38.2907 16.0606 39.5539V48.0598H18.7973V39.5796C18.7973 37.0532 17.5423 35.2759 14.9738 35.2759C13.2537 35.2852 11.5873 35.8788 10.2494 36.9598C9.90346 36.3907 9.40332 35.9303 8.80736 35.6323C8.2114 35.3343 7.54299 35.2104 6.88043 35.2759C4.97686 35.2759 3.97541 36.0343 2.74493 36.8674L2.12209 35.4441H0V48.061H0.00116969Z" fill="#00B4DC"/>
<path d="M7.47164 24.6226C14.9422 24.6226 14.9422 18.8032 14.9422 12.8319C14.9422 6.86064 14.9422 1.04126 7.47164 1.04126C0.00109774 1.04126 0.00109863 6.80221 0.00109863 12.8319C0.00109863 18.8617 0.00109774 24.6226 7.47164 24.6226ZM7.47164 21.2128C4.94523 21.2128 4.59116 18.6864 4.59116 12.791C4.59116 6.8957 4.91953 4.36929 7.47164 4.36929C10.0238 4.36929 10.3521 6.8957 10.3521 12.791C10.3521 18.6864 10.0238 21.2128 7.47164 21.2128Z" fill="#0055A2"/>
<path d="M23.5404 24.6234C27.7507 24.6234 30.0761 22.6696 30.0761 16.5639H25.6123C25.5538 18.3658 25.6123 21.2124 23.5404 21.2124C21.014 21.2124 20.66 18.686 20.66 12.7907C20.66 6.89534 20.9883 4.36893 23.5404 4.36893C24.8878 4.36893 25.4019 5.50593 25.4019 8.57922H29.8401C30.0165 3.66897 28.1562 1 23.5404 1C16.0699 1 16.0699 6.76095 16.0699 12.7907C16.0699 18.8204 16.0699 24.5813 23.5404 24.5813" fill="#0055A2"/>
<path d="M42.7598 24.2696V20.7488H35.2308V14.0787H41.9511V10.5672H35.2308V4.93362H42.5237V1.42212H30.7073V24.2708H42.7598V24.2696Z" fill="#0055A2"/>
<path d="M52.7391 15.6875H48.4014L50.4651 5.81674H50.5329L52.7391 15.6875ZM46.2712 24.2693L47.5005 19.2165H53.6739L54.8776 24.2693H59.6441L53.7487 1.42065H47.795L41.7898 24.2693H46.2712Z" fill="#0055A2"/>
<path d="M63.7795 24.2693V7.56022H63.8379L69.7414 24.2693H75.7127V1.42065H71.4849V17.237H71.4265L65.6667 1.42065H59.5529V24.2693H63.7795Z" fill="#0055A2"/>
<path d="M84.5305 24.6226C91.9999 24.6226 91.9999 18.8032 91.9999 12.8319C91.9999 6.86064 91.9999 1.04126 84.5305 1.04126C77.0611 1.04126 77.0681 6.80221 77.0681 12.8319C77.0681 18.8617 77.0693 24.6226 84.5305 24.6226ZM84.5305 21.2128C82.0041 21.2128 81.65 18.6864 81.65 12.791C81.65 6.8957 81.9865 4.36929 84.5305 4.36929C87.0732 4.36929 87.411 6.8957 87.411 12.791C87.411 18.6864 87.0826 21.2128 84.5305 21.2128Z" fill="#0055A2"/>
<rect x="104" width="1" height="48" fill="#292D32"/>
</svg>
