<svg width="20" height="23" viewBox="0 0 20 23" fill="none" xmlns="http://www.w3.org/2000/svg">
<path d="M1.49785 3.96533C0.670586 3.96533 0 4.73651 0 5.68786V17.3118C0 18.2631 0.670586 19.0343 1.49785 19.0343H6.66668V3.96533H1.49785Z" fill="#73AF00"/>
<path d="M13.3336 3.96558H6.66681V19.0346H13.3336V3.96558Z" fill="#F5F5F5"/>
<path d="M18.5021 3.96533H13.3333V19.0343H18.5021C19.3294 19.0343 20 18.2631 20 17.3118V5.68786C20 4.73651 19.3294 3.96533 18.5021 3.96533Z" fill="#FF4B55"/>
<path d="M10.5947 11.8545L10 12.1965V12.5385H10.2974L10.5947 11.8545Z" fill="#FFD250"/>
<path d="M9.99997 13.3936C9.91778 13.3936 9.85126 13.3171 9.85126 13.2226V12.5387C9.85126 12.4442 9.91778 12.3677 9.99997 12.3677C10.0822 12.3677 10.1486 12.4442 10.1486 12.5387V13.2226C10.1486 13.3171 10.0822 13.3936 9.99997 13.3936Z" fill="#00C3A0"/>
<path d="M10 12.7097C9.41597 12.7097 8.85203 12.4505 8.41195 11.9799C8.35183 11.9157 8.34836 11.8074 8.40429 11.7384C8.46062 11.6694 8.55461 11.6657 8.61441 11.7295C8.99933 12.1411 9.49144 12.3677 10.0001 12.3677C10.5087 12.3677 11.0008 12.1411 11.3857 11.7295C11.4457 11.6655 11.5396 11.669 11.5958 11.7384C11.6517 11.8075 11.6482 11.9157 11.5882 11.9799C11.148 12.4505 10.584 12.7097 10 12.7097Z" fill="#00C3A0"/>
<path d="M10 13.3934C9.61883 13.3934 9.24961 13.2654 8.93219 13.0229L9.09684 12.738C9.63352 13.1481 10.3665 13.1481 10.9031 12.738L11.0678 13.0229C10.7504 13.2654 10.3812 13.3934 10 13.3934Z" fill="#00AADC"/>
<path d="M9.7646 11.0852L9.43627 11.6695L9.38049 11.8618L10.2355 11.6338L9.7646 11.0852Z" fill="#732D37"/>
<path d="M9.09004 12.0497C8.69699 12.0497 8.22519 11.6693 8.10004 10.8217L8.39336 10.7646C8.49734 11.4694 8.87445 11.7082 9.10078 11.7076C9.17019 11.7054 9.24262 11.6778 9.24832 11.6214C9.255 11.5539 9.2566 11.5379 9.10109 11.4775C9.01656 11.4445 8.92074 11.4073 8.85351 11.3188C8.58152 10.9617 8.94976 10.5837 9.12668 10.402C9.15789 10.3699 9.17082 10.3427 9.1675 10.3324C9.15777 10.3031 9.09941 10.2589 9.03363 10.2589C8.84472 10.2589 8.7014 10.1362 8.65976 9.9388C8.61648 9.73441 8.69824 9.51901 8.8539 9.42651L8.99043 9.73041C8.95394 9.75211 8.93949 9.81387 8.94875 9.85799C8.95238 9.87569 8.96125 9.91693 9.03371 9.91693C9.21578 9.91693 9.38902 10.0405 9.44535 10.2105C9.46945 10.2829 9.50574 10.4713 9.32484 10.6571C9.12953 10.8577 9.01265 11.0087 9.07742 11.0937C9.09207 11.1128 9.15496 11.1374 9.19648 11.1534C9.33035 11.2056 9.57953 11.3024 9.54383 11.6606C9.52144 11.8858 9.34664 12.0421 9.1091 12.0495C9.10265 12.0495 9.09625 12.0497 9.09004 12.0497Z" fill="#AAD264"/>
<path d="M10.2974 10.1447C10.2974 10.1447 10.5948 9.46072 10 9.11873C10 9.11873 12.0816 8.77674 11.7842 11.8546L11.7841 11.8545C11.5889 11.6749 11.2992 11.3468 11.1957 11.0851L10.2974 10.4866V10.1447Z" fill="#874150"/>
<path d="M10 10.8286L11.4868 11.8545C11.4868 11.8545 11.4868 11.8545 10.8921 12.1965L10 11.1706V10.8286Z" fill="#732D37"/>
<path d="M9.40527 9.80284C9.56949 9.80284 9.70266 9.95598 9.70266 10.1448L9.70234 10.1452C9.52492 10.3493 9.48098 10.6609 9.59316 10.919L9.66035 11.0735C9.68836 11.138 9.72523 11.1968 9.76953 11.2477L10.5948 12.1968V11.7242C10.5948 11.1354 10.4755 10.5547 10.2466 10.0281C10.0955 9.68052 9.78656 9.46094 9.44867 9.46094H9.40527V9.80284Z" fill="#783C46"/>
<path d="M9.40529 9.46069L9.10791 9.80268V10.1447C9.10791 10.1447 9.46166 9.93844 9.58088 9.87272C9.6642 9.82681 9.64904 9.71823 9.60123 9.6659C9.564 9.6252 9.40529 9.46069 9.40529 9.46069Z" fill="#FFD250"/>
<path d="M10 14.0775C8.60622 14.0775 7.47235 12.7735 7.47235 11.1707H7.76973C7.76973 12.585 8.77016 13.7355 10 13.7355C11.2299 13.7355 12.2304 12.585 12.2304 11.1707H12.5277C12.5277 12.7735 11.3938 14.0775 10 14.0775Z" fill="#AAD264"/>
<path d="M7.78596 12.4175C7.89741 12.4175 7.98776 12.3136 7.98776 12.1854C7.98776 12.0573 7.89741 11.9534 7.78596 11.9534C7.67452 11.9534 7.58417 12.0573 7.58417 12.1854C7.58417 12.3136 7.67452 12.4175 7.78596 12.4175Z" fill="#FFE15A"/>
<path d="M8.23207 13.2368C8.34352 13.2368 8.43387 13.1329 8.43387 13.0048C8.43387 12.8766 8.34352 12.7727 8.23207 12.7727C8.12062 12.7727 8.03027 12.8766 8.03027 13.0048C8.03027 13.1329 8.12062 13.2368 8.23207 13.2368Z" fill="#FFE15A"/>
<path d="M8.95668 13.8565C9.06813 13.8565 9.15848 13.7526 9.15848 13.6244C9.15848 13.4962 9.06813 13.3923 8.95668 13.3923C8.84523 13.3923 8.75488 13.4962 8.75488 13.6244C8.75488 13.7526 8.84523 13.8565 8.95668 13.8565Z" fill="#FFE15A"/>
<path d="M12.2355 12.4175C12.347 12.4175 12.4373 12.3136 12.4373 12.1854C12.4373 12.0573 12.347 11.9534 12.2355 11.9534C12.1241 11.9534 12.0338 12.0573 12.0338 12.1854C12.0338 12.3136 12.1241 12.4175 12.2355 12.4175Z" fill="#FFE15A"/>
<path d="M11.7891 13.2368C11.9005 13.2368 11.9909 13.1329 11.9909 13.0048C11.9909 12.8766 11.9005 12.7727 11.7891 12.7727C11.6776 12.7727 11.5873 12.8766 11.5873 13.0048C11.5873 13.1329 11.6776 13.2368 11.7891 13.2368Z" fill="#FFE15A"/>
<path d="M11.0645 13.8565C11.1759 13.8565 11.2663 13.7526 11.2663 13.6244C11.2663 13.4962 11.1759 13.3923 11.0645 13.3923C10.953 13.3923 10.8627 13.4962 10.8627 13.6244C10.8627 13.7526 10.953 13.8565 11.0645 13.8565Z" fill="#FFE15A"/>
<path d="M10.1487 13.5644H9.85128C9.68706 13.5644 9.55389 13.4112 9.55389 13.2224C9.55389 13.0335 9.68706 12.8804 9.85128 12.8804H10.1487C10.3129 12.8804 10.446 13.0335 10.446 13.2224C10.4461 13.4113 10.3129 13.5644 10.1487 13.5644Z" fill="#FFB478"/>
<path d="M11.1957 11.085C11.2948 11.4199 11.5054 11.7263 11.7841 11.8544L11.7842 11.8545C12.0816 8.77674 10 9.11873 10 9.11873C11.4868 9.11873 11.1957 11.085 11.1957 11.085Z" fill="#9B4B5A"/>
</svg>
