<svg width="20" height="24" viewBox="0 0 20 24" fill="none" xmlns="http://www.w3.org/2000/svg">
<path d="M19.6552 12H10V19.4483C10 19.6768 9.84558 19.8621 9.65515 19.8621H18.5021C19.3294 19.8621 20 19.0574 20 18.0647V11.5862C20 11.8147 19.8456 12 19.6552 12Z" fill="#F5F5F5"/>
<path d="M0.344844 12H10V4.55175C10 4.32324 10.1544 4.13794 10.3448 4.13794H1.49785C0.670586 4.13799 0 4.94269 0 5.93541V12.4139C0 12.1853 0.154414 12 0.344844 12Z" fill="#F5F5F5"/>
<path d="M18.5021 4.13794H10.3448C10.1544 4.13794 10 4.32324 10 4.55175V12H19.6552C19.8456 12 20 11.8147 20 11.5862V5.93536C20 4.94264 19.3294 4.13794 18.5021 4.13794Z" fill="#FF4B55"/>
<path d="M10 19.4483V12H0.344844C0.154414 12 0 12.1853 0 12.4138V18.0647C0 19.0574 0.670586 19.8621 1.49785 19.8621H9.6552C9.84559 19.8621 10 19.6768 10 19.4483Z" fill="#4173CD"/>
<path d="M5.13282 6.30402L5.46157 7.48687L6.50063 7.49652C6.63516 7.49774 6.69095 7.7038 6.5827 7.79966L5.74684 8.54034L6.06024 9.72918C6.10079 9.88312 5.95477 10.0104 5.84532 9.91654L5.00001 9.19152L4.15466 9.91659C4.0452 10.0105 3.89919 9.88312 3.93974 9.72923L4.25313 8.54038L3.41727 7.79971C3.30903 7.7038 3.36485 7.49779 3.49934 7.49657L4.53841 7.48691L4.86716 6.30407C4.90974 6.15093 5.09028 6.15093 5.13282 6.30402Z" fill="#4173CD"/>
<path d="M15.1328 14.1661L15.4616 15.349L16.5006 15.3586C16.6352 15.3598 16.6909 15.5659 16.5827 15.6618L15.7468 16.4024L16.0602 17.5913C16.1008 17.7452 15.9548 17.8725 15.8453 17.7786L15 17.0536L14.1547 17.7787C14.0452 17.8726 13.8992 17.7452 13.9397 17.5913L14.2531 16.4025L13.4173 15.6618C13.309 15.5659 13.3649 15.3599 13.4993 15.3587L14.5384 15.349L14.8672 14.1662C14.9097 14.013 15.0903 14.013 15.1328 14.1661Z" fill="#FF4B55"/>
</svg>
