<svg width="21" height="23" viewBox="0 0 21 23" fill="none" xmlns="http://www.w3.org/2000/svg">
<path d="M19.4273 3.96558H1.57274C0.704115 3.96558 0 4.73675 0 5.68811V8.98856H21V5.68811C21 4.73675 20.2959 3.96558 19.4273 3.96558Z" fill="#FF4B55"/>
<path d="M0 17.3119C0 18.2632 0.704115 19.0345 1.57274 19.0345H19.4273C20.2958 19.0345 21 18.2633 21 17.3119V14.0115H0V17.3119Z" fill="#41479B"/>
<path d="M21 8.98853H0V14.0112H21V8.98853Z" fill="#F5F5F5"/>
<path d="M10.5 9.51733C9.50025 9.51733 8.6897 10.405 8.6897 11.5001C8.6897 12.5952 9.50025 13.4829 10.5 13.4829C11.4998 13.4829 12.3104 12.5952 12.3104 11.5001C12.3104 10.405 11.4998 9.51733 10.5 9.51733ZM10.5 12.9955C9.74597 12.9955 9.13472 12.326 9.13472 11.5001C9.13472 10.6743 9.74597 10.0047 10.5 10.0047C11.2541 10.0047 11.8654 10.6742 11.8654 11.5001C11.8654 12.3259 11.2541 12.9955 10.5 12.9955Z" fill="#FF4B55"/>
<path d="M10.5 12.1878C10.8468 12.1878 11.128 11.8798 11.128 11.5C11.128 11.1202 10.8468 10.8123 10.5 10.8123C10.1532 10.8123 9.87207 11.1202 9.87207 11.5C9.87207 11.8798 10.1532 12.1878 10.5 12.1878Z" fill="#41479B"/>
<path d="M10.5409 10.9791L10.6421 11.3115L10.962 11.3142C11.0034 11.3146 11.0206 11.3725 10.9872 11.3994L10.7299 11.6076L10.8264 11.9416C10.8389 11.9848 10.794 12.0206 10.7602 11.9942L10.5 11.7905L10.2397 11.9942C10.206 12.0206 10.161 11.9848 10.1735 11.9416L10.27 11.6076L10.0127 11.3994C9.97939 11.3725 9.99653 11.3146 10.038 11.3142L10.3578 11.3115L10.459 10.9791C10.4722 10.936 10.5278 10.936 10.5409 10.9791Z" fill="#FFE15A"/>
<path d="M11.6878 11.516C11.6878 11.516 11.7236 11.3342 11.5471 11.5523C11.5471 11.5523 11.5497 11.4902 11.5447 11.439C11.5835 11.393 11.6316 11.2923 11.6203 11.0773C11.6203 11.0773 11.5926 10.8939 11.5017 11.1678C11.5017 11.1678 11.4769 11.087 11.4506 11.0423C11.4725 10.9925 11.4894 10.9019 11.4369 10.7302C11.4369 10.7302 11.3755 10.5834 11.3563 10.8357C11.3563 10.8357 11.3059 10.7531 11.2732 10.7328C11.2795 10.6921 11.2746 10.6222 11.2004 10.509C11.2004 10.509 11.1264 10.4183 11.1638 10.6045C11.1638 10.6045 11.0961 10.5445 11.0744 10.5515C11.0632 10.5159 11.0306 10.4558 10.9214 10.3766C10.9214 10.3766 10.8268 10.3199 10.9354 10.468C10.9354 10.468 10.8394 10.4263 10.8405 10.4502C10.8417 10.4741 10.8881 10.5182 10.9262 10.5379C10.9262 10.5379 10.7855 10.5539 10.8432 10.5882C10.8432 10.5882 10.986 10.6422 11.0718 10.5902C11.0787 10.6176 11.0927 10.6483 11.1135 10.6703C11.1135 10.6703 10.9459 10.6348 10.9913 10.6898C10.9913 10.6898 11.1169 10.7909 11.2411 10.7754C11.2405 10.8129 11.2509 10.8613 11.269 10.8975C11.269 10.8975 11.0693 10.7806 11.1071 10.8698C11.1071 10.8698 11.2266 11.0448 11.3855 11.0828C11.3789 11.1217 11.3791 11.1687 11.3877 11.2077C11.3877 11.2077 11.1981 11.0116 11.2155 11.1233C11.2155 11.1233 11.2947 11.3534 11.4553 11.4511C11.4422 11.4803 11.4315 11.513 11.4276 11.5435C11.4276 11.5435 11.3172 11.2847 11.2958 11.3956C11.2958 11.3956 11.2922 11.6541 11.4182 11.8087C11.3913 11.8331 11.365 11.8673 11.3489 11.9008C11.3489 11.9008 11.3248 11.6165 11.2705 11.713C11.2705 11.713 11.1954 11.9284 11.2462 12.1141C11.2126 12.125 11.176 12.145 11.149 12.1691C11.149 12.1691 11.2291 11.8972 11.1445 11.9625C11.1445 11.9625 10.9938 12.141 10.9822 12.3419C10.9423 12.341 10.8882 12.3568 10.849 12.3824C10.849 12.3824 10.9636 12.126 10.8713 12.1773C10.8713 12.1773 10.7069 12.3244 10.6645 12.5152C10.6256 12.5395 10.5596 12.5808 10.4936 12.6218C10.4552 12.5974 10.4179 12.5737 10.386 12.5533L10.3871 12.5514L10.0134 12.2083L10.0208 12.3205L9.83319 11.953L9.81002 12.078L9.74858 11.6717L9.69407 11.7317L9.71515 11.3526L9.64411 11.3946L9.77315 11.1126L9.71252 11.1314L9.87191 10.964L9.78762 10.9719L9.98917 10.8716L9.91551 10.8592L10.1123 10.7501L10.0275 10.7456L10.2826 10.649L10.2359 10.6042L10.4567 10.5329L10.1921 10.5108L10.2675 10.4092L10.0656 10.5223L10.0946 10.3694L9.91801 10.5685L9.94869 10.4291L9.78344 10.6092L9.7941 10.4733L9.63074 10.7763L9.60966 10.6407L9.4739 10.9809L9.43653 10.8327L9.37591 11.2546L9.32534 11.1919L9.39182 11.5989L9.3075 11.5296L9.46208 11.8952C9.46208 11.8952 9.34966 11.8413 9.33559 11.8413C9.32152 11.8413 9.60437 12.156 9.60437 12.156L9.45679 12.1387L9.74193 12.3582L9.63599 12.3869L9.87318 12.4879L9.81519 12.5369L10.3062 12.5754C10.3062 12.5754 10.3536 12.6186 10.418 12.6686C10.384 12.6895 10.354 12.7079 10.3356 12.719C10.3168 12.7301 10.295 12.7312 10.2753 12.7222C10.2287 12.7009 10.1613 12.6706 10.1288 12.6564C10.1288 12.6564 10.1319 12.8093 10.2772 12.8131C10.3369 12.8146 10.4183 12.773 10.494 12.7238C10.5714 12.7767 10.657 12.8234 10.7187 12.8218C10.8609 12.818 10.864 12.6651 10.864 12.6651C10.8322 12.6794 10.7661 12.7096 10.7206 12.731C10.7013 12.7399 10.6799 12.7388 10.6617 12.7277C10.6415 12.7153 10.6084 12.6946 10.5704 12.6706C10.6092 12.6418 10.6417 12.6156 10.6646 12.5964C10.7003 12.6271 10.8027 12.6812 11.0315 12.5872C11.0315 12.5872 11.1833 12.5037 10.9174 12.49C10.9174 12.49 10.9668 12.4503 11.0001 12.4127C11.0437 12.4373 11.1514 12.4664 11.3563 12.3432C11.3563 12.3432 11.4956 12.2369 11.2308 12.2648C11.2308 12.2648 11.2661 12.2271 11.2939 12.1887C11.3396 12.1943 11.4524 12.1809 11.6021 11.9713C11.6021 11.9713 11.6919 11.8135 11.4585 11.9534C11.4585 11.9534 11.4887 11.8747 11.4958 11.822C11.5474 11.7946 11.6261 11.7204 11.6878 11.516Z" fill="#64C86E"/>
</svg>
