<svg width="106" height="26" viewBox="0 0 106 26" fill="none" xmlns="http://www.w3.org/2000/svg">
<g clip-path="url(#clip0_10627_2626)">
<path fill-rule="evenodd" clip-rule="evenodd" d="M9.24949 6.11987H16.4928C20.3818 6.11987 21.8458 8.11317 21.6195 11.0416C21.2456 15.8763 18.3588 18.551 14.5296 18.551H12.5963C12.0709 18.551 11.7175 18.9031 11.5754 19.8572L10.7546 25.4036C10.7004 25.7633 10.5134 25.9715 10.233 25.9999H5.68206C5.2539 25.9999 5.10245 25.6686 5.21463 24.9512L7.9893 7.17048C8.09774 6.45872 8.4829 6.11987 9.24949 6.11987Z" fill="#009EE3"/>
<path fill-rule="evenodd" clip-rule="evenodd" d="M40.6963 5.79053C43.14 5.79053 45.3949 7.13265 45.0864 10.4775C44.7124 14.4528 42.609 16.6524 39.2903 16.6619H36.3903C35.9734 16.6619 35.7714 17.0064 35.663 17.7125L35.1021 21.3224C35.0179 21.8676 34.7412 22.1364 34.3336 22.1364H31.6356C31.2056 22.1364 31.056 21.8581 31.1514 21.2353L33.3782 6.7673C33.4885 6.05554 33.7521 5.79053 34.2327 5.79053H40.6907H40.6963ZM36.3024 13.5366H38.4994C39.8736 13.4836 40.786 12.52 40.8776 10.7823C40.9337 9.70898 40.2176 8.94043 39.079 8.94611L37.0111 8.95558L36.3024 13.5366ZM52.4213 21.029C52.6681 20.8018 52.9186 20.6844 52.8831 20.9646L52.7952 21.6347C52.7504 21.9849 52.8869 22.1704 53.2084 22.1704H55.6054C56.0093 22.1704 56.2056 22.0057 56.3047 21.3735L57.7818 11.9881C57.8566 11.5168 57.7425 11.2858 57.3891 11.2858H54.7528C54.5154 11.2858 54.3995 11.4202 54.3378 11.7875L54.2405 12.3648C54.19 12.6658 54.0536 12.7188 53.9264 12.4159C53.4796 11.3445 52.339 10.8637 50.7479 10.9016C47.0515 10.9792 44.5591 13.8205 44.2918 17.4626C44.0861 20.2794 46.0792 22.4922 48.708 22.4922C50.6151 22.4922 51.4677 21.9243 52.4288 21.0346L52.4213 21.029ZM50.4132 19.5846C48.8221 19.5846 47.7133 18.2993 47.9433 16.7243C48.1733 15.1494 49.6616 13.8641 51.2527 13.8641C52.8438 13.8641 53.9526 15.1494 53.7226 16.7243C53.4926 18.2993 52.0062 19.5846 50.4132 19.5846ZM62.4729 11.2555H60.0423C59.5412 11.2555 59.3374 11.6341 59.4963 12.0998L62.514 21.046L59.5543 25.3033C59.3056 25.6592 59.4982 25.9829 59.8478 25.9829H62.5795C62.7387 26.0015 62.8998 25.9734 63.0437 25.9019C63.1876 25.8304 63.3081 25.7186 63.3909 25.5797L72.6722 12.1017C72.9583 11.6871 72.8237 11.2518 72.3544 11.2518H69.7685C69.3254 11.2518 69.1478 11.4297 68.8935 11.8026L65.0232 17.4815L63.2937 11.7894C63.1927 11.4448 62.9403 11.2555 62.4748 11.2555H62.4729Z" fill="#113984"/>
<path fill-rule="evenodd" clip-rule="evenodd" d="M82.3275 5.79065C84.7712 5.79065 87.0261 7.13278 86.7176 10.4777C86.3436 14.4529 84.2402 16.6525 80.9214 16.662H78.0234C77.6064 16.662 77.4045 17.0065 77.2961 17.7126L76.7351 21.3225C76.651 21.8677 76.3743 22.1365 75.9667 22.1365H73.2687C72.8386 22.1365 72.6891 21.8582 72.7844 21.2354L75.015 6.76364C75.1253 6.05188 75.3889 5.78687 75.8695 5.78687H82.3275V5.79065ZM77.9336 13.5367H80.1305C81.5048 13.4837 82.4172 12.5202 82.5088 10.7824C82.5649 9.70911 81.8488 8.94056 80.7102 8.94624L78.6423 8.95571L77.9336 13.5367ZM94.0525 21.0291C94.2993 20.8019 94.5498 20.6846 94.5143 20.9647L94.4264 21.6348C94.3815 21.985 94.518 22.1706 94.8396 22.1706H97.2366C97.6405 22.1706 97.8368 22.0059 97.9359 21.3736L99.413 11.9883C99.4877 11.5169 99.3737 11.286 99.0203 11.286H96.3878C96.1503 11.286 96.0344 11.4204 95.9727 11.7876L95.8755 12.365C95.825 12.6659 95.6885 12.7189 95.5613 12.4161C95.1145 11.3446 93.974 10.8638 92.3828 10.9017C88.6864 10.9793 86.194 13.8207 85.9267 17.4627C85.721 20.2795 87.7141 22.4924 90.343 22.4924C92.2501 22.4924 93.1027 21.9245 94.0637 21.0348L94.0525 21.0291ZM92.0463 19.5848C90.4551 19.5848 89.3464 18.2994 89.5764 16.7245C89.8063 15.1495 91.2946 13.8642 92.8858 13.8642C94.4769 13.8642 95.5856 15.1495 95.3557 16.7245C95.1257 18.2994 93.6374 19.5848 92.0463 19.5848ZM103.102 22.1857H100.335C100.287 22.1879 100.239 22.1793 100.194 22.1605C100.15 22.1417 100.11 22.1132 100.078 22.077C100.045 22.0409 100.021 21.9979 100.007 21.9513C99.9931 21.9046 99.9894 21.8554 99.9963 21.8071L102.427 6.21657C102.45 6.11017 102.508 6.01485 102.592 5.94611C102.675 5.87737 102.779 5.83926 102.887 5.83798H105.654C105.702 5.8358 105.75 5.84441 105.795 5.86319C105.839 5.88197 105.879 5.91046 105.911 5.94663C105.944 5.9828 105.968 6.02575 105.982 6.07241C105.996 6.11907 105.999 6.1683 105.993 6.21657L103.562 21.8071C103.539 21.9142 103.482 22.0104 103.398 22.0799C103.314 22.1494 103.21 22.188 103.102 22.1895V22.1857Z" fill="#009EE3"/>
<path fill-rule="evenodd" clip-rule="evenodd" d="M4.7191 0H11.9699C14.0116 0 16.4348 0.0662541 18.0539 1.51438C19.1365 2.48169 19.7049 4.02068 19.574 5.67892C19.129 11.284 15.8178 14.4245 11.3753 14.4245H7.8004C7.19087 14.4245 6.78888 14.8333 6.61686 15.9388L5.61844 22.375C5.553 22.7914 5.37537 23.0375 5.05752 23.0678H0.583282C0.0878068 23.0678 -0.0879485 22.6892 0.0410621 21.8525L3.25698 1.22286C3.38599 0.393737 3.83659 0 4.7191 0Z" fill="#113984"/>
<path fill-rule="evenodd" clip-rule="evenodd" d="M6.72168 15.2858L7.98748 7.17066C8.09779 6.4589 8.48296 6.11816 9.24954 6.11816H16.4928C17.6913 6.11816 18.6617 6.30746 19.4208 6.65766C18.6935 11.6475 15.5056 14.4189 11.3324 14.4189H7.76311C7.28447 14.4207 6.93296 14.6631 6.72168 15.2858Z" fill="#172C70"/>
</g>
<defs>
<clipPath id="clip0_10627_2626">
<rect width="106" height="26" fill="white"/>
</clipPath>
</defs>
</svg>
