<svg width="21" height="23" viewBox="0 0 21 23" fill="none" xmlns="http://www.w3.org/2000/svg">
<path d="M7.60345 8.98853H0V10.6628H7.60345V8.98853Z" fill="#F5F5F5"/>
<path d="M7.60341 5.6399H20.9988C20.9754 4.71092 20.281 3.96558 19.4272 3.96558H1.57274C0.704113 3.96553 0 4.73675 0 5.68805V7.31422H7.60341V5.6399Z" fill="#F5F5F5"/>
<path d="M1.57257 19.0344H19.427C20.2809 19.0344 20.9753 18.289 20.9986 17.3601H0.000976562C0.0243144 18.289 0.718706 19.0344 1.57257 19.0344Z" fill="#F5F5F5"/>
<path d="M7.60339 5.63994V7.31426H20.9999V5.68809C20.9999 5.67192 20.9992 5.65597 20.9988 5.63989L7.60339 5.63994Z" fill="#4173CD"/>
<path d="M0 7.31421V8.98849H7.6034H20.9999V7.31421H7.6034H0Z" fill="#F5F5F5"/>
<path d="M20.9999 8.98828H7.60339V10.6625H20.9999V8.98828Z" fill="#4173CD"/>
<path d="M0 10.6628V12.3372H20.9999V10.6628H7.6034H0Z" fill="#F5F5F5"/>
<path d="M20.9999 12.3374H0V14.0116H20.9999V12.3374Z" fill="#4173CD"/>
<path d="M20.9999 14.0115H0V15.6857H20.9999V14.0115Z" fill="#F5F5F5"/>
<path d="M0 17.312C0 17.3281 0.000738278 17.3441 0.00114843 17.3602H20.9989C20.9993 17.3441 21 17.3281 21 17.312V15.6858H0V17.312Z" fill="#4173CD"/>
<path d="M2.62402 5.01514L3.2297 8.08473L4.17744 7.65478L2.62402 5.01514Z" fill="#FFE15A"/>
<path d="M2.62402 5.01514L3.70355 7.86973L3.2297 8.08473L2.62402 5.01514Z" fill="#FFCD5A"/>
<path d="M4.97949 11.2434L4.37377 8.17383L3.42603 8.60377L4.97949 11.2434Z" fill="#FFE15A"/>
<path d="M4.97947 11.2434L3.8999 8.38882L4.37375 8.17383L4.97947 11.2434Z" fill="#FFCD5A"/>
<path d="M6.64508 6.83936L3.84241 7.50276L4.23497 8.54076L6.64508 6.83936Z" fill="#FFE15A"/>
<path d="M6.64508 6.83936L4.03867 8.02174L3.84241 7.50276L6.64508 6.83936Z" fill="#FFCD5A"/>
<path d="M0.958374 9.41923L3.76104 8.75582L3.36844 7.71777L0.958374 9.41923Z" fill="#FFE15A"/>
<path d="M0.958374 9.41925L3.56474 8.23682L3.76104 8.75584L0.958374 9.41925Z" fill="#FFCD5A"/>
<path d="M4.97949 5.01514L3.42603 7.65478L4.37377 8.08473L4.97949 5.01514Z" fill="#FFE15A"/>
<path d="M4.97949 5.01514L3.89992 7.86973L3.42603 7.65478L4.97949 5.01514Z" fill="#FFCD5A"/>
<path d="M2.62402 11.2434L4.17744 8.60377L3.2297 8.17383L2.62402 11.2434Z" fill="#FFE15A"/>
<path d="M2.62402 11.2435L3.70355 8.38892L4.17744 8.60387L2.62402 11.2435Z" fill="#FFCD5A"/>
<path d="M6.64508 9.41923L4.23497 7.71777L3.84241 8.75582L6.64508 9.41923Z" fill="#FFE15A"/>
<path d="M6.64498 9.41923L4.03857 8.2368L4.23487 7.71777L6.64498 9.41923Z" fill="#FFCD5A"/>
<path d="M0.958374 6.83936L3.36844 8.54076L3.76104 7.50276L0.958374 6.83936Z" fill="#FFE15A"/>
<path d="M0.958374 6.83936L3.56474 8.02174L3.36844 8.54076L0.958374 6.83936Z" fill="#FFCD5A"/>
<path d="M3.80176 4.75854L3.28882 7.8483H4.31466L3.80176 4.75854Z" fill="#FFE15A"/>
<path d="M3.80176 4.75854V7.8483H3.28882L3.80176 4.75854Z" fill="#FFCD5A"/>
<path d="M3.80176 11.5L4.31466 8.41016H3.28882L3.80176 11.5Z" fill="#FFE15A"/>
<path d="M3.80176 11.5V8.41016H4.31466L3.80176 11.5Z" fill="#FFCD5A"/>
<path d="M6.87931 8.12937L4.05823 7.56763V8.69112L6.87931 8.12937Z" fill="#FFE15A"/>
<path d="M6.87931 8.12937H4.05823V7.56763L6.87931 8.12937Z" fill="#FFCD5A"/>
<path d="M0.724121 8.12937L3.54521 8.69112V7.56763L0.724121 8.12937Z" fill="#FFE15A"/>
<path d="M0.724121 8.12939H3.54521V8.69114L0.724121 8.12939Z" fill="#FFCD5A"/>
<path d="M5.97789 5.74585L3.62036 7.53342L4.34576 8.3279L5.97789 5.74585Z" fill="#FFE15A"/>
<path d="M5.97789 5.74585L3.98306 7.93066L3.62036 7.53342L5.97789 5.74585Z" fill="#FFCD5A"/>
<path d="M1.62561 10.5127L3.9831 8.72515L3.2577 7.93066L1.62561 10.5127Z" fill="#FFE15A"/>
<path d="M1.62561 10.5126L3.6204 8.32788L3.9831 8.72512L1.62561 10.5126Z" fill="#FFCD5A"/>
<path d="M5.97789 10.5127L4.34576 7.93066L3.62036 8.72515L5.97789 10.5127Z" fill="#FFE15A"/>
<path d="M5.97786 10.5127L3.98303 8.32791L4.34573 7.93066L5.97786 10.5127Z" fill="#FFCD5A"/>
<path d="M1.62561 5.74585L3.2577 8.3279L3.9831 7.53342L1.62561 5.74585Z" fill="#FFE15A"/>
<path d="M1.62561 5.74585L3.6204 7.93066L3.2577 8.3279L1.62561 5.74585Z" fill="#FFCD5A"/>
<path d="M3.80168 9.25309C4.36821 9.25309 4.82747 8.75008 4.82747 8.12959C4.82747 7.50911 4.36821 7.0061 3.80168 7.0061C3.23514 7.0061 2.77588 7.50911 2.77588 8.12959C2.77588 8.75008 3.23514 9.25309 3.80168 9.25309Z" fill="#FFE15A"/>
</svg>
