<svg width="126" height="33" viewBox="0 0 126 33" fill="none" xmlns="http://www.w3.org/2000/svg">
<path d="M47 15.1203C47 6.79023 36.4792 1.90735e-06 23.5008 1.90735e-06C10.5231 1.90735e-06 0.00271078 6.79023 0.00271078 15.1203C0.00271078 15.3355 0 15.9302 0 16.0055C0 24.8425 9.19581 32 23.4981 32C37.8888 32 47 24.8445 47 16.0072C47 15.6981 47 15.5206 47 15.1203Z" fill="#2A3C8E"/>
<path d="M46 15.0005C46 22.7322 35.9265 29 23.4997 29C11.0732 29 1 22.7322 1 15.0005C1 7.26813 11.0732 1 23.4997 1C35.9265 1 46 7.26813 46 15.0005Z" fill="#00ADEF"/>
<path d="M16.1398 11.0157C16.128 11.0374 15.9034 11.261 16.0488 11.4409C16.4042 11.8774 17.5013 12.128 18.6108 11.8885C19.2714 11.7457 20.1183 11.0975 20.9384 10.471C21.8274 9.79102 22.7093 9.11069 23.5959 8.83999C24.5344 8.55241 25.136 8.67575 25.5333 8.7913C25.9693 8.91659 26.4819 9.19281 27.2998 9.78323C28.8399 10.8978 35.033 16.1006 36.103 17C36.965 16.6254 40.795 15.0382 46 13.9343C45.5478 11.2636 43.8599 8.82019 41.2999 6.81946C37.7322 8.26191 33.3721 9.01429 29.1084 7.01C29.0868 7.00156 26.7791 5.95023 24.503 6.00184C21.1198 6.07747 19.6545 7.4868 18.1036 8.97859L16.1398 11.0157Z" fill="white"/>
<path d="M34.5428 16.9748C34.4746 16.9138 27.6893 10.9665 26.1522 9.80919C25.2625 9.14089 24.7677 8.97047 24.2485 8.90402C23.9777 8.86873 23.6041 8.91928 23.3429 8.99082C22.6278 9.18603 21.6931 9.81206 20.8628 10.4715C20.0033 11.1572 19.1927 11.803 18.4411 11.9715C17.48 12.1873 16.3069 11.9327 15.7715 11.5702C15.5547 11.4243 15.402 11.2552 15.3287 11.0835C15.131 10.6244 15.4956 10.2572 15.5556 10.1955L17.4279 8.16673C17.6457 7.94926 17.865 7.73149 18.0891 7.5172C17.4851 7.59605 16.9265 7.75055 16.3828 7.90189C15.7045 8.09329 15.0519 8.27483 14.3917 8.27452C14.1162 8.27452 12.6394 8.03226 12.3591 7.95563C10.6649 7.49113 9.17758 7.03902 6.95613 6C4.29413 7.98488 2.51418 10.467 2 13.2006C2.38246 13.302 2.99853 13.4858 3.25752 13.5434C9.28136 14.8847 11.1575 16.2671 11.4981 16.5555C11.8665 16.1447 12.3979 15.885 12.9914 15.885C13.6579 15.8859 14.2584 16.221 14.6234 16.7396C14.9685 16.4668 15.4442 16.2337 16.0593 16.234C16.3386 16.234 16.6284 16.2859 16.9211 16.3854C17.6006 16.6187 17.9513 17.0721 18.1332 17.4823C18.3614 17.3792 18.6413 17.3033 18.9718 17.3042C19.2958 17.3042 19.6332 17.3783 19.9735 17.5255C21.084 18.003 21.257 19.0958 21.1561 19.9196C21.2351 19.9103 21.3148 19.9065 21.3957 19.9065C22.7126 19.9075 23.7838 20.9796 23.7831 22.2996C23.7831 22.7079 23.679 23.0919 23.4975 23.4289C23.8558 23.6308 24.7693 24.0874 25.571 23.9853C26.2119 23.9046 26.4553 23.6852 26.5423 23.5618C26.6019 23.477 26.6651 23.3778 26.6064 23.3069L24.9067 21.4151C24.9067 21.4151 24.6268 21.15 24.7191 21.0479C24.8153 20.943 24.988 21.0937 25.1102 21.1961C25.9754 21.9197 27.0317 23.0118 27.0317 23.0118C27.0495 23.0236 27.1193 23.1622 27.51 23.2321C27.8461 23.2925 28.4409 23.2572 28.8532 22.9183C28.9573 22.8325 29.0614 22.7257 29.1481 22.6157C29.1414 22.6207 29.1357 22.6284 29.129 22.6309C29.5639 22.0739 29.0811 21.5099 29.0811 21.5099L27.0968 19.278C27.0968 19.278 26.813 19.0154 26.9092 18.9095C26.9958 18.8176 27.1783 18.9562 27.3027 19.0596C27.9309 19.5857 28.8186 20.4782 29.6696 21.3131C29.8356 21.4348 30.5833 21.8984 31.5736 21.2466C32.1741 20.8521 32.2951 20.3672 32.2779 20.001C32.236 19.5167 31.859 19.1718 31.859 19.1718L29.1481 16.442C29.1481 16.442 28.8621 16.1968 28.963 16.0732C29.0459 15.9689 29.2319 16.119 29.3534 16.221C30.2174 16.9449 32.5547 19.0917 32.5547 19.0917C32.588 19.1152 33.3958 19.6913 34.3937 19.0548C34.7504 18.8262 34.9786 18.4815 34.9983 18.0816C35.0323 17.3869 34.5428 16.9748 34.5428 16.9748Z" fill="white"/>
<path d="M21.1004 20.6338C20.671 20.6294 20.2013 20.8553 20.1397 20.8226C20.106 20.8024 20.166 20.6496 20.2062 20.5614C20.2474 20.474 20.813 18.9663 19.4346 18.4425C18.3795 18.0408 17.7345 18.4928 17.5129 18.6968C17.4546 18.7502 17.4286 18.7459 17.4218 18.6778C17.4007 18.4063 17.2635 17.6718 16.3531 17.4256C15.0516 17.0727 14.2148 17.8776 14.0024 18.1678C13.9073 17.5106 13.2804 17.0006 12.5124 17C11.6775 16.9991 11.001 17.5983 11 18.3373C10.9997 19.0764 11.6762 19.6758 12.5104 19.6758C12.9162 19.6766 13.284 19.533 13.5551 19.3025C13.5635 19.3094 13.5671 19.322 13.5626 19.3476C13.4993 19.6783 13.3819 20.8815 14.8038 21.3711C15.374 21.5671 15.8588 21.4214 16.2607 21.1714C16.3804 21.0967 16.4001 21.1283 16.383 21.228C16.3317 21.5372 16.3966 22.1998 17.4448 22.5762C18.2424 22.8633 18.7143 22.5696 19.0233 22.3164C19.1579 22.2075 19.1946 22.2251 19.2017 22.3932C19.2397 23.2885 20.0791 23.9991 21.0981 24C22.1486 24.0009 22.9997 23.2486 23 22.3187C23.001 21.388 22.1506 20.6441 21.1004 20.6338Z" fill="white"/>
<path d="M21.7549 24.1998C20.7648 24.1989 19.9597 23.4697 19.9232 22.5403C19.9209 22.4607 19.9121 22.249 19.7231 22.249C19.6452 22.249 19.5777 22.2931 19.5001 22.3596C19.2824 22.5509 19.0051 22.7453 18.6001 22.7453C18.4166 22.7453 18.2171 22.7047 18.0069 22.6235C16.9612 22.2221 16.9466 21.5412 16.9892 21.2675C17.0006 21.1946 17.0047 21.1184 16.9517 21.0596L16.8873 21.0049H16.8221C16.7692 21.0049 16.7145 21.0254 16.6402 21.075C16.3379 21.2764 16.0477 21.374 15.7528 21.374C15.5905 21.374 15.4241 21.3433 15.2571 21.2822C13.8803 20.7743 13.9893 19.5431 14.0564 19.1724C14.0662 19.0973 14.0466 19.039 13.9964 19L13.8992 18.9242L13.8081 19.0067C13.5398 19.252 13.1889 19.386 12.82 19.386C12.0314 19.3854 11.3896 18.7781 11.3903 18.0307C11.3909 17.283 12.0334 16.6763 12.8221 16.6772C13.5344 16.6772 14.1411 17.1851 14.2319 17.8596L14.2812 18.2235L14.4921 17.9156C14.5157 17.8797 15.0934 17.0517 16.1553 17.0527C16.3575 17.0527 16.566 17.0834 16.7759 17.1451C17.6229 17.3898 17.7663 18.1177 17.7882 18.4205C17.8034 18.5974 17.936 18.6057 17.962 18.6057C18.0352 18.6057 18.0889 18.5616 18.127 18.5238C18.287 18.3658 18.6349 18.103 19.1795 18.103C19.4289 18.1039 19.6941 18.1599 19.9678 18.2712C21.3135 18.8184 20.7031 20.4389 20.696 20.4558C20.5803 20.7244 20.5755 20.8431 20.6842 20.9115L20.7375 20.9355H20.7766C20.837 20.9355 20.9126 20.9106 21.0372 20.8706C21.2204 20.8108 21.4971 20.7203 21.7552 20.7209H21.7559C22.7689 20.7315 23.593 21.5128 23.5926 22.462C23.5916 23.4208 22.7672 24.1998 21.7549 24.1998ZM36.012 16.3894C33.7899 14.5515 28.6543 10.32 27.263 9.33055C26.4687 8.76416 25.9267 8.46482 25.4506 8.3305C25.2373 8.26941 24.9414 8.19971 24.5604 8.19939C24.2068 8.19939 23.8268 8.25983 23.43 8.37944C22.531 8.64904 21.6358 9.32384 20.7692 9.97626L20.7247 10.0095C19.9178 10.6175 19.084 11.2462 18.453 11.3799C18.1776 11.4387 17.8942 11.4691 17.6117 11.4691C16.9048 11.4682 16.2697 11.2747 16.0318 10.9872C15.9927 10.9395 16.0177 10.8624 16.1098 10.7515L16.1219 10.7371L18.0767 8.74018C19.6077 7.2892 21.054 5.91913 24.3829 5.84653C24.4376 5.84525 24.4939 5.8443 24.5489 5.8443C26.6212 5.84526 28.6928 6.72474 28.9249 6.82644C30.8679 7.72478 32.873 8.18083 34.8893 8.18243C36.9906 8.18307 39.158 7.69025 41.4371 6.69564C41.1826 6.49256 40.9177 6.29523 40.6454 6.10143C38.643 6.9243 36.7354 7.33973 34.895 7.33941C33.0151 7.33781 31.1369 6.90991 29.3137 6.06657C29.2172 6.02308 26.93 5.00096 24.55 5C24.4879 5 24.4244 5.00096 24.3623 5.00192C21.5663 5.06396 19.9911 6.00517 18.9318 6.82964C17.9016 6.8533 17.0128 7.08868 16.2222 7.29816C15.5166 7.48397 14.9071 7.64515 14.3129 7.64482C14.0679 7.64482 13.6272 7.6234 13.5877 7.62212C12.9044 7.60261 9.4611 6.80213 6.72172 5.81903C6.44198 6.00676 6.17303 6.20057 5.91117 6.39789C8.77271 7.50987 12.2548 8.36984 13.3539 8.437C13.6596 8.45619 13.9856 8.48881 14.3115 8.48945C15.0384 8.48945 15.7639 8.29629 16.4661 8.11016C16.8808 7.99951 17.3384 7.87958 17.82 7.79227C17.6914 7.91188 17.5632 8.03276 17.4346 8.15493L15.4484 10.1912C15.2922 10.3408 14.9527 10.74 15.1764 11.2315C15.2655 11.4301 15.446 11.6194 15.6988 11.7809C16.1719 12.0832 17.0195 12.2872 17.8068 12.2878C18.1051 12.2882 18.3879 12.2597 18.6477 12.2044C19.4802 12.0275 20.3535 11.3681 21.2788 10.6709C22.0161 10.116 23.0632 9.41115 23.8649 9.20423C24.089 9.14634 24.3644 9.11052 24.5854 9.11052C24.6515 9.11116 24.714 9.11277 24.772 9.12076C25.3018 9.18441 25.814 9.35518 26.7285 10.0057C28.3587 11.1663 35.5733 17.148 35.6438 17.2072C35.6489 17.211 36.1088 17.5868 36.0771 18.2123C36.0599 18.5606 35.8554 18.8705 35.5007 19.0851C35.1926 19.2703 34.8748 19.3646 34.5535 19.3646C34.0713 19.3636 33.7393 19.1497 33.7177 19.135C33.691 19.1145 31.2192 16.9664 30.3102 16.2449C30.165 16.1313 30.0243 16.0287 29.8819 16.0287C29.806 16.028 29.7385 16.059 29.6933 16.1131C29.5499 16.2804 29.7102 16.5116 29.8991 16.6641L32.7867 19.4145C32.7904 19.4174 33.1464 19.7337 33.1852 20.1558C33.2081 20.6116 32.978 20.9931 32.4998 21.2902C32.159 21.5029 31.8141 21.611 31.4764 21.611C31.033 21.611 30.7215 21.4194 30.6527 21.374L30.2386 20.987C29.4817 20.2812 28.6999 19.5514 28.1279 19.0989C27.9885 18.9888 27.839 18.8875 27.6977 18.8875C27.6275 18.8875 27.564 18.9121 27.5158 18.9604C27.4503 19.0291 27.4047 19.1529 27.5674 19.3579C27.6345 19.442 27.7132 19.5117 27.7132 19.5117L29.8205 21.7549C29.8377 21.7747 30.2548 22.2442 29.8678 22.7118L29.7935 22.8013C29.7304 22.8672 29.6623 22.9279 29.5975 22.9804C29.2381 23.2599 28.7579 23.29 28.5679 23.29C28.4663 23.29 28.3682 23.2813 28.2831 23.2666C28.0752 23.2314 27.9355 23.1764 27.8677 23.101L27.8424 23.0757C27.727 22.9628 26.6651 21.9352 25.7864 21.24C25.6706 21.1479 25.5262 21.0321 25.3767 21.0321C25.3028 21.0321 25.2373 21.0596 25.1864 21.1127C25.0126 21.2931 25.2734 21.563 25.3841 21.6621L27.1814 23.5404C27.1793 23.5567 27.1567 23.5957 27.1132 23.6549C27.0491 23.7393 26.8308 23.9459 26.1791 24.0233C26.1009 24.0335 26.0202 24.037 25.9406 24.037C25.268 24.037 24.551 23.7281 24.1818 23.5423C24.3499 23.2055 24.4369 22.8349 24.4369 22.4629C24.4376 21.0609 23.2366 19.9204 21.7576 19.9195C21.7259 19.9195 21.6925 19.9204 21.6608 19.9214C21.709 19.2815 21.6135 18.0694 20.3012 17.5359C19.9233 17.3812 19.5463 17.3022 19.1802 17.3022C18.8937 17.3022 18.618 17.3485 18.3589 17.4429C18.0869 16.942 17.6354 16.5771 17.0462 16.3872C16.7209 16.2804 16.3969 16.2263 16.0841 16.2263C15.5378 16.2263 15.0347 16.3785 14.5859 16.6811C14.156 16.1742 13.5064 15.8742 12.8224 15.8742C12.2238 15.8742 11.6481 16.1013 11.2212 16.5017C10.6621 16.0968 8.44303 14.7609 2.50399 13.4827C2.21649 13.4212 1.55644 13.2418 1.15218 13.1296C1.08503 13.4344 1.03374 13.7423 1 14.0532C1 14.0532 2.09535 14.3017 2.31097 14.3477C8.37824 15.6248 10.3827 16.9526 10.7215 17.2037C10.6067 17.4649 10.547 17.7467 10.5463 18.0307C10.5456 19.2185 11.5651 20.1859 12.8197 20.1868C12.9601 20.1868 13.0994 20.1753 13.2364 20.1513C13.4254 21.0254 14.0291 21.6884 14.9513 22.0283C15.221 22.1265 15.4939 22.177 15.7615 22.177C15.9346 22.1774 16.1088 22.1569 16.2792 22.1156C16.4492 22.5256 16.8326 23.037 17.6894 23.3667C17.99 23.4812 18.2907 23.5413 18.5826 23.5413C18.8212 23.5413 19.0543 23.5017 19.2767 23.424C19.6874 24.3719 20.665 25 21.7542 25C22.4764 25.001 23.1698 24.7221 23.6753 24.2289C24.1082 24.457 25.0217 24.8695 25.9446 24.8708C26.0644 24.8708 26.1764 24.8625 26.2885 24.85C27.2053 24.7403 27.6318 24.4004 27.8279 24.1362C27.8633 24.0901 27.8954 24.0412 27.9224 23.9904C28.1387 24.0495 28.3766 24.0975 28.6492 24.0981C29.15 24.0981 29.6305 23.9363 30.1165 23.6008C30.5936 23.2749 30.9324 22.8067 30.9813 22.4083C30.9823 22.4028 30.9834 22.3971 30.984 22.391C31.1446 22.4226 31.31 22.4386 31.4747 22.4386C31.99 22.4386 32.4971 22.2864 32.9817 21.9855C33.9161 21.4047 34.0787 20.6464 34.0632 20.1498C34.2265 20.1824 34.3936 20.1987 34.5599 20.1987C35.0438 20.1987 35.5186 20.0608 35.9718 19.7871C36.5512 19.4366 36.8998 18.899 36.9524 18.2737C36.9889 17.8487 36.8778 17.4199 36.641 17.0514C38.207 16.4121 41.786 15.1748 46 14.2745C45.9747 13.9646 45.9275 13.6589 45.8691 13.3544C40.7699 14.4271 36.9649 15.9877 36.012 16.3894Z" fill="#2A3C8E"/>
<path d="M122.715 11.1778C122.314 11.6878 121.741 11.9427 120.992 11.9427C120.244 11.9427 119.668 11.6878 119.264 11.1778C118.86 10.6684 118.658 9.94299 118.658 9.00299C118.658 8.06458 118.86 7.34102 119.264 6.83389C119.668 6.32708 120.244 6.07337 120.992 6.07337C121.741 6.07337 122.314 6.32708 122.715 6.83389C123.115 7.34102 123.317 8.06458 123.317 9.00299C123.317 9.94299 123.115 10.6684 122.715 11.1778ZM124.761 5.48757C123.935 4.49544 122.682 4 121 4C119.319 4 118.065 4.49544 117.24 5.48757C116.413 6.47907 116 7.65098 116 9.00299C116 10.3793 116.413 11.5554 117.24 12.5345C118.065 13.5102 119.319 14 121 14C122.682 14 123.935 13.5102 124.761 12.5345C125.588 11.5554 126 10.3793 126 9.00299C126 7.65098 125.588 6.47907 124.761 5.48757Z" fill="#2A3C8E"/>
<path d="M102.348 10.009C102.33 10.8369 102.075 11.407 101.585 11.7194C101.095 12.0321 100.56 12.1891 99.9793 12.1891C99.6116 12.1891 99.3005 12.0941 99.0442 11.9063C98.7885 11.7181 98.6614 11.4124 98.6614 10.9897C98.6614 10.5156 98.8699 10.1657 99.2889 9.9394C99.5381 9.80687 99.9448 9.69279 100.513 9.60221L101.119 9.49766C101.421 9.44427 101.659 9.38738 101.832 9.32636C102.008 9.26693 102.178 9.18844 102.348 9.08897V10.009ZM103.697 4.61622C102.829 4.20689 101.834 4 100.716 4C98.9967 4 97.7831 4.4176 97.0769 5.25024C96.6326 5.78351 96.3835 6.46329 96.3254 7.29084H98.8942C98.9574 6.92569 99.0835 6.63648 99.2732 6.4226C99.5381 6.1334 99.9885 5.9888 100.625 5.9888C101.194 5.9888 101.625 6.06126 101.919 6.21063C102.211 6.35777 102.359 6.62569 102.359 7.01277C102.359 7.33184 102.168 7.56542 101.785 7.7167C101.571 7.80377 101.217 7.87592 100.72 7.93376L99.8098 8.03799C98.7756 8.15907 97.9902 8.36246 97.4584 8.64658C96.4857 9.16777 96 10.009 96 11.1728C96 12.0693 96.3008 12.7631 96.9064 13.2522C97.5089 13.7413 98.2769 13.9466 99.2031 13.9866C105.012 14.2278 104.946 11.14 105 10.4978V6.94381C105 5.80385 104.565 5.02746 103.697 4.61622Z" fill="#2A3C8E"/>
<path d="M90.6826 6.08998C91.2883 6.08998 91.7323 6.28103 92.0198 6.66279C92.2168 6.94553 92.3401 7.26425 92.3878 7.61735H95C94.8567 6.27052 94.3952 5.33029 93.6169 4.7976C92.8358 4.26747 91.8357 4 90.6125 4C89.1737 4 88.0436 4.45181 87.2276 5.3532C86.4094 6.25586 86 7.51705 86 9.13866C86 10.5746 86.3701 11.7451 87.1104 12.6471C87.8507 13.5485 89.0057 14 90.5748 14C92.146 14 93.3319 13.4594 94.131 12.3777C94.6323 11.7078 94.9131 10.9962 94.9723 10.2442H92.3688C92.3161 10.7412 92.1641 11.1468 91.912 11.4588C91.6609 11.7699 91.2378 11.9269 90.639 11.9269C89.7959 11.9269 89.2219 11.5343 88.9166 10.7466C88.7499 10.3266 88.6655 9.77037 88.6655 9.07817C88.6655 8.35222 88.7499 7.76987 88.9166 7.33016C89.2338 6.50423 89.8233 6.08998 90.6826 6.08998Z" fill="#2A3C8E"/>
<path d="M84.639 4C78.6496 4 79.004 8.96096 79.004 8.96096V14H81.7218V9.2736C81.7218 8.49931 81.8269 7.92576 82.0338 7.55261C82.407 6.89186 83.1352 6.56035 84.2224 6.56035C84.3041 6.56035 84.4119 6.56425 84.5448 6.57011C84.6766 6.57596 84.8272 6.58735 85 6.6059V4.01921C84.8793 4.0114 84.8011 4.00814 84.7673 4.00521C84.7326 4.00228 84.6894 4 84.639 4Z" fill="#2A3C8E"/>
<path d="M71.4217 6.57107C71.7955 6.21249 72.3195 6.03271 72.9955 6.03271C73.6179 6.03271 74.1385 6.20136 74.5595 6.54089C74.9785 6.87947 75.2132 7.37685 75.2607 8.03018H70.7202C70.8149 7.41623 71.0499 6.93061 71.4217 6.57107ZM74.9891 11.193C74.8777 11.3416 74.7578 11.469 74.6257 11.5684C74.2509 11.8571 73.7419 11.9447 73.1426 11.9447C72.5752 11.9447 72.1317 11.8644 71.7297 11.6275C71.0675 11.247 70.695 10.6028 70.6553 9.65699H77.9979C78.0084 8.84327 77.9802 8.21979 77.9099 7.78593C77.7877 7.04717 77.5194 6.39638 77.1072 5.83611C76.6495 5.20089 76.0668 4.73591 75.3646 4.44053C74.6621 4.14738 73.8726 4 72.9955 4C71.5168 4 70.3164 4.43577 69.3905 5.30666C68.4648 6.17945 68 7.43052 68 9.064C68 10.8077 68.5134 12.0661 69.5395 12.8394C70.5647 13.6125 71.7497 14 73.0903 14C74.715 14 75.9799 13.5417 76.8824 12.6241C77.3697 12.1413 77.6746 11.664 77.8033 11.193H74.9891Z" fill="#2A3C8E"/>
<path d="M67 14H64.6594V8.17103C64.6594 7.63859 64.4817 6.37201 62.9376 6.37201C61.908 6.37201 61.1631 7.10614 61.1631 8.17103V14H58.8202V8.17103C58.8202 7.63859 58.6605 6.37201 57.1174 6.37201C56.0698 6.37201 55.3422 7.10614 55.3422 8.17103V14H53V8.22648C53 5.81978 54.6142 4 57.1174 4C58.3598 4 59.3704 4.51591 60.0279 5.34278C60.7191 4.51591 61.748 4 62.9376 4C65.493 4 67 5.74618 67 8.22648V14Z" fill="#2A3C8E"/>
<path d="M112.435 11.1901C112.001 11.7114 111.364 11.9718 110.53 11.9718C109.693 11.9718 109.071 11.7091 108.661 11.1857C108.25 10.6609 108.045 9.8977 108.045 9.02419C108.045 8.21348 108.246 7.53476 108.65 6.98771C109.053 6.44129 109.686 6.1668 110.55 6.1668C111.116 6.1668 111.613 6.31728 112.042 6.61822C112.739 7.11619 113.088 8.00978 113.088 9.1667C113.088 9.99462 112.87 10.6689 112.435 11.1901ZM116 1.01184C116 1.01184 113.006 0.743712 113.006 2.7598L113.004 5.42878C112.673 4.98278 112.242 4.6337 111.71 4.3828C111.18 4.13127 110.572 4.00439 109.887 4.00439C108.402 4.00439 107.219 4.46792 106.33 5.39371C105.442 6.32046 105 7.65591 105 9.27031C105 10.6714 105.45 11.8201 106.352 12.7146C107.252 13.6079 109.02 14 110.589 14C116.061 14 115.998 10.0657 115.998 10.0657L116 1.01184Z" fill="#2A3C8E"/>
<path d="M76.5267 24.0474C76.5267 23.11 76.3478 22.3896 75.9876 21.8838C75.6296 21.3809 75.1158 21.1261 74.446 21.1261C73.8015 21.1261 73.2989 21.3809 72.9387 21.8838C72.6054 22.3412 72.4387 23.0642 72.4387 24.0474C72.4387 24.9639 72.6172 25.6458 72.9765 26.1033C73.3342 26.609 73.8489 26.8609 74.5181 26.8609C75.1389 26.8609 75.6296 26.609 75.9876 26.1033C76.3478 25.5984 76.5267 24.9152 76.5267 24.0474ZM72.4387 30.7738C72.4387 31.1103 72.3188 31.3991 72.0785 31.639C71.8403 31.8798 71.5532 32 71.2182 32H70V23.3616C70 21.6815 70.5556 20.6296 71.4698 19.9186C72.0741 19.4485 72.9746 19 74.6611 19C75.8 19 77.1341 19.4504 77.8545 20.3455C78.6629 21.3523 79 22.4742 79 23.9393C79 25.455 78.6414 26.6777 77.925 27.6177C77.2081 28.5322 76.2866 28.9874 75.163 28.9874C74.5656 28.9874 74.0399 28.8789 73.5861 28.6642C73.106 28.4231 72.7255 28.0509 72.4387 27.5455V30.7738Z" fill="#00ADEF"/>
<path d="M92.4475 24.137C92.4475 25.8112 92.9283 26.739 93.888 26.9225C94.8468 27.1016 95.5558 26.8772 96.012 26.2473C96.228 25.9821 96.3834 25.5618 96.4798 24.9929C96.5748 24.4231 96.5825 23.8584 96.4979 23.3004C96.4153 22.7409 96.2159 22.2434 95.9035 21.8066C95.5925 21.3705 95.1359 21.1513 94.5357 21.1513C93.7193 21.1513 93.1689 21.456 92.8801 22.0602C92.5901 22.6683 92.4475 23.3596 92.4475 24.137ZM96.5522 28.3222V27.7055C96.1208 28.3865 95.5373 28.8081 94.8057 28.9795C94.0731 29.1482 93.3472 29.0878 92.6287 28.7959C91.9077 28.506 91.289 27.9655 90.7728 27.1777C90.2578 26.3865 90 25.349 90 24.0625C90 22.56 90.342 21.339 91.0251 20.405C91.7095 19.4711 92.8087 19.0449 94.3204 19.0031C95.81 18.9636 96.6763 19.3033 97.5243 19.9502C98.4515 20.6592 99 21.7468 99 23.4444V28.5793C99.0038 30.2133 97.8728 33.2414 94.3204 32.9847C92.1195 32.824 90.8975 31.9144 90.2163 29.8536H92.8441C93.0362 30.1924 93.3294 30.4534 93.7276 30.634C94.1213 30.8185 94.5198 30.8654 94.9129 30.7805C95.3088 30.6957 95.669 30.4582 95.9954 30.0715C96.3177 29.683 96.5034 29.0997 96.5522 28.3222Z" fill="#00ADEF"/>
<path d="M86.0527 25.0088C86.0341 25.8377 85.75 26.4067 85.2065 26.7197C84.6626 27.0322 84.0678 27.1885 83.4221 27.1885C83.0135 27.1885 82.6678 27.0938 82.3837 26.9063C82.0985 26.7185 81.9561 26.4121 81.9561 25.9893C81.9561 25.5157 82.1893 25.1652 82.6549 24.9392C82.9322 24.8066 83.3834 24.6925 84.0146 24.6023L84.6884 24.4974C85.0253 24.444 85.2893 24.3877 85.4796 24.3264C85.6759 24.2669 85.8643 24.1881 86.0527 24.0886V25.0088ZM87.5529 19.6157C86.5871 19.2069 85.4826 19 84.241 19C82.3286 19 80.9818 19.4173 80.196 20.2497C79.7034 20.7824 79.425 21.4626 79.3612 22.2909H82.2177C82.2872 21.9254 82.4266 21.6362 82.6378 21.4226C82.9322 21.1334 83.4331 20.9884 84.1396 20.9884C84.7735 20.9884 85.2509 21.0612 85.5768 21.2099C85.9019 21.3577 86.066 21.6254 86.066 22.0131C86.066 22.3316 85.854 22.5662 85.4283 22.7168C85.1917 22.8036 84.7978 22.8758 84.2456 22.9339L83.2337 23.0372C82.0848 23.159 81.2113 23.363 80.6214 23.6462C79.5393 24.1672 79 25.0088 79 26.1721C79 27.069 79.3342 27.7629 80.0073 28.2517C80.6769 28.7406 81.5299 28.9468 82.5596 28.9866C89.0133 29.2281 88.9411 26.1393 89 25.4973V21.9429C89 20.8028 88.518 20.0276 87.5529 19.6157Z" fill="#00ADEF"/>
<path d="M106.716 26.1774C106.315 26.6881 105.741 26.9428 104.993 26.9428C104.244 26.9428 103.667 26.6881 103.265 26.1774C102.859 25.6687 102.659 24.9434 102.659 24.0039C102.659 23.0651 102.859 22.3414 103.265 21.8349C103.667 21.3271 104.244 21.0746 104.993 21.0746C105.741 21.0746 106.315 21.3271 106.716 21.8349C107.117 22.3414 107.317 23.0651 107.317 24.0039C107.317 24.9434 107.117 25.6687 106.716 26.1774ZM108.763 20.4881C107.936 19.4952 106.682 19 104.999 19C103.32 19 102.066 19.4952 101.24 20.4881C100.413 21.4794 100 22.6508 100 24.0039C100 25.3801 100.413 26.556 101.24 27.535C102.066 28.5102 103.32 29 104.999 29C106.682 29 107.936 28.5102 108.763 27.535C109.588 26.556 110 25.3801 110 24.0039C110 22.6508 109.588 21.4794 108.763 20.4881Z" fill="#00ADEF"/>
</svg>
