<svg width="88" height="37" viewBox="0 0 88 37" fill="none" xmlns="http://www.w3.org/2000/svg">
<path fill-rule="evenodd" clip-rule="evenodd" d="M87.846 19.012C87.846 12.914 84.8255 8.10229 79.0524 8.10229C73.255 8.10229 69.7473 12.914 69.7473 18.9643C69.7473 26.1342 73.8883 29.7549 79.8319 29.7549C82.7306 29.7549 84.9229 29.1117 86.5794 28.2066V23.4425C84.9229 24.2524 83.0229 24.7526 80.6114 24.7526C78.2486 24.7526 76.1537 23.9427 75.8858 21.132H87.7973C87.7973 20.8223 87.846 19.5836 87.846 19.012ZM75.8127 16.749C75.8127 14.0574 77.4935 12.9378 79.0281 12.9378C80.514 12.9378 82.0973 14.0574 82.0973 16.749H75.8127Z" fill="#635BFF"/>
<path fill-rule="evenodd" clip-rule="evenodd" d="M60.3448 8.10229C57.9576 8.10229 56.423 9.19803 55.5704 9.96027L55.2537 8.48342H49.8948V36.2578L55.9845 34.9953L56.0089 28.2542C56.8858 28.8735 58.1768 29.7549 60.3204 29.7549C64.6807 29.7549 68.6512 26.3248 68.6512 18.7738C68.6268 11.8659 64.6076 8.10229 60.3448 8.10229ZM58.8832 24.5144C57.4461 24.5144 56.5935 24.0142 56.0089 23.3949L55.9845 14.5576C56.6179 13.8668 57.4948 13.3904 58.8832 13.3904C61.0999 13.3904 62.6345 15.82 62.6345 18.9405C62.6345 22.1324 61.1243 24.5144 58.8832 24.5144Z" fill="#635BFF"/>
<path fill-rule="evenodd" clip-rule="evenodd" d="M41.5154 6.69699L47.6295 5.4107V0.575195L41.5154 1.83767V6.69699Z" fill="#635BFF"/>
<path d="M47.6295 8.50732H41.5154V29.35H47.6295V8.50732Z" fill="#635BFF"/>
<path fill-rule="evenodd" clip-rule="evenodd" d="M34.9628 10.2701L34.5731 8.50745H29.3115V29.3501H35.4013V15.2248C36.8384 13.3906 39.2743 13.7241 40.0295 13.9861V8.50745C39.25 8.22161 36.4 7.69756 34.9628 10.2701Z" fill="#635BFF"/>
<path fill-rule="evenodd" clip-rule="evenodd" d="M22.7834 3.33838L16.8398 4.57703L16.8154 23.657C16.8154 27.1824 19.5193 29.7788 23.1244 29.7788C25.1218 29.7788 26.5834 29.4215 27.3872 28.9928V24.1573C26.6077 24.4669 22.759 25.5626 22.759 22.0373V13.5811H27.3872V8.50737H22.759L22.7834 3.33838Z" fill="#635BFF"/>
<path fill-rule="evenodd" clip-rule="evenodd" d="M6.31663 14.5576C6.31663 13.6286 7.09612 13.2713 8.38714 13.2713C10.2384 13.2713 12.5769 13.8191 14.4282 14.7958V9.19802C12.4064 8.41196 10.4089 8.10229 8.38714 8.10229C3.44227 8.10229 0.153809 10.6272 0.153809 14.8434C0.153809 21.4178 9.41022 20.3697 9.41022 23.2043C9.41022 24.3001 8.43586 24.6574 7.07176 24.6574C5.04996 24.6574 2.46791 23.8475 0.421757 22.7517V28.4209C2.68714 29.3738 4.97689 29.7787 7.07176 29.7787C12.1384 29.7787 15.6218 27.3252 15.6218 23.0614C15.5974 15.963 6.31663 17.2254 6.31663 14.5576Z" fill="#635BFF"/>
</svg>
